<svg id="account_unlocked" data-name="account unlocked" xmlns="http://www.w3.org/2000/svg" width="13.082" height="17.648" viewBox="0 0 13.082 17.648">
  <g id="accoit_unlocked" data-name="accoit unlocked" transform="translate(-84.93 -1498.137)">
    <path id="Path_515" data-name="Path 515" d="M96.743,1508.671H86.2a1.27,1.27,0,0,0-1.268,1.269v7.572a1.27,1.27,0,0,0,1.268,1.269H96.743a1.27,1.27,0,0,0,1.269-1.269v-7.572A1.271,1.271,0,0,0,96.743,1508.671Zm.25,9.1H85.964v-.016h-.007v-7.814h.007v-.276H96.993Z" transform="translate(0 -2.996)" fill="#999"/>
    <path id="Path_403" data-name="Path 403" d="M88.706,1503.939s.006-.968.006-1.728,1.252-1.922,2.208-2.225a7.3,7.3,0,0,1,2.2-.036,3.373,3.373,0,0,1,2.218,2.027c.078.214.078.235.085,1.956l.006.149h1.742v-.12a9.846,9.846,0,0,0-.185-2.6,5.276,5.276,0,0,0-3.818-3.142,8.756,8.756,0,0,0-1.837-.064,5.046,5.046,0,0,0-4.337,3.9c-.021.178-.035.952-.035,1.979v1.643H88.7Z" transform="translate(-0.578)" fill="#999"/>
  </g>
</svg>
