<?xml version="1.0" encoding="utf-8"?>
<!-- Generator: Adobe Illustrator 27.6.1, SVG Export Plug-In . SVG Version: 6.00 Build 0)  -->
<svg version="1.1" id="account_unlocked" xmlns="http://www.w3.org/2000/svg" xmlns:xlink="http://www.w3.org/1999/xlink" x="0px"
	 y="0px" viewBox="0 0 13.1 17.6" style="enable-background:new 0 0 13.1 17.6;" xml:space="preserve">
<style type="text/css">
	.st0{fill:#999999;}
</style>
<g id="accoit_unlocked" transform="translate(-84.93 -1498.137)">
	<path class="st0" d="M98,1506.9v7.6c0,0.7-0.6,1.3-1.3,1.3H86.2c-0.7,0-1.3-0.6-1.3-1.3v-7.6c0-0.7,0.6-1.3,1.3-1.3h0.2v-1.6
		c0-1,0-1.8,0-2c0.5-2.1,2.2-3.6,4.3-3.9c0.6,0,1.2,0,1.8,0.1c1.7,0.3,3.2,1.5,3.8,3.2c0.2,0.8,0.2,1.7,0.2,2.6v0.1h-1.7l0-0.2
		c0-1.7,0-1.8-0.1-2c-0.4-1-1.2-1.7-2.2-2c-0.7-0.1-1.5-0.1-2.2,0c-0.9,0.3-2.2,1.5-2.2,2.2s0,1.7,0,1.7l0,1.7h8.6
		C97.4,1505.7,98,1506.2,98,1506.9z"/>
</g>
</svg>
