<svg id="account_locked" data-name="account locked" xmlns="http://www.w3.org/2000/svg" width="13.446" height="17.469" viewBox="0 0 13.446 17.469">
  <g id="account_locked-2" data-name="account locked" transform="translate(-130.901 -1499.351)">
    <g id="lock" transform="translate(130.901 1499.351)">
      <path id="Path_513" data-name="Path 513" d="M143.043,1508.974H132.205a1.305,1.305,0,0,0-1.3,1.3v7.784a1.305,1.305,0,0,0,1.3,1.3h10.838a1.305,1.305,0,0,0,1.3-1.3v-7.784A1.305,1.305,0,0,0,143.043,1508.974Zm.257,9.351H131.964v-.016h-.007v-8.032h.007v-.282H143.3Z" transform="translate(-130.901 -1501.896)" fill="#999"/>
      <path id="Path_403" data-name="Path 403" d="M134.759,1505.209s.007-.977.007-1.745,1.265-1.94,2.23-2.246a7.353,7.353,0,0,1,2.225-.037,3.4,3.4,0,0,1,2.24,2.046c.079.216.079.236.086,1.974l.007,1.759h1.759v-1.73a9.922,9.922,0,0,0-.186-2.62,5.326,5.326,0,0,0-3.855-3.173,8.844,8.844,0,0,0-1.855-.065,5.093,5.093,0,0,0-4.379,3.934c-.022.18-.036.962-.036,2v1.66h1.751Z" transform="translate(-131.456 -1499.351)" fill="#999"/>
    </g>
  </g>
</svg>
