<?xml version="1.0" encoding="utf-8"?>
<!-- Generator: Adobe Illustrator 27.6.1, SVG Export Plug-In . SVG Version: 6.00 Build 0)  -->
<svg version="1.1" id="account_locked" xmlns="http://www.w3.org/2000/svg" xmlns:xlink="http://www.w3.org/1999/xlink" x="0px"
	 y="0px" viewBox="0 0 13.4 17.5" style="enable-background:new 0 0 13.4 17.5;" xml:space="preserve">
<style type="text/css">
	.st0{fill:#999999;}
</style>
<path class="st0" d="M12.1,7.1h-0.3V5.9c0-0.9,0-1.8-0.2-2.6C11,1.6,9.5,0.4,7.8,0.1C7.2,0,6.6,0,6,0C3.8,0.3,2.1,1.8,1.6,4
	c0,0.2,0,1,0,2v1.1H1.3C0.6,7.1,0,7.7,0,8.4v7.8c0,0.7,0.6,1.3,1.3,1.3h10.8c0.7,0,1.3-0.6,1.3-1.3V8.4C13.4,7.7,12.9,7.1,12.1,7.1z
	 M3.3,5.9c0,0,0-1,0-1.8c0-0.8,1.3-1.9,2.2-2.2c0.7-0.1,1.5-0.1,2.2,0c1,0.3,1.8,1,2.2,2c0.1,0.2,0.1,0.2,0.1,2l0,1.2H3.3V5.9z"/>
</svg>
