<svg id="card:_new_translation" data-name="card: new translation" xmlns="http://www.w3.org/2000/svg" width="300" height="215" viewBox="0 0 300 215">
  <g id="Group_198" data-name="Group 198" transform="translate(-73 -904)">
    <g id="Rectangle_28" data-name="Rectangle 28" transform="translate(73 904)" fill="none" stroke="#999" stroke-width="3" stroke-dasharray="7 5">
      <rect width="300" height="215" rx="22" stroke="none"/>
      <rect x="1.5" y="1.5" width="297" height="212" rx="20.5" fill="none"/>
    </g>
  </g>
  <g id="Group_275" data-name="Group 275" transform="translate(-73 -904)">
    <g id="Rectangle_28-2" data-name="Rectangle 28" transform="translate(73 904)" fill="none" stroke="#999" stroke-width="3" stroke-dasharray="7 5">
      <rect width="300" height="215" rx="22" stroke="none"/>
      <rect x="1.5" y="1.5" width="297" height="212" rx="20.5" fill="none"/>
    </g>
  </g>
  <path id="Path_584" data-name="Path 584" d="M819.921,1106.082c-2.667-2.667-3.578-2.8-18.478-2.8H788.3v-13.206c0-7.938-.131-13.924-.455-14.9a9.371,9.371,0,0,0-8.591-6.31,9.213,9.213,0,0,0-8.587,6.31c-.262.976-.456,6.962-.456,14.834v13.272H756.552c-15.356,0-15.811.066-18.478,3.122a8.753,8.753,0,0,0,.521,12.168c2.667,2.667,3.577,2.8,18.478,2.8h13.141v13.206c0,7.938.131,13.92.456,14.9a9.364,9.364,0,0,0,8.587,6.313,9.214,9.214,0,0,0,8.591-6.313c.259-.977.455-6.959.455-14.831v-13.272h13.662c15.352,0,15.807-.066,18.478-3.126A8.752,8.752,0,0,0,819.921,1106.082Z" transform="translate(-629.258 -1003.73)" fill="#999"/>
</svg>
