<svg id="airline_checkout" data-name="airline checkout" xmlns="http://www.w3.org/2000/svg" width="175" height="13" viewBox="0 0 175 13">
  <g id="Group_138" data-name="Group 138" transform="translate(-604 -153)">
    <g id="Ellipse_4" data-name="Ellipse 4" transform="translate(604 153)" fill="#fff" stroke="#999" stroke-width="1">
      <circle cx="6.5" cy="6.5" r="6.5" stroke="none"/>
      <circle cx="6.5" cy="6.5" r="6" fill="none"/>
    </g>
    <circle id="Ellipse_5" data-name="Ellipse 5" cx="4.5" cy="4.5" r="4.5" transform="translate(606 155)" fill="#9fc"/>
  </g>
  <g id="Group_139" data-name="Group 139" transform="translate(-442 -153)">
    <g id="Ellipse_4-2" data-name="Ellipse 4" transform="translate(604 153)" fill="#fff" stroke="#999" stroke-width="1">
      <circle cx="6.5" cy="6.5" r="6.5" stroke="none"/>
      <circle cx="6.5" cy="6.5" r="6" fill="none"/>
    </g>
    <circle id="Ellipse_5-2" data-name="Ellipse 5" cx="4.5" cy="4.5" r="4.5" transform="translate(606 155)" fill="#9fc"/>
  </g>
  <g id="Group_140" data-name="Group 140" transform="translate(-523 -153)">
    <g id="Ellipse_4-3" data-name="Ellipse 4" transform="translate(604 153)" fill="#fff" stroke="#999" stroke-width="1">
      <circle cx="6.5" cy="6.5" r="6.5" stroke="none"/>
      <circle cx="6.5" cy="6.5" r="6" fill="none"/>
    </g>
    <circle id="Ellipse_5-3" data-name="Ellipse 5" cx="4.5" cy="4.5" r="4.5" transform="translate(606 155)" fill="#9fc"/>
  </g>
  <g id="Group_470" data-name="Group 470" transform="translate(-482 -153)">
    <g id="Ellipse_4-4" data-name="Ellipse 4" transform="translate(604 153)" fill="#fff" stroke="#999" stroke-width="1">
      <circle cx="6.5" cy="6.5" r="6.5" stroke="none"/>
      <circle cx="6.5" cy="6.5" r="6" fill="none"/>
    </g>
    <circle id="Ellipse_5-4" data-name="Ellipse 5" cx="4.5" cy="4.5" r="4.5" transform="translate(606 155)" fill="#9fc"/>
  </g>
  <g id="Group_471" data-name="Group 471" transform="translate(-563 -153)">
    <g id="Ellipse_4-5" data-name="Ellipse 4" transform="translate(604 153)" fill="#fff" stroke="#999" stroke-width="1">
      <circle cx="6.5" cy="6.5" r="6.5" stroke="none"/>
      <circle cx="6.5" cy="6.5" r="6" fill="none"/>
    </g>
    <circle id="Ellipse_5-5" data-name="Ellipse 5" cx="4.5" cy="4.5" r="4.5" transform="translate(606 155)" fill="#9fc"/>
  </g>
</svg>
