<svg id="api" xmlns="http://www.w3.org/2000/svg" width="54.587" height="44.363" viewBox="0 0 54.587 44.363">
  <path id="Path_204" data-name="Path 204" d="M112.112,32.116c0,.185-6.939,43.461-7.008,43.854-.093.393-.069.393,1.735.393a5.275,5.275,0,0,0,1.827-.162c0-.116,6.314-39.76,6.893-43.3l.162-.9h-1.8A10.461,10.461,0,0,0,112.112,32.116Z" transform="translate(-83.084 -32)"/>
  <path id="Path_205" data-name="Path 205" d="M18.327,63.7,10,72.03l8.234,8.234c4.533,4.533,8.281,8.234,8.35,8.234a9.368,9.368,0,0,0,.139-2.382V83.734l-5.829-5.852L15.042,72.03l5.829-5.875L26.723,60.3V57.851c0-1.342-.023-2.452-.046-2.452C26.654,55.377,22.883,59.124,18.327,63.7Z" transform="translate(-10 -49.986)"/>
  <path id="Path_206" data-name="Path 206" d="M173.7,59.729v2.382l5.829,5.829,5.852,5.852-5.852,5.852L173.7,85.472v2.382a9.512,9.512,0,0,0,.139,2.382c.069,0,3.84-3.7,8.35-8.234l8.234-8.234-8.234-8.234c-4.533-4.533-8.281-8.234-8.35-8.234A10.479,10.479,0,0,0,173.7,59.729Z" transform="translate(-135.836 -51.447)"/>
</svg>
