<svg xmlns="http://www.w3.org/2000/svg" xmlns:xlink="http://www.w3.org/1999/xlink" width="269" height="337" viewBox="0 0 269 337">
  <defs>
    <filter id="Rectangle_4" x="0" y="0" width="269" height="337" filterUnits="userSpaceOnUse">
      <feOffset dx="2" dy="2" input="SourceAlpha"/>
      <feGaussianBlur stdDeviation="2" result="blur"/>
      <feFlood flood-opacity="0.161"/>
      <feComposite operator="in" in2="blur"/>
      <feComposite in="SourceGraphic"/>
    </filter>
  </defs>
  <g id="bubble:_discovery" data-name="bubble: discovery" transform="translate(4 4)">
    <g transform="matrix(1, 0, 0, 1, -4, -4)" filter="url(#Rectangle_4)">
      <rect id="Rectangle_4-2" data-name="Rectangle 4" width="257" height="325" rx="22" transform="translate(4 4)" fill="#fff"/>
    </g>
    <text id="manoli" transform="translate(55 12)" font-size="15" font-family="OpenSans-Regular, Open Sans"><tspan x="0" y="16">manoli</tspan></text>
    <text id="unknown" transform="translate(55 28)" fill="#999" font-size="15" font-family="OpenSans-Regular, Open Sans"><tspan x="0" y="16">unknown</tspan></text>
    <g id="unknown-2" data-name="unknown" transform="translate(17 18)">
      <g id="Group_744" data-name="Group 744">
        <ellipse id="Ellipse_1" data-name="Ellipse 1" cx="12.5" cy="12.5" rx="12.5" ry="12.5" fill="#f66"/>
      </g>
      <g id="Group_745" data-name="Group 745" transform="translate(11.063 5.171)">
        <path id="Path_542" data-name="Path 542" d="M404.464,1407.646a1.794,1.794,0,0,0,1.217,0,1.529,1.529,0,0,0,.7-.653l.1-.19.018-7.946-.118-.267a1.6,1.6,0,0,0-.7-.65,1.809,1.809,0,0,0-.945-.088,1.477,1.477,0,0,0-.967.742l-.1.19-.018,7.946.116.264A1.543,1.543,0,0,0,404.464,1407.646Z" transform="translate(-403.631 -1397.823)" fill="#fff"/>
        <path id="Path_543" data-name="Path 543" d="M406.094,1413.057a1.511,1.511,0,0,0-1.48-.349,1.475,1.475,0,0,0-.953,1.063,1.433,1.433,0,0,0,.389,1.333,1.262,1.262,0,0,0,1.024.407,1.293,1.293,0,0,0,1.021-.4,1.265,1.265,0,0,0,.408-1.026A1.3,1.3,0,0,0,406.094,1413.057Z" transform="translate(-403.626 -1400.824)" fill="#fff"/>
      </g>
    </g>
    <text id="We_have_low_confidence_translating_manoli._It_may_be_a_correct_word_or_phrase_not_found_in_our_culinary_dictionary_or_it_could_be_a_spelling_error_we_need_to_fix." data-name="We have low confidence translating manoli. It may be a correct word or phrase not found in our culinary dictionary or it could be a spelling error we need to fix." transform="translate(18 69)" font-size="15" font-family="OpenSans-Regular, Open Sans"><tspan x="0" y="16">We have low confidence </tspan><tspan x="0" y="36">translating manoli. It may be </tspan><tspan x="0" y="56">a correct word or phrase not </tspan><tspan x="0" y="76">found in our culinary </tspan><tspan x="0" y="96">dictionary or it could be a </tspan><tspan x="0" y="116">spelling error we need to fix.</tspan></text>
    <text id="unknown-3" data-name="unknown" transform="translate(55 28)" fill="#999" font-size="15" font-family="OpenSans-Regular, Open Sans"><tspan x="0" y="16">unknown</tspan></text>
    <g id="dots" transform="translate(101.567 191.234)">
      <g id="Group_18" data-name="Group 18" transform="translate(10 101.256)">
        <g id="Group_17" data-name="Group 17" transform="translate(0)">
          <path id="Path_36" data-name="Path 36" d="M12.731,101.539a4.735,4.735,0,0,0-2.386,2.011A3.307,3.307,0,0,0,10,105.365a3.437,3.437,0,0,0,1.35,3.031,4.011,4.011,0,0,0,6.227-1.38,4.717,4.717,0,0,0,0-3.271A4.105,4.105,0,0,0,12.731,101.539Z" transform="translate(-10 -101.352)"/>
          <path id="Path_37" data-name="Path 37" d="M104.175,101.568a4.025,4.025,0,0,0-2.731,4.936,3.985,3.985,0,0,0,5.7,2.416,3.8,3.8,0,0,0,2.1-3.511,3.885,3.885,0,0,0-3.571-3.961A5.538,5.538,0,0,0,104.175,101.568Z" transform="translate(-87.596 -101.412)" fill="#999"/>
          <path id="Path_38" data-name="Path 38" d="M196.446,101.353a4.267,4.267,0,0,0-2.746,2.281,4.133,4.133,0,0,0-.3,1.635,3.931,3.931,0,0,0,3.541,3.991,4.284,4.284,0,0,0,3.991-2.176,4.719,4.719,0,0,0,0-3.616A4.154,4.154,0,0,0,196.446,101.353Z" transform="translate(-165.883 -101.256)" fill="#999"/>
        </g>
      </g>
    </g>
    <g id="button:_capretto_word" data-name="button: capretto word" transform="translate(77 220)">
      <rect id="Rectangle_5" data-name="Rectangle 5" width="43" height="25" rx="12.5" fill="#9fc"/>
      <text id="fix" transform="translate(12)" font-size="15" font-family="OpenSans-Regular, Open Sans"><tspan x="0" y="16">fix</tspan></text>
    </g>
    <g id="button:_capretto_word-2" data-name="button: capretto word" transform="translate(136 220)">
      <rect id="Rectangle_5-2" data-name="Rectangle 5" width="49" height="25" rx="12.5" fill="#f3f3f3"/>
      <text id="skip" transform="translate(11)" font-size="15" font-family="OpenSans-Regular, Open Sans"><tspan x="0" y="16">skip</tspan></text>
    </g>
  </g>
</svg>
