<svg xmlns="http://www.w3.org/2000/svg" xmlns:xlink="http://www.w3.org/1999/xlink" width="205" height="75" viewBox="0 0 205 75">
  <defs>
    <filter id="Rectangle_4" x="0" y="0" width="205" height="75" filterUnits="userSpaceOnUse">
      <feOffset dx="2" dy="2" input="SourceAlpha"/>
      <feGaussianBlur stdDeviation="2" result="blur"/>
      <feFlood flood-opacity="0.161"/>
      <feComposite operator="in" in2="blur"/>
      <feComposite in="SourceGraphic"/>
    </filter>
  </defs>
  <g id="bubble:_trash_add_to_cards" data-name="bubble: trash / add to cards" transform="translate(4 4)">
    <g id="bubble:_spelling" data-name="bubble: spelling">
      <g transform="matrix(1, 0, 0, 1, -4, -4)" filter="url(#Rectangle_4)">
        <rect id="Rectangle_4-2" data-name="Rectangle 4" width="193" height="63" rx="22" transform="translate(4 4)" fill="#fff"/>
      </g>
      <text id="wrong_word" data-name="wrong word" transform="translate(55 18)" font-size="15" font-family="OpenSans-Regular, Open Sans"><tspan x="0" y="16">wrong word</tspan></text>
      <g id="Group_646" data-name="Group 646" transform="translate(-267.23 -1373.34)">
        <g id="Group_646-2" data-name="Group 646" transform="translate(284.747 1391.339)">
          <circle id="Ellipse_6" data-name="Ellipse 6" cx="12.162" cy="12.162" r="12.162" fill="#9fc"/>
        </g>
        <path id="Path_483" data-name="Path 483" d="M305.184,1401.952c-.045-.143-.13-.245-.569-.683-.51-.519-.615-.563-.64-.574a.876.876,0,0,0-.53-.073,1.123,1.123,0,0,0-.22.077c-.12.067-3.045,2.993-3.17,3.117l-2.937,2.937-1.48-1.475a18.5,18.5,0,0,0-1.748-1.676.738.738,0,0,0-.366-.078c-.357,0-.475.109-1.123.763-.566.573-.6.607-.649.788a.867.867,0,0,0,.046.639c.043.08.841.9,2.373,2.427l.382.383c2.028,2.033,2.034,2.029,2.328,2.027H297c.269,0,.447-.178,3.836-3.567l.444-.445c3.854-3.86,3.857-3.869,3.908-4.023A.907.907,0,0,0,305.184,1401.952Z" transform="translate(-1.561 -2.077)" fill="#fff"/>
      </g>
      <g id="Group_646-3" data-name="Group 646" transform="translate(-267.23 -1373.34)">
        <g id="Group_646-4" data-name="Group 646" transform="translate(284.747 1391.339)">
          <circle id="Ellipse_6-2" data-name="Ellipse 6" cx="12.162" cy="12.162" r="12.162" fill="#9fc"/>
        </g>
        <path id="Path_483-2" data-name="Path 483" d="M305.184,1401.952c-.045-.143-.13-.245-.569-.683-.51-.519-.615-.563-.64-.574a.876.876,0,0,0-.53-.073,1.123,1.123,0,0,0-.22.077c-.12.067-3.045,2.993-3.17,3.117l-2.937,2.937-1.48-1.475a18.5,18.5,0,0,0-1.748-1.676.738.738,0,0,0-.366-.078c-.357,0-.475.109-1.123.763-.566.573-.6.607-.649.788a.867.867,0,0,0,.046.639c.043.08.841.9,2.373,2.427l.382.383c2.028,2.033,2.034,2.029,2.328,2.027H297c.269,0,.447-.178,3.836-3.567l.444-.445c3.854-3.86,3.857-3.869,3.908-4.023A.907.907,0,0,0,305.184,1401.952Z" transform="translate(-1.561 -2.077)" fill="#fff"/>
      </g>
    </g>
    <rect id="Rectangle_17" data-name="Rectangle 17" width="109" height="41" transform="translate(52 8)" fill="#fff"/>
    <text id="capêtti" transform="translate(55 12)" font-size="15" font-family="OpenSans-Regular, Open Sans"><tspan x="0" y="16">capêtti</tspan></text>
    <text id="unknown" transform="translate(55 28)" fill="#999" font-size="15" font-family="OpenSans-Regular, Open Sans"><tspan x="0" y="16">unknown</tspan></text>
    <g id="verified" transform="translate(17 18)">
      <g id="Group_747" data-name="Group 747">
        <ellipse id="Ellipse_6-3" data-name="Ellipse 6" cx="12.5" cy="12.5" rx="12.5" ry="12.5" fill="#9fc"/>
      </g>
      <path id="Path_544" data-name="Path 544" d="M305.578,1401.673a1.54,1.54,0,0,0-.708-.691,1.577,1.577,0,0,0-1.037-.07l-.037.013c-.064.024-.16.063-.247.1a45.952,45.952,0,0,0-3.675,3.562l-2.943,2.924-1.332-1.319c-1.99-1.974-1.99-1.974-2.595-1.982a1.43,1.43,0,0,0-1.015.383,1.364,1.364,0,0,0-.474,1.079,1.428,1.428,0,0,0,.5,1.11l2.084,2.073c1.905,1.884,2,1.96,2.183,2.053a1.355,1.355,0,0,0,.65.132c.057,0,.109.007.159.007.443,0,.727-.282,3.537-3.068l.981-.973c3.864-3.829,3.864-3.829,3.974-4.067A1.519,1.519,0,0,0,305.578,1401.673Z" transform="translate(-286.119 -1393.267)" fill="#fff"/>
    </g>
    <g id="unknown-2" data-name="unknown" transform="translate(17 18)">
      <g id="Group_744" data-name="Group 744">
        <ellipse id="Ellipse_1" data-name="Ellipse 1" cx="12.5" cy="12.5" rx="12.5" ry="12.5" fill="#f66"/>
      </g>
      <g id="Group_745" data-name="Group 745" transform="translate(11.063 5.171)">
        <path id="Path_542" data-name="Path 542" d="M404.464,1407.646a1.794,1.794,0,0,0,1.217,0,1.529,1.529,0,0,0,.7-.653l.1-.19.018-7.946-.118-.267a1.6,1.6,0,0,0-.7-.65,1.809,1.809,0,0,0-.945-.088,1.477,1.477,0,0,0-.967.742l-.1.19-.018,7.946.116.264A1.543,1.543,0,0,0,404.464,1407.646Z" transform="translate(-403.631 -1397.823)" fill="#fff"/>
        <path id="Path_543" data-name="Path 543" d="M406.094,1413.057a1.511,1.511,0,0,0-1.48-.349,1.475,1.475,0,0,0-.953,1.063,1.433,1.433,0,0,0,.389,1.333,1.262,1.262,0,0,0,1.024.407,1.293,1.293,0,0,0,1.021-.4,1.265,1.265,0,0,0,.408-1.026A1.3,1.3,0,0,0,406.094,1413.057Z" transform="translate(-403.626 -1400.824)" fill="#fff"/>
      </g>
    </g>
  </g>
</svg>
