<svg xmlns="http://www.w3.org/2000/svg" xmlns:xlink="http://www.w3.org/1999/xlink" width="269" height="451" viewBox="0 0 269 451">
  <defs>
    <filter id="Rectangle_18" x="0" y="0" width="269" height="451" filterUnits="userSpaceOnUse">
      <feOffset dx="2" dy="2" input="SourceAlpha"/>
      <feGaussianBlur stdDeviation="2" result="blur"/>
      <feFlood flood-opacity="0.161"/>
      <feComposite operator="in" in2="blur"/>
      <feComposite in="SourceGraphic"/>
    </filter>
  </defs>
  <g id="bubble:_discovery" data-name="bubble: discovery" transform="translate(4 4)">
    <g transform="matrix(1, 0, 0, 1, -4, -4)" filter="url(#Rectangle_18)">
      <rect id="Rectangle_18-2" data-name="Rectangle 18" width="257" height="439" rx="22" transform="translate(4 4)" fill="#fff"/>
    </g>
    <line id="Line_12" data-name="Line 12" x2="257" transform="translate(0.5 105.5)" fill="none" stroke="#f3f3f3" stroke-width="1"/>
    <g id="dots" transform="translate(98.567 303.234)">
      <g id="Group_18" data-name="Group 18" transform="translate(10 101.256)">
        <g id="Group_17" data-name="Group 17" transform="translate(0)">
          <path id="Path_36" data-name="Path 36" d="M12.731,101.539a4.735,4.735,0,0,0-2.386,2.011A3.307,3.307,0,0,0,10,105.365a3.437,3.437,0,0,0,1.35,3.031,4.011,4.011,0,0,0,6.227-1.38,4.717,4.717,0,0,0,0-3.271A4.105,4.105,0,0,0,12.731,101.539Z" transform="translate(-10 -101.352)" fill="#999"/>
          <path id="Path_37" data-name="Path 37" d="M104.175,101.568a4.025,4.025,0,0,0-2.731,4.936,3.985,3.985,0,0,0,5.7,2.416,3.8,3.8,0,0,0,2.1-3.511,3.885,3.885,0,0,0-3.571-3.961A5.538,5.538,0,0,0,104.175,101.568Z" transform="translate(-87.596 -101.412)"/>
          <path id="Path_38" data-name="Path 38" d="M196.446,101.353a4.267,4.267,0,0,0-2.746,2.281,4.133,4.133,0,0,0-.3,1.635,3.931,3.931,0,0,0,3.541,3.991,4.284,4.284,0,0,0,3.991-2.176,4.719,4.719,0,0,0,0-3.616A4.154,4.154,0,0,0,196.446,101.353Z" transform="translate(-165.883 -101.256)" fill="#999"/>
        </g>
      </g>
    </g>
    <text id="baby_goat" data-name="baby goat" transform="translate(55 28)" fill="#999" font-size="15" font-family="OpenSans-Regular, Open Sans"><tspan x="0" y="16">baby goat</tspan></text>
    <text id="capretti" transform="translate(55 12)" font-size="15" font-family="OpenSans-Regular, Open Sans"><tspan x="0" y="16">capretti</tspan></text>
    <text id="ca·prét·to" transform="translate(20 70)" font-size="15" font-family="OpenSans-Regular, Open Sans"><tspan x="0" y="16">ca·prét·to</tspan></text>
    <g id="Speaker-solid2" transform="translate(226 73.377)">
      <g id="Speaker-solid2-2" data-name="Speaker-solid2">
        <g id="Group_28" data-name="Group 28">
          <g id="Group_27" data-name="Group 27">
            <g id="Group_26" data-name="Group 26">
              <path id="Path_45" data-name="Path 45" d="M210.324,968.633a1.148,1.148,0,0,0-.863.379l-6.387,4.32h-5.021a1.263,1.263,0,0,0-1.222,1.292v7.768a1.262,1.262,0,0,0,1.222,1.289h5.022l6.389,4.308a1.178,1.178,0,0,0,1.728-.005,1.326,1.326,0,0,0,.356-.9V969.934A1.279,1.279,0,0,0,210.324,968.633Z" transform="translate(-196.831 -968.633)"/>
              <path id="Path_470" data-name="Path 470" d="M217.987,984.5a.477.477,0,0,0,.243-.044,4.606,4.606,0,0,0,2.227-1.84,5.079,5.079,0,0,0,.012-5.62,4.456,4.456,0,0,0-2.189-1.819l-.05-.021a.708.708,0,0,0-.212-.044.736.736,0,0,0-.485.186.6.6,0,0,0-.194.453.449.449,0,0,0,.092.324,1.838,1.838,0,0,0,.462.4c.285.178.557.358.84.562a3.049,3.049,0,0,1,.92,1.125,3.618,3.618,0,0,1,.356,1.674,3.452,3.452,0,0,1-.362,1.638,3.15,3.15,0,0,1-.891,1.094,9.646,9.646,0,0,1-.863.58,2.05,2.05,0,0,0-.469.4.443.443,0,0,0-.085.276.612.612,0,0,0,.179.479A.663.663,0,0,0,217.987,984.5Z" transform="translate(-199.672 -969.931)"/>
            </g>
          </g>
        </g>
      </g>
    </g>
    <text id="look-alike" transform="translate(20 210)" fill="#999" font-size="15" font-family="OpenSans-Regular, Open Sans"><tspan x="0" y="16">look-alike</tspan></text>
    <g id="button:_capretto_word" data-name="button: capretto word" transform="translate(20 242)">
      <rect id="Rectangle_5" data-name="Rectangle 5" width="84" height="25" rx="12.5" fill="#9fc"/>
      <text id="carpaccio" transform="translate(9)" font-size="15" font-family="OpenSans-Regular, Open Sans"><tspan x="0" y="16">carpaccio</tspan></text>
    </g>
    <g id="button:_capretto_word-2" data-name="button: capretto word" transform="translate(20 320)">
      <rect id="Rectangle_5-2" data-name="Rectangle 5" width="73" height="25" rx="12.5" fill="#9fc"/>
      <text id="cannoli" transform="translate(9)" font-size="15" font-family="OpenSans-Regular, Open Sans"><tspan x="0" y="16">cannoli</tspan></text>
    </g>
    <text id="thinly_sliced_raw_meat_or_fish" data-name="thinly sliced raw meat or fish" transform="translate(21 275)" font-size="15" font-family="OpenSans-Regular, Open Sans"><tspan x="0" y="16">thinly sliced raw meat or fish</tspan></text>
    <text id="traditional_Italian_pastry" data-name="traditional Italian pastry" transform="translate(21 353)" font-size="15" font-family="OpenSans-Regular, Open Sans"><tspan x="0" y="16">traditional Italian pastry</tspan></text>
    <text id="similar_meaning" data-name="similar meaning" transform="translate(20 126)" fill="#999" font-size="15" font-family="OpenSans-Regular, Open Sans"><tspan x="0" y="16">similar meaning</tspan></text>
    <g id="button:_capretto_word-3" data-name="button: capretto word" transform="translate(20 158)">
      <rect id="Rectangle_5-3" data-name="Rectangle 5" width="72" height="25" rx="12.5" fill="#9fc"/>
      <text id="cabrito" transform="translate(9)" font-size="15" font-family="OpenSans-Regular, Open Sans"><tspan x="0" y="16">cabrito</tspan></text>
    </g>
    <g id="magnifying_glass" transform="translate(222.879 160.139)">
      <path id="Path_472" data-name="Path 472" d="M101.074,1301.6a3.693,3.693,0,0,1,.446-.271l.128-.031c.132,0,.132,0,2.253,2.1l.114.115c2.019,2.018,2.052,2.051,2.445,2.051h.019a.957.957,0,0,0,1-.906v-.1c0-.406,0-.406-2.074-2.477l-.111-.111c-2.221-2.221-2.221-2.221-2.006-2.482a7.181,7.181,0,0,0,.751-1.257,8.6,8.6,0,0,0-.489-8.505,8.73,8.73,0,0,0-2.547-2.536,8.587,8.587,0,0,0-3.4-1.295,14.258,14.258,0,0,0-1.935-.084,8.761,8.761,0,0,0-4.537,1.726,11.021,11.021,0,0,0-1.68,1.681,8.812,8.812,0,0,0-1.66,3.965,11.243,11.243,0,0,0,0,2.474,8.983,8.983,0,0,0,1.784,4.128,11.6,11.6,0,0,0,1.389,1.386,8.64,8.64,0,0,0,9.17.961A8.978,8.978,0,0,0,101.074,1301.6Zm-4.764.247a7.433,7.433,0,1,1,7.433-7.433A7.432,7.432,0,0,1,96.311,1301.843Z" transform="translate(-87.719 -1285.806)"/>
    </g>
    <g id="magnifying_glass-2" data-name="magnifying_glass" transform="translate(222.879 245.139)">
      <path id="Path_472-2" data-name="Path 472" d="M101.074,1301.6a3.693,3.693,0,0,1,.446-.271l.128-.031c.132,0,.132,0,2.253,2.1l.114.115c2.019,2.018,2.052,2.051,2.445,2.051h.019a.957.957,0,0,0,1-.906v-.1c0-.406,0-.406-2.074-2.477l-.111-.111c-2.221-2.221-2.221-2.221-2.006-2.482a7.181,7.181,0,0,0,.751-1.257,8.6,8.6,0,0,0-.489-8.505,8.73,8.73,0,0,0-2.547-2.536,8.587,8.587,0,0,0-3.4-1.295,14.258,14.258,0,0,0-1.935-.084,8.761,8.761,0,0,0-4.537,1.726,11.021,11.021,0,0,0-1.68,1.681,8.812,8.812,0,0,0-1.66,3.965,11.243,11.243,0,0,0,0,2.474,8.983,8.983,0,0,0,1.784,4.128,11.6,11.6,0,0,0,1.389,1.386,8.64,8.64,0,0,0,9.17.961A8.978,8.978,0,0,0,101.074,1301.6Zm-4.764.247a7.433,7.433,0,1,1,7.433-7.433A7.432,7.432,0,0,1,96.311,1301.843Z" transform="translate(-87.719 -1285.806)"/>
    </g>
    <g id="magnifying_glass-3" data-name="magnifying_glass" transform="translate(222.879 325.139)">
      <path id="Path_472-3" data-name="Path 472" d="M101.074,1301.6a3.693,3.693,0,0,1,.446-.271l.128-.031c.132,0,.132,0,2.253,2.1l.114.115c2.019,2.018,2.052,2.051,2.445,2.051h.019a.957.957,0,0,0,1-.906v-.1c0-.406,0-.406-2.074-2.477l-.111-.111c-2.221-2.221-2.221-2.221-2.006-2.482a7.181,7.181,0,0,0,.751-1.257,8.6,8.6,0,0,0-.489-8.505,8.73,8.73,0,0,0-2.547-2.536,8.587,8.587,0,0,0-3.4-1.295,14.258,14.258,0,0,0-1.935-.084,8.761,8.761,0,0,0-4.537,1.726,11.021,11.021,0,0,0-1.68,1.681,8.812,8.812,0,0,0-1.66,3.965,11.243,11.243,0,0,0,0,2.474,8.983,8.983,0,0,0,1.784,4.128,11.6,11.6,0,0,0,1.389,1.386,8.64,8.64,0,0,0,9.17.961A8.978,8.978,0,0,0,101.074,1301.6Zm-4.764.247a7.433,7.433,0,1,1,7.433-7.433A7.432,7.432,0,0,1,96.311,1301.843Z" transform="translate(-87.719 -1285.806)"/>
    </g>
    <g id="verified" transform="translate(17 18)">
      <g id="Group_747" data-name="Group 747">
        <ellipse id="Ellipse_6" data-name="Ellipse 6" cx="12.5" cy="12.5" rx="12.5" ry="12.5" fill="#9fc"/>
      </g>
      <path id="Path_544" data-name="Path 544" d="M305.578,1401.673a1.54,1.54,0,0,0-.708-.691,1.577,1.577,0,0,0-1.037-.07l-.037.013c-.064.024-.16.063-.247.1a45.952,45.952,0,0,0-3.675,3.562l-2.943,2.924-1.332-1.319c-1.99-1.974-1.99-1.974-2.595-1.982a1.43,1.43,0,0,0-1.015.383,1.364,1.364,0,0,0-.474,1.079,1.428,1.428,0,0,0,.5,1.11l2.084,2.073c1.905,1.884,2,1.96,2.183,2.053a1.355,1.355,0,0,0,.65.132c.057,0,.109.007.159.007.443,0,.727-.282,3.537-3.068l.981-.973c3.864-3.829,3.864-3.829,3.974-4.067A1.519,1.519,0,0,0,305.578,1401.673Z" transform="translate(-286.119 -1393.267)" fill="#fff"/>
    </g>
  </g>
</svg>
