<svg xmlns="http://www.w3.org/2000/svg" xmlns:xlink="http://www.w3.org/1999/xlink" width="269" height="515" viewBox="0 0 269 515">
  <defs>
    <filter id="Rectangle_18" x="0" y="0" width="269" height="515" filterUnits="userSpaceOnUse">
      <feOffset dx="2" dy="2" input="SourceAlpha"/>
      <feGaussianBlur stdDeviation="2" result="blur"/>
      <feFlood flood-opacity="0.161"/>
      <feComposite operator="in" in2="blur"/>
      <feComposite in="SourceGraphic"/>
    </filter>
  </defs>
  <g id="bubble:_discovery" data-name="bubble: discovery" transform="translate(4 4)">
    <g transform="matrix(1, 0, 0, 1, -4, -4)" filter="url(#Rectangle_18)">
      <rect id="Rectangle_18-2" data-name="Rectangle 18" width="257" height="503" rx="22" transform="translate(4 4)" fill="#fff"/>
    </g>
    <g id="dots" transform="translate(98.567 372.234)">
      <g id="Group_18" data-name="Group 18" transform="translate(10 101.256)">
        <g id="Group_17" data-name="Group 17" transform="translate(0)">
          <path id="Path_36" data-name="Path 36" d="M12.731,101.539a4.735,4.735,0,0,0-2.386,2.011A3.307,3.307,0,0,0,10,105.365a3.437,3.437,0,0,0,1.35,3.031,4.011,4.011,0,0,0,6.227-1.38,4.717,4.717,0,0,0,0-3.271A4.105,4.105,0,0,0,12.731,101.539Z" transform="translate(-10 -101.352)" fill="#999"/>
          <path id="Path_37" data-name="Path 37" d="M104.175,101.568a4.025,4.025,0,0,0-2.731,4.936,3.985,3.985,0,0,0,5.7,2.416,3.8,3.8,0,0,0,2.1-3.511,3.885,3.885,0,0,0-3.571-3.961A5.538,5.538,0,0,0,104.175,101.568Z" transform="translate(-87.596 -101.412)"/>
          <path id="Path_38" data-name="Path 38" d="M196.446,101.353a4.267,4.267,0,0,0-2.746,2.281,4.133,4.133,0,0,0-.3,1.635,3.931,3.931,0,0,0,3.541,3.991,4.284,4.284,0,0,0,3.991-2.176,4.719,4.719,0,0,0,0-3.616A4.154,4.154,0,0,0,196.446,101.353Z" transform="translate(-165.883 -101.256)" fill="#999"/>
        </g>
      </g>
    </g>
    <text id="capêtti" transform="translate(55 12)" font-size="15" font-family="OpenSans-Regular, Open Sans"><tspan x="0" y="16">capêtti</tspan></text>
    <g id="unknown" transform="translate(17 18)">
      <g id="Group_744" data-name="Group 744">
        <ellipse id="Ellipse_1" data-name="Ellipse 1" cx="12.5" cy="12.5" rx="12.5" ry="12.5" fill="#f66"/>
      </g>
      <g id="Group_745" data-name="Group 745" transform="translate(11.063 5.171)">
        <path id="Path_542" data-name="Path 542" d="M404.464,1407.646a1.794,1.794,0,0,0,1.217,0,1.529,1.529,0,0,0,.7-.653l.1-.19.018-7.946-.118-.267a1.6,1.6,0,0,0-.7-.65,1.809,1.809,0,0,0-.945-.088,1.477,1.477,0,0,0-.967.742l-.1.19-.018,7.946.116.264A1.543,1.543,0,0,0,404.464,1407.646Z" transform="translate(-403.631 -1397.823)" fill="#fff"/>
        <path id="Path_543" data-name="Path 543" d="M406.094,1413.057a1.511,1.511,0,0,0-1.48-.349,1.475,1.475,0,0,0-.953,1.063,1.433,1.433,0,0,0,.389,1.333,1.262,1.262,0,0,0,1.024.407,1.293,1.293,0,0,0,1.021-.4,1.265,1.265,0,0,0,.408-1.026A1.3,1.3,0,0,0,406.094,1413.057Z" transform="translate(-403.626 -1400.824)" fill="#fff"/>
      </g>
    </g>
    <text id="unknown-2" data-name="unknown" transform="translate(55 28)" fill="#999" font-size="15" font-family="OpenSans-Regular, Open Sans"><tspan x="0" y="16">unknown</tspan></text>
    <text id="unknown-3" data-name="unknown" transform="translate(55 28)" fill="#999" font-size="15" font-family="OpenSans-Regular, Open Sans"><tspan x="0" y="16">unknown</tspan></text>
    <text id="did_you_mean" data-name="did you mean" transform="translate(20 70)" fill="#999" font-size="15" font-family="OpenSans-Regular, Open Sans"><tspan x="0" y="16">did you mean</tspan></text>
    <text id="noun" transform="translate(20 117)" fill="#999" font-size="15" font-family="OpenSans-Regular, Open Sans"><tspan x="0" y="16">noun</tspan></text>
    <g id="button:_capretto_word" data-name="button: capretto word" transform="translate(20 159)">
      <rect id="Rectangle_5" data-name="Rectangle 5" width="84" height="25" rx="12.5" fill="#9fc"/>
      <text id="carpaccio" transform="translate(9)" font-size="15" font-family="OpenSans-Regular, Open Sans"><tspan x="0" y="16">carpaccio</tspan></text>
    </g>
    <g id="button:_capretto_word-2" data-name="button: capretto word" transform="translate(20 237)">
      <rect id="Rectangle_5-2" data-name="Rectangle 5" width="73" height="25" rx="12.5" fill="#9fc"/>
      <text id="cannoli" transform="translate(9)" font-size="15" font-family="OpenSans-Regular, Open Sans"><tspan x="0" y="16">cannoli</tspan></text>
    </g>
    <g id="button:_capretto_word-3" data-name="button: capretto word" transform="translate(20 313)">
      <rect id="Rectangle_5-3" data-name="Rectangle 5" width="73" height="25" rx="12.5" fill="#9fc"/>
      <text id="cannoli-2" data-name="cannoli" transform="translate(9)" font-size="15" font-family="OpenSans-Regular, Open Sans"><tspan x="0" y="16">cannoli</tspan></text>
    </g>
    <g id="button:_capretto_word-4" data-name="button: capretto word" transform="translate(20 393)">
      <rect id="Rectangle_5-4" data-name="Rectangle 5" width="98" height="25" rx="12.5" fill="#9fc"/>
      <text id="cappellacci" transform="translate(9)" font-size="15" font-family="OpenSans-Regular, Open Sans"><tspan x="0" y="16">cappellacci</tspan></text>
    </g>
    <text id="baby_goat" data-name="baby goat" transform="translate(21 192)" font-size="15" font-family="OpenSans-Regular, Open Sans"><tspan x="0" y="16">baby goat</tspan></text>
    <text id="traditional_Italian_pastry" data-name="traditional Italian pastry" transform="translate(21 270)" font-size="15" font-family="OpenSans-Regular, Open Sans"><tspan x="0" y="16">traditional Italian pastry</tspan></text>
    <text id="type_of_stuffed_pasta" data-name="type of stuffed pasta" transform="translate(21 346)" font-size="15" font-family="OpenSans-Regular, Open Sans"><tspan x="0" y="16">type of stuffed pasta</tspan></text>
    <text id="large_cylindrical_pasta_tubes" data-name="large cylindrical pasta tubes" transform="translate(21 426)" font-size="15" font-family="OpenSans-Regular, Open Sans"><tspan x="0" y="16">large cylindrical pasta tubes</tspan></text>
    <line id="Line_17" data-name="Line 17" x2="257" transform="translate(0.5 105.5)" fill="none" stroke="#f3f3f3" stroke-width="1"/>
    <g id="magnifying_glass" transform="translate(220.99 161.36)">
      <path id="Path_472" data-name="Path 472" d="M101.074,1301.6a3.693,3.693,0,0,1,.446-.271l.128-.031c.132,0,.132,0,2.253,2.1l.114.115c2.019,2.018,2.052,2.051,2.445,2.051h.019a.957.957,0,0,0,1-.906v-.1c0-.406,0-.406-2.074-2.477l-.111-.111c-2.221-2.221-2.221-2.221-2.006-2.482a7.181,7.181,0,0,0,.751-1.257,8.6,8.6,0,0,0-.489-8.505,8.73,8.73,0,0,0-2.547-2.536,8.587,8.587,0,0,0-3.4-1.295,14.258,14.258,0,0,0-1.935-.084,8.761,8.761,0,0,0-4.537,1.726,11.021,11.021,0,0,0-1.68,1.681,8.812,8.812,0,0,0-1.66,3.965,11.243,11.243,0,0,0,0,2.474,8.983,8.983,0,0,0,1.784,4.128,11.6,11.6,0,0,0,1.389,1.386,8.64,8.64,0,0,0,9.17.961A8.978,8.978,0,0,0,101.074,1301.6Zm-4.764.247a7.433,7.433,0,1,1,7.433-7.433A7.432,7.432,0,0,1,96.311,1301.843Z" transform="translate(-87.719 -1285.806)"/>
    </g>
    <g id="magnifying_glass-2" data-name="magnifying_glass" transform="translate(220.99 239.36)">
      <path id="Path_472-2" data-name="Path 472" d="M101.074,1301.6a3.693,3.693,0,0,1,.446-.271l.128-.031c.132,0,.132,0,2.253,2.1l.114.115c2.019,2.018,2.052,2.051,2.445,2.051h.019a.957.957,0,0,0,1-.906v-.1c0-.406,0-.406-2.074-2.477l-.111-.111c-2.221-2.221-2.221-2.221-2.006-2.482a7.181,7.181,0,0,0,.751-1.257,8.6,8.6,0,0,0-.489-8.505,8.73,8.73,0,0,0-2.547-2.536,8.587,8.587,0,0,0-3.4-1.295,14.258,14.258,0,0,0-1.935-.084,8.761,8.761,0,0,0-4.537,1.726,11.021,11.021,0,0,0-1.68,1.681,8.812,8.812,0,0,0-1.66,3.965,11.243,11.243,0,0,0,0,2.474,8.983,8.983,0,0,0,1.784,4.128,11.6,11.6,0,0,0,1.389,1.386,8.64,8.64,0,0,0,9.17.961A8.978,8.978,0,0,0,101.074,1301.6Zm-4.764.247a7.433,7.433,0,1,1,7.433-7.433A7.432,7.432,0,0,1,96.311,1301.843Z" transform="translate(-87.719 -1285.806)"/>
    </g>
    <g id="magnifying_glass-3" data-name="magnifying_glass" transform="translate(220.99 314.36)">
      <path id="Path_472-3" data-name="Path 472" d="M101.074,1301.6a3.693,3.693,0,0,1,.446-.271l.128-.031c.132,0,.132,0,2.253,2.1l.114.115c2.019,2.018,2.052,2.051,2.445,2.051h.019a.957.957,0,0,0,1-.906v-.1c0-.406,0-.406-2.074-2.477l-.111-.111c-2.221-2.221-2.221-2.221-2.006-2.482a7.181,7.181,0,0,0,.751-1.257,8.6,8.6,0,0,0-.489-8.505,8.73,8.73,0,0,0-2.547-2.536,8.587,8.587,0,0,0-3.4-1.295,14.258,14.258,0,0,0-1.935-.084,8.761,8.761,0,0,0-4.537,1.726,11.021,11.021,0,0,0-1.68,1.681,8.812,8.812,0,0,0-1.66,3.965,11.243,11.243,0,0,0,0,2.474,8.983,8.983,0,0,0,1.784,4.128,11.6,11.6,0,0,0,1.389,1.386,8.64,8.64,0,0,0,9.17.961A8.978,8.978,0,0,0,101.074,1301.6Zm-4.764.247a7.433,7.433,0,1,1,7.433-7.433A7.432,7.432,0,0,1,96.311,1301.843Z" transform="translate(-87.719 -1285.806)"/>
    </g>
    <g id="magnifying_glass-4" data-name="magnifying_glass" transform="translate(220.99 393.36)">
      <path id="Path_472-4" data-name="Path 472" d="M101.074,1301.6a3.693,3.693,0,0,1,.446-.271l.128-.031c.132,0,.132,0,2.253,2.1l.114.115c2.019,2.018,2.052,2.051,2.445,2.051h.019a.957.957,0,0,0,1-.906v-.1c0-.406,0-.406-2.074-2.477l-.111-.111c-2.221-2.221-2.221-2.221-2.006-2.482a7.181,7.181,0,0,0,.751-1.257,8.6,8.6,0,0,0-.489-8.505,8.73,8.73,0,0,0-2.547-2.536,8.587,8.587,0,0,0-3.4-1.295,14.258,14.258,0,0,0-1.935-.084,8.761,8.761,0,0,0-4.537,1.726,11.021,11.021,0,0,0-1.68,1.681,8.812,8.812,0,0,0-1.66,3.965,11.243,11.243,0,0,0,0,2.474,8.983,8.983,0,0,0,1.784,4.128,11.6,11.6,0,0,0,1.389,1.386,8.64,8.64,0,0,0,9.17.961A8.978,8.978,0,0,0,101.074,1301.6Zm-4.764.247a7.433,7.433,0,1,1,7.433-7.433A7.432,7.432,0,0,1,96.311,1301.843Z" transform="translate(-87.719 -1285.806)"/>
    </g>
    <g id="Group_655" data-name="Group 655" transform="translate(-372.755 -1373.34)">
      <g id="Group_651" data-name="Group 651" transform="translate(389.755 1391.339)">
        <ellipse id="Ellipse_1-2" data-name="Ellipse 1" cx="12.5" cy="12.5" rx="12.5" ry="12.5" fill="#f66"/>
      </g>
      <g id="Group_652" data-name="Group 652" transform="translate(400.816 1396.51)">
        <path id="Path_484" data-name="Path 484" d="M404.464,1407.646a1.794,1.794,0,0,0,1.217,0,1.529,1.529,0,0,0,.7-.653l.1-.19.018-7.946-.118-.267a1.6,1.6,0,0,0-.7-.65,1.809,1.809,0,0,0-.945-.088,1.477,1.477,0,0,0-.967.742l-.1.19-.018,7.946.116.264A1.543,1.543,0,0,0,404.464,1407.646Z" transform="translate(-403.631 -1397.823)" fill="#fff"/>
        <path id="Path_485" data-name="Path 485" d="M406.094,1413.057a1.511,1.511,0,0,0-1.48-.349,1.475,1.475,0,0,0-.953,1.063,1.433,1.433,0,0,0,.389,1.333,1.262,1.262,0,0,0,1.024.407,1.293,1.293,0,0,0,1.021-.4,1.265,1.265,0,0,0,.408-1.026A1.3,1.3,0,0,0,406.094,1413.057Z" transform="translate(-403.626 -1400.824)" fill="#fff"/>
      </g>
    </g>
  </g>
</svg>
