<svg id="button:_native_language" data-name="button: native language" xmlns="http://www.w3.org/2000/svg" width="216" height="102.486" viewBox="0 0 216 102.486">
  <text id="native_language" data-name="native language" transform="translate(0 64.486)" font-size="15" font-family="OpenSans-Regular, Open Sans"><tspan x="52.977" y="16">native language</tspan></text>
  <g id="language" transform="translate(70 -27.7)">
    <g id="Group_87" data-name="Group 87" transform="translate(10 27.7)">
      <path id="Path_119" data-name="Path 119" d="M63.492,27.7H16.824A6.758,6.758,0,0,0,10,34.371V69.053a6.758,6.758,0,0,0,6.824,6.671H46.011a20.8,20.8,0,0,1,3.808.307c1.712.307,3.961.971,4.907,2.4a1.254,1.254,0,0,0,1.048.562,1.074,1.074,0,0,0,.665-.2,1.212,1.212,0,0,0,.383-1.687c-1.15-1.763-3.374-2.939-6.619-3.5a21.011,21.011,0,0,0-4.268-.332H16.8a4.277,4.277,0,0,1-4.319-4.217V34.371A4.277,4.277,0,0,1,16.8,30.154H63.467a4.277,4.277,0,0,1,4.319,4.217V69.053A4.224,4.224,0,0,1,63.9,73.244c-.153,0-.281.026-.434.026h-3.5a1.227,1.227,0,1,0,0,2.454h3.5a6.228,6.228,0,0,0,.69-.026,6.871,6.871,0,0,0,4.37-2.147,6.523,6.523,0,0,0,1.789-4.473V34.371A6.758,6.758,0,0,0,63.492,27.7ZM41.871,38.613H38.446l-9.456,25.1h3.553l2.377-6.875H45.27l2.53,6.875h3.553l-9.482-25.1ZM35.916,54l3.706-10.428a10.354,10.354,0,0,0,.409-1.738h.077a11.857,11.857,0,0,0,.383,1.738L44.247,54Z" transform="translate(-10 -27.7)"/>
    </g>
  </g>
</svg>
