<svg xmlns="http://www.w3.org/2000/svg" xmlns:xlink="http://www.w3.org/1999/xlink" width="128" height="128" viewBox="0 0 128 75">
  <g id="button:_translate" data-name="button: translate" transform="translate(4 4)">
    <g id="Group_131" data-name="Group 131" transform="translate(28.465 9.581)">
      <path id="Path_141" data-name="Path 141" d="M67.441,57.46a5.253,5.253,0,0,1,1.627,3.909,4.8,4.8,0,0,1-1.627,3.81L50.772,81.755a5.8,5.8,0,0,1-3.854,1.484,5.291,5.291,0,0,1-3.854-9.1l7.208-6.9H15.456a4.977,4.977,0,0,1-3.9-1.831A6.188,6.188,0,0,1,10,61.369a6.653,6.653,0,0,1,1.577-4.255,4.81,4.81,0,0,1,3.9-1.954h34.84L43.113,48.6a5.2,5.2,0,0,1-1.627-3.785A5.524,5.524,0,0,1,46.967,39.4a5.373,5.373,0,0,1,3.854,1.608L67.441,57.46Z" transform="translate(-10 -39.4)"/>
    </g>
  </g>
</svg>
