<svg xmlns="http://www.w3.org/2000/svg" xmlns:xlink="http://www.w3.org/1999/xlink" width="111" height="62" viewBox="0 0 111 62">
  <defs>
    <filter id="Rectangle_3" x="0" y="0" width="111" height="62" filterUnits="userSpaceOnUse">
      <feOffset dy="3" input="SourceAlpha"/>
      <feGaussianBlur stdDeviation="3" result="blur"/>
      <feFlood flood-opacity="0.161"/>
      <feComposite operator="in" in2="blur"/>
      <feComposite in="SourceGraphic"/>
    </filter>
  </defs>
  <g id="button:rating" transform="translate(9 6)">
    <g transform="matrix(1, 0, 0, 1, -9, -6)" filter="url(#Rectangle_3)">
      <g id="Rectangle_3-2" data-name="Rectangle 3" transform="translate(9 6)" fill="#9fc" stroke="#fff" stroke-width="1">
        <rect width="93" height="44" rx="20" stroke="none"/>
        <rect x="0.5" y="0.5" width="92" height="43" rx="19.5" fill="none"/>
      </g>
    </g>
    <g id="thumbs_down" transform="translate(54.646 10.467)">
      <g id="Group_47" data-name="Group 47">
        <g id="Group_46" data-name="Group 46">
          <path id="Path_68" data-name="Path 68" d="M14.677,12.983A3.284,3.284,0,0,0,12.258,14a2.231,2.231,0,0,0-.484,1.287,1.781,1.781,0,0,1-.741,1.472c-.5.453-.813.957-.741,1.225.031.093.165.432.3.762.36.854.34,1.05-.144,1.564a5.453,5.453,0,0,0-.484.587,1.7,1.7,0,0,0,.473,1.667,1.3,1.3,0,0,1,.257.371,1.434,1.434,0,0,1-.288.381,3.806,3.806,0,0,0-.494.71,1.137,1.137,0,0,0-.154.813,2.608,2.608,0,0,0,1.482,2.079l.4.2h3.046c2.635,0,3.067.01,3.139.113a.879.879,0,0,1,.051.556,5.115,5.115,0,0,1-.71,1.781,22.265,22.265,0,0,0-.947,2.151,3.272,3.272,0,0,0-.268,1.472,5.007,5.007,0,0,0,.484,2.11,2.727,2.727,0,0,0,1.132,1.132,1.984,1.984,0,0,0,1.472.062l.237-.113.051-.865A12.53,12.53,0,0,1,19.7,32.8a3.884,3.884,0,0,1,1.626-2.48c.978-.731,1.07-.875,2.161-3.448.916-2.182,1.256-2.655,2.192-3.119a2.974,2.974,0,0,1,1.7-.185l.309.072V14.012l-.381-.072a72.638,72.638,0,0,0-7.493-.967A50.1,50.1,0,0,0,14.677,12.983Z" transform="translate(-9.74 -12.912)"/>
          <path id="Path_69" data-name="Path 69" d="M202.393,17.825c-.124.124-.124,10.22,0,10.354a25.142,25.142,0,0,0,4.312,0c.124-.124.124-10.22,0-10.354A23.216,23.216,0,0,0,202.393,17.825Zm2.82,7.719a1.019,1.019,0,0,1-.422,1.77.753.753,0,0,1-.638-.062.831.831,0,0,1-.525-.494.89.89,0,0,1,.216-1.173.7.7,0,0,1,.69-.278A.825.825,0,0,1,205.213,25.544Z" transform="translate(-182.481 -17.23)"/>
        </g>
      </g>
    </g>
    <g id="thumbs_up" transform="translate(16.533 10.467)">
      <g id="Group_49" data-name="Group 49">
        <g id="Group_48" data-name="Group 48">
          <path id="Path_70" data-name="Path 70" d="M80.184,13.476c-.216.134-.226.144-.226.648,0,.278-.031.823-.072,1.214-.216,2.172-.731,3.366-1.781,4.127a4.911,4.911,0,0,0-1.266,1.287c-.134.206-.566,1.163-.967,2.12a21.274,21.274,0,0,1-1,2.13,3.364,3.364,0,0,1-1.287,1.163,1.882,1.882,0,0,1-1.009.185,4.479,4.479,0,0,1-.8-.051l-.175-.051.031,4.8c.021,2.635.051,4.806.082,4.827.051.062,2.758.5,4.127.669a36.522,36.522,0,0,0,6.186.381c3.046,0,3.417-.041,4.189-.422a2.195,2.195,0,0,0,1.307-1.914,1.807,1.807,0,0,1,.751-1.5c.545-.515.792-.957.72-1.266a4.59,4.59,0,0,0-.237-.566,2.078,2.078,0,0,1-.319-1.132,2.369,2.369,0,0,1,.412-.576c.463-.484.525-.607.525-1.04a1.547,1.547,0,0,0-.443-1.06c-.381-.473-.4-.566-.216-.69a2.955,2.955,0,0,0,.751-1.122,1.03,1.03,0,0,0,.01-.813,2.558,2.558,0,0,0-1.431-1.832l-.35-.175H84.671a16.593,16.593,0,0,1-3.16-.093c-.1-.082-.113-.165-.093-.566.031-.443.093-.607.731-1.883a12.332,12.332,0,0,0,1.184-3.077,2.63,2.63,0,0,0-.031-1.05A3.181,3.181,0,0,0,81.728,13.5,2.055,2.055,0,0,0,80.184,13.476Z" transform="translate(-65.26 -13.335)"/>
          <path id="Path_71" data-name="Path 71" d="M10.175,135.665,10,135.84v4.971c0,4.384.01,4.981.113,5.125s.113.154,2.151.154c1.894,0,2.058-.01,2.161-.124s.113-.566.113-5.136c0-4.22-.01-5.033-.093-5.156s-.216-.134-2.1-.154l-2-.021Zm2.367.8a1.051,1.051,0,0,1,.473,1.709,1.018,1.018,0,1,1-1.04-1.678C12.3,136.385,12.254,136.385,12.542,136.467Z" transform="translate(-10 -122.927)"/>
        </g>
      </g>
    </g>
  </g>
</svg>
