<svg id="button:_restart" data-name="button: restart" xmlns="http://www.w3.org/2000/svg" width="20.748" height="20.458" viewBox="0 0 20.748 20.458">
  <path id="Path_471" data-name="Path 471" d="M302.214,973.849a.605.605,0,0,0,.426.7l3,.738a.688.688,0,0,0,.142.026.61.61,0,0,0,.563-.388l1.088-2.916a.6.6,0,0,0-1.127-.433l-.528,1.408a10.239,10.239,0,1,0,1.131,7.415.544.544,0,0,0-1.062-.238,10.283,10.283,0,0,1-.447,1.423,9.143,9.143,0,1,1-3.309-11.014,9.006,9.006,0,0,1,2.959,3.329l-2.132-.525A.6.6,0,0,0,302.214,973.849Z" transform="translate(-286.728 -967.904)"/>
</svg>
