<svg width="21" height="21" viewBox="0 0 21 21" fill="none" xmlns="http://www.w3.org/2000/svg">
<g clip-path="url(#clip0_2029_6137)">
<path d="M15.486 5.945C15.4562 6.09384 15.4835 6.24844 15.5624 6.3781C15.6413 6.50777 15.7661 6.60304 15.912 6.64501L18.912 7.38299C18.9583 7.39661 19.0059 7.40532 19.054 7.40899C19.1759 7.40795 19.2946 7.37048 19.395 7.30132C19.4953 7.23217 19.5726 7.1345 19.617 7.02099L20.705 4.10497C20.7624 3.95552 20.7581 3.7894 20.693 3.64312C20.628 3.49684 20.5074 3.38242 20.358 3.325C20.2085 3.26758 20.0424 3.27189 19.8961 3.33697C19.7499 3.40204 19.6354 3.52254 19.578 3.67199L19.05 5.08001C17.8521 3.01838 15.9722 1.43947 13.7346 0.615652C11.4971 -0.208169 9.04215 -0.225247 6.79335 0.567374C4.54455 1.35999 2.64288 2.91262 1.4164 4.95739C0.189917 7.00216 -0.28447 9.41086 0.0750608 11.768C0.434591 14.1251 1.60552 16.2829 3.38582 17.869C5.16612 19.4552 7.44418 20.3702 9.82701 20.4564C12.2099 20.5426 14.548 19.7944 16.4382 18.341C18.3285 16.8876 19.6522 14.82 20.181 12.495C20.2125 12.3542 20.1869 12.2065 20.1096 12.0846C20.0323 11.9627 19.9098 11.8766 19.769 11.845C19.6282 11.8135 19.4806 11.8391 19.3587 11.9164C19.2368 11.9936 19.1505 12.1162 19.119 12.257C19.0046 12.7415 18.8552 13.2171 18.672 13.68C17.9563 15.4296 16.7158 16.9144 15.1214 17.9299C13.5271 18.9455 11.6571 19.4418 9.76894 19.3507C7.88079 19.2596 6.06728 18.5854 4.57808 17.4211C3.08888 16.2567 1.99721 14.6595 1.4533 12.8491C0.909385 11.0386 0.939991 9.10417 1.54091 7.31188C2.14183 5.51959 3.28353 3.95757 4.80883 2.84093C6.33412 1.72429 8.16801 1.10792 10.0581 1.07659C11.9482 1.04526 13.8015 1.60054 15.363 2.66601C16.6125 3.51042 17.6299 4.65508 18.322 5.99499L16.19 5.47002C16.1126 5.45492 16.0329 5.45517 15.9556 5.47088C15.8783 5.48658 15.8049 5.5174 15.7395 5.56151C15.6741 5.60563 15.6181 5.66222 15.5746 5.72802C15.5311 5.79382 15.501 5.86755 15.486 5.945Z" fill="#999999"/>
</g>
<defs>
<clipPath id="clip0_2029_6137">
<rect width="20.748" height="20.458" fill="white"/>
</clipPath>
</defs>
</svg>
