<svg id="card:_new_translation" data-name="card: new translation" xmlns="http://www.w3.org/2000/svg" width="193" height="75" viewBox="0 0 193 75">
  <g id="Group_198" data-name="Group 198">
    <g id="Rectangle_28" data-name="Rectangle 28" fill="none" stroke="#999" stroke-width="3" stroke-dasharray="7 5">
      <rect width="193" height="75" rx="22" stroke="none"/>
      <rect x="1.5" y="1.5" width="190" height="72" rx="20.5" fill="none"/>
    </g>
  </g>
  <g id="Group_275" data-name="Group 275">
    <g id="Rectangle_28-2" data-name="Rectangle 28" fill="none" stroke="#999" stroke-width="3" stroke-dasharray="7 5">
      <rect width="193" height="75" rx="22" stroke="none"/>
      <rect x="1.5" y="1.5" width="190" height="72" rx="20.5" fill="none"/>
    </g>
  </g>
  <path id="Path_584" data-name="Path 584" d="M786.793,1091.415c-1.616-1.616-2.168-1.7-11.2-1.7h-7.962v-8a73.487,73.487,0,0,0-.276-9.028,5.678,5.678,0,0,0-5.2-3.823,5.582,5.582,0,0,0-5.2,3.823,82.553,82.553,0,0,0-.276,8.988v8.042H748.4c-9.3,0-9.58.04-11.2,1.892a5.3,5.3,0,0,0,.316,7.372c1.616,1.616,2.168,1.7,11.2,1.7h7.962v8a73.393,73.393,0,0,0,.276,9.026,5.674,5.674,0,0,0,5.2,3.825,5.582,5.582,0,0,0,5.2-3.825,83.226,83.226,0,0,0,.276-8.986v-8.041h8.278c9.3,0,9.578-.04,11.2-1.894A5.3,5.3,0,0,0,786.793,1091.415Z" transform="translate(-665.656 -1057.802)" fill="#999"/>
</svg>
