<svg xmlns="http://www.w3.org/2000/svg" xmlns:xlink="http://www.w3.org/1999/xlink" width="312" height="227" viewBox="0 0 312 227">
  <defs>
    <filter id="Rectangle_28" x="0" y="0" width="312" height="227" filterUnits="userSpaceOnUse">
      <feOffset dx="2" dy="2" input="SourceAlpha"/>
      <feGaussianBlur stdDeviation="2" result="blur"/>
      <feFlood flood-opacity="0.161"/>
      <feComposite operator="in" in2="blur"/>
      <feComposite in="SourceGraphic"/>
    </filter>
  </defs>
  <g id="card_v2.0" data-name="card v2.0" transform="translate(4 4)">
    <g transform="matrix(1, 0, 0, 1, -4, -4)" filter="url(#Rectangle_28)">
      <rect id="Rectangle_28-2" data-name="Rectangle 28" width="300" height="215" rx="22" transform="translate(4 4)" fill="#fff"/>
    </g>
    <g id="button:_capretto_word" data-name="button: capretto word" transform="translate(21 119)">
      <rect id="Rectangle_5" data-name="Rectangle 5" width="87" height="25" rx="12.5" fill="#f3f3f3"/>
      <text id="breakfast" transform="translate(9)" font-size="15" font-family="OpenSans-Regular, Open Sans"><tspan x="0" y="16">breakfast</tspan></text>
    </g>
    <g id="button:_capretto_word-2" data-name="button: capretto word" transform="translate(125 119)">
      <rect id="Rectangle_5-2" data-name="Rectangle 5" width="55" height="25" rx="12.5" fill="#f3f3f3"/>
      <text id="meat" transform="translate(9)" font-size="15" font-family="OpenSans-Regular, Open Sans"><tspan x="0" y="16">meat</tspan></text>
    </g>
    <text id="capretti_alla_forestiera" data-name="capretti alla forestiera" transform="translate(21 14)" font-size="15" font-family="OpenSans-Regular, Open Sans"><tspan x="0" y="16">capretti alla forestiera</tspan></text>
    <text id="kid_with_forest_mushroom_gravy" data-name="kid with forest mushroom gravy" transform="translate(21 72)" font-size="15" font-family="OpenSans-Regular, Open Sans"><tspan x="0" y="16">kid with forest mushroom gravy</tspan></text>
    <path id="Path_197" data-name="Path 197" d="M0,0H300" transform="translate(0 55.5)" fill="none" stroke="#f3f3f3" stroke-width="1"/>
    <g id="card_buttons" data-name="card buttons" transform="translate(20.989 166.307)">
      <g id="trash_copy_2" data-name="trash copy 2" transform="translate(40.589)">
        <path id="Path_473" data-name="Path 473" d="M143.667,1085.216h9.257a1.3,1.3,0,0,0,1.3-1.289v-11.459l.046-.016a1.29,1.29,0,0,0,.877-1.219v-.9a1.3,1.3,0,0,0-1.3-1.3h-3.31v-.52a1.3,1.3,0,0,0-1.3-1.293h-1.88a1.3,1.3,0,0,0-1.3,1.284v.527h-3.307a1.3,1.3,0,0,0-1.3,1.29v.9a1.288,1.288,0,0,0,.876,1.219l.046.016v11.46A1.3,1.3,0,0,0,143.667,1085.216Zm9.775-1.292a.521.521,0,0,1-.521.52h-9.253a.521.521,0,0,1-.519-.511v-11.4h1.946v9.577a.461.461,0,1,0,.922,0v-9.577h1.819v9.577a.461.461,0,1,0,.921,0v-9.577h1.819v9.577a.463.463,0,0,0,.461.461h0a.458.458,0,0,0,.456-.452v-9.587h1.944Zm-6.6-15.409a.521.521,0,0,1,.521-.521h1.864a.522.522,0,0,1,.519.512v.529h-2.9Zm-4.616,2.729v-.912a.521.521,0,0,1,.521-.52h11.1a.52.52,0,0,1,.519.512v.911a.521.521,0,0,1-.521.521H142.749A.521.521,0,0,1,142.229,1071.244Z" transform="translate(-141.441 -1067.222)"/>
      </g>
      <g id="notification" transform="translate(79.829 0.693)">
        <path id="Subtraction_1" data-name="Subtraction 1" d="M203.363,1085.711a2.536,2.536,0,0,1-2.483-2.073l-.025-.141h-4.68a1.188,1.188,0,0,1-1.179-1.185V1082a2.161,2.161,0,0,1,.464-1.411,2.23,2.23,0,0,1,1.287-.789c.208-.086.693-.332.693-.745v-5.343a4.793,4.793,0,0,1,4.018-4.673l.1-.017.031-.1a1.827,1.827,0,0,1,.446-.747,1.782,1.782,0,0,1,1.283-.543h.119a1.788,1.788,0,0,1,1.272.54,1.937,1.937,0,0,1,.447.748l.032.1.1.018a4.791,4.791,0,0,1,4.019,4.676v5.36a.85.85,0,0,0,.728.806,2.21,2.21,0,0,1,1.726,2.123v.313a1.182,1.182,0,0,1-1.173,1.184h-4.7l-.025.14a2.545,2.545,0,0,1-2.031,2.035A2.518,2.518,0,0,1,203.363,1085.711Zm-1.515-2.206.091.232a1.519,1.519,0,0,0,2.835,0l.089-.232h-3.014Zm.179-13.515c-.028,0-.071,0-.123.008a3.76,3.76,0,0,0-3.464,3.708v5.341a1.83,1.83,0,0,1-1.3,1.715,2.178,2.178,0,0,0-.788.365,1.079,1.079,0,0,0-.354.881v.483h14.752l.014-.48a1.123,1.123,0,0,0-.4-.887,2.158,2.158,0,0,0-.739-.362,1.787,1.787,0,0,1-1.31-1.712V1073.7a3.758,3.758,0,0,0-3.467-3.705s-.085-.008-.126-.008h-.493l.011-.515a.836.836,0,0,0-.241-.6.927.927,0,0,0-.609-.242h-.012a.914.914,0,0,0-.619.243.817.817,0,0,0-.242.6l.01.514Z" transform="translate(-194.994 -1067.625)"/>
      </g>
      <g id="duplicate_card" data-name="duplicate card" transform="translate(0 0.693)">
        <g id="duplicate_card-2" data-name="duplicate card-2" transform="translate(-85.639 -1069.04)">
          <path id="Path_442-2" data-name="Path 442-2" d="M87.2,1069.088a2.206,2.206,0,0,0-1.327,1.047c-.25.492-.243-.017-.234,8.042l.008,7.3.092.233a2.073,2.073,0,0,0,1.385,1.3,27.545,27.545,0,0,0,4.155.075c4.229,0,4.055.008,4.155-.208a.392.392,0,0,0-.067-.451l-.108-.125-3.937-.016-3.929-.026-.2-.092a1.509,1.509,0,0,1-.642-.65l-.084-.184-.007-6.091-.008-6.09h16.434v2.9c0,3.228-.007,3.091.259,3.191a.4.4,0,0,0,.476-.125c.075-.1.075-.151.075-4.221,0-3.9,0-4.137-.075-4.38a2.1,2.1,0,0,0-1.3-1.386l-.233-.092H94.761C88.521,1069.038,87.4,1069.046,87.2,1069.088Zm14.916.85a1.516,1.516,0,0,1,.65.643c.084.183.091.258.1.959l.017.759H86.444l.017-.743c.007-.7.016-.751.108-.951a1.251,1.251,0,0,1,.843-.718c.141-.042,1.743-.049,7.35-.042l7.174.008Z" transform="translate(0 0)"/>
          <path id="Path_573" data-name="Path 573" d="M107.166,1086.73c-.22-.219-.294-.23-1.521-.23h-1.081v-1.087a10.1,10.1,0,0,0-.037-1.226.772.772,0,0,0-.707-.52.758.758,0,0,0-.707.52,11.191,11.191,0,0,0-.037,1.22v1.093H101.95c-1.264,0-1.3.005-1.521.257a.72.72,0,0,0,.043,1c.22.22.294.23,1.521.23h1.082v1.087a9.955,9.955,0,0,0,.037,1.227.77.77,0,0,0,.707.519.759.759,0,0,0,.707-.519,11.449,11.449,0,0,0,.037-1.221v-1.093h1.125c1.264,0,1.3-.005,1.521-.257A.721.721,0,0,0,107.166,1086.73Z" transform="translate(-3.69 -3.695)"/>
        </g>
      </g>
    </g>
    <g id="Group_665" data-name="Group 665" transform="translate(-31.748 -1224.339)">
      <g id="Group_665-2" data-name="Group 665" transform="translate(284.747 1391.339)">
        <ellipse id="Ellipse_6" data-name="Ellipse 6" cx="12.5" cy="12.5" rx="12.5" ry="12.5" fill="#9fc"/>
      </g>
      <path id="Path_500" data-name="Path 500" d="M305.559,1401.99c-.046-.147-.134-.252-.585-.7-.524-.533-.632-.579-.658-.589a.9.9,0,0,0-.545-.076,1.154,1.154,0,0,0-.226.079c-.124.069-3.13,3.076-3.258,3.2l-3.018,3.018-1.521-1.516a19.121,19.121,0,0,0-1.8-1.722.757.757,0,0,0-.376-.081c-.367,0-.488.112-1.155.784-.582.589-.616.624-.667.809a.892.892,0,0,0,.047.657c.044.082.864.92,2.439,2.494l.392.393c2.084,2.09,2.091,2.086,2.393,2.084h.12c.277,0,.459-.183,3.943-3.667l.457-.457c3.961-3.967,3.964-3.977,4.017-4.135A.933.933,0,0,0,305.559,1401.99Z" transform="translate(-1.411 -1.877)" fill="#fff"/>
    </g>
  </g>
</svg>
