<svg id="duplicate_card" data-name="duplicate card" xmlns="http://www.w3.org/2000/svg" width="18.062" height="18.087" viewBox="0 0 18.062 18.087">
  <g id="duplicate_card-2" data-name="duplicate card-2" transform="translate(-85.639 -1069.04)">
    <path id="Path_442-2" data-name="Path 442-2" d="M87.2,1069.088a2.206,2.206,0,0,0-1.327,1.047c-.25.492-.243-.017-.234,8.042l.008,7.3.092.233a2.073,2.073,0,0,0,1.385,1.3,27.545,27.545,0,0,0,4.155.075c4.229,0,4.055.008,4.155-.208a.392.392,0,0,0-.067-.451l-.108-.125-3.937-.016-3.929-.026-.2-.092a1.509,1.509,0,0,1-.642-.65l-.084-.184-.007-6.091-.008-6.09h16.434v2.9c0,3.228-.007,3.091.259,3.191a.4.4,0,0,0,.476-.125c.075-.1.075-.151.075-4.221,0-3.9,0-4.137-.075-4.38a2.1,2.1,0,0,0-1.3-1.386l-.233-.092H94.761C88.521,1069.038,87.4,1069.046,87.2,1069.088Zm14.916.85a1.516,1.516,0,0,1,.65.643c.084.183.091.258.1.959l.017.759H86.444l.017-.743c.007-.7.016-.751.108-.951a1.251,1.251,0,0,1,.843-.718c.141-.042,1.743-.049,7.35-.042l7.174.008Z" transform="translate(0 0)"/>
    <path id="Path_573" data-name="Path 573" d="M107.166,1086.73c-.22-.219-.294-.23-1.521-.23h-1.081v-1.087a10.1,10.1,0,0,0-.037-1.226.772.772,0,0,0-.707-.52.758.758,0,0,0-.707.52,11.191,11.191,0,0,0-.037,1.22v1.093H101.95c-1.264,0-1.3.005-1.521.257a.72.72,0,0,0,.043,1c.22.22.294.23,1.521.23h1.082v1.087a9.955,9.955,0,0,0,.037,1.227.77.77,0,0,0,.707.519.759.759,0,0,0,.707-.519,11.449,11.449,0,0,0,.037-1.221v-1.093h1.125c1.264,0,1.3-.005,1.521-.257A.721.721,0,0,0,107.166,1086.73Z" transform="translate(-3.69 -3.695)"/>
  </g>
</svg>
