<svg xmlns="http://www.w3.org/2000/svg" width="14.521" height="14.521" viewBox="0 0 14.521 14.521">
  <g id="checkbox" transform="translate(-10 -10)">
    <g id="Group_142" data-name="Group 142" transform="translate(10 10)">
      <g id="Group_141" data-name="Group 141" transform="translate(0 0)">
        <path id="Path_148" data-name="Path 148" d="M10.271,10.068a.408.408,0,0,0-.2.2L10,10.406V24.115l.068.135a.408.408,0,0,0,.2.2l.135.068H24.115l.135-.068a.408.408,0,0,0,.2-.2l.068-.135V10.406l-.068-.135a.408.408,0,0,0-.2-.2L24.115,10H10.406Zm11.31,3.753a11.884,11.884,0,0,1,1.1,1.157c0,.08-6.738,6.824-6.824,6.824s-4.006-3.926-4.006-4.006a12.17,12.17,0,0,1,1.083-1.138,7.217,7.217,0,0,1,1.157-1.083c.055,0,.258.185.911.837l.843.843L18.1,14.984c1.464-1.458,2.283-2.258,2.32-2.258A11.779,11.779,0,0,1,21.58,13.821Z" transform="translate(-10 -10)"/>
      </g>
    </g>
  </g>
</svg>
