<svg id="chef_at_on" data-name="chef at on" xmlns="http://www.w3.org/2000/svg" width="46.326" height="43.265" viewBox="0 0 46.326 43.265">
  <g id="Group_754" data-name="Group 754" transform="translate(-10.05 -17.916)">
    <g id="Group_755" data-name="Group 755" transform="translate(10.05 17.916)">
      <g id="Group_754-2" data-name="Group 754" transform="translate(0 0)">
        <path id="Path_568" data-name="Path 568" d="M31.861,18.03a11.057,11.057,0,0,0-4.4,1.768,11.91,11.91,0,0,0-3.673,4.242l-.275.55-.668-.118a12.819,12.819,0,0,0-4.478.2A11.568,11.568,0,0,0,10.2,33.9a15.346,15.346,0,0,0,0,4.242,11.46,11.46,0,0,0,7.66,9.054l.609.2.059.786c.02.432.177,2.553.334,4.733a41.331,41.331,0,0,0,.412,4.458,5.45,5.45,0,0,0,2.553,3.2c1.218.628.707.609,11.725.609,6.776,0,10.076-.02,10.449-.1a5.394,5.394,0,0,0,4.026-3.908A50.712,50.712,0,0,0,48.5,51.36c.157-2.278.295-4.164.334-4.183a5.15,5.15,0,0,1,.766-.354,11.6,11.6,0,0,0,6.658-8.8,15.181,15.181,0,0,0-.177-4.91,11.629,11.629,0,0,0-5.715-7.522,9.614,9.614,0,0,0-5.008-1.218,13.146,13.146,0,0,0-1.591.079l-.373.079-.334-.648a11.259,11.259,0,0,0-5.912-5.323A11.265,11.265,0,0,0,31.861,18.03Zm4.026,1.905a9.668,9.668,0,0,1,6.246,5.872c.137.354.275.628.334.628.039,0,.452-.1.9-.216a10.51,10.51,0,0,1,4.144,0,9.566,9.566,0,0,1,2.75,1.218,10.372,10.372,0,0,1,1.63,15.712,9.143,9.143,0,0,1-3.83,2.4l-.864.275L47,48.866c-.118,1.669-.275,4.144-.373,5.48l-.177,2.435-.334.668a3.756,3.756,0,0,1-1.669,1.689l-.432.216H23.258l-.412-.2A4.184,4.184,0,0,1,21.392,57.9c-.55-.805-.589-1.061-.962-6.5-.177-2.769-.354-5.126-.373-5.244a.3.3,0,0,0-.295-.255A9.965,9.965,0,0,1,15.7,44.191a10.713,10.713,0,0,1-3.044-3.751,11.665,11.665,0,0,1-.982-4.5,10.156,10.156,0,0,1,6.03-9.31,7.471,7.471,0,0,1,3.378-.609,6.382,6.382,0,0,1,2.18.255c.491.137.982.255,1.1.295.157.039.216-.059.393-.55a9.7,9.7,0,0,1,5.971-6.01,7.835,7.835,0,0,1,3-.373A6.614,6.614,0,0,1,35.887,19.936Z" transform="translate(-10.05 -17.916)"/>
        <path id="Path_569" data-name="Path 569" d="M90.767,113.8a5.082,5.082,0,0,0-.668.216c-.02.02,2.435,9.211,2.494,9.29a6.2,6.2,0,0,0,1.591-.471c0-.059-.55-2.16-1.237-4.674-.982-3.653-1.277-4.576-1.375-4.557S91.121,113.7,90.767,113.8Z" transform="translate(-74.377 -94.806)"/>
        <path id="Path_570" data-name="Path 570" d="M148.694,113.814c-.039.157-.609,2.2-1.237,4.517s-1.159,4.282-1.178,4.36c-.039.118.137.2.727.354a3.4,3.4,0,0,0,.845.157c.059-.059,2.573-9.27,2.534-9.29-.02-.02-1.473-.412-1.532-.412A.873.873,0,0,0,148.694,113.814Z" transform="translate(-119.519 -94.727)"/>
      </g>
    </g>
  </g>
</svg>
