<svg id="copy" xmlns="http://www.w3.org/2000/svg" width="18.012" height="20.954" viewBox="0 0 18.012 20.954">
  <g id="Group_749" data-name="Group 749" transform="translate(-284.651 -1069.874)">
    <path id="Path_555" data-name="Path 555" d="M303.1,1085.254v-13.728a1.653,1.653,0,0,0-1.652-1.652h-10.79a1.653,1.653,0,0,0-1.652,1.652v13.728a1.653,1.653,0,0,0,1.652,1.651h10.79A1.653,1.653,0,0,0,303.1,1085.254Zm-12.777.325V1071.22h.021v-.009h11.1v.009h.358v14.358Z" transform="translate(-0.44)"/>
    <path id="Path_556" data-name="Path 556" d="M297.755,1090.076H285.988v-13.731a.668.668,0,1,0-1.337,0v13.417a1.654,1.654,0,0,0,1.652,1.652h11.453a.669.669,0,1,0,0-1.338Z" transform="translate(0 -0.586)"/>
  </g>
</svg>
