<svg width="19" height="21" viewBox="0 0 19 21" fill="none" xmlns="http://www.w3.org/2000/svg">
<g clip-path="url(#clip0_2029_6183)">
<path d="M18.009 15.38V1.65198C18.0087 1.21392 17.8346 0.793884 17.5248 0.484131C17.2151 0.174378 16.7951 0.000264927 16.357 0H5.56699C5.12893 0.000264927 4.70889 0.174378 4.39914 0.484131C4.08939 0.793884 3.91527 1.21392 3.91501 1.65198V15.38C3.91554 15.8179 4.08978 16.2376 4.39951 16.5471C4.70923 16.8567 5.1291 17.0307 5.56699 17.031H16.357C16.7949 17.0307 17.2148 16.8567 17.5245 16.5471C17.8342 16.2376 18.0085 15.8179 18.009 15.38ZM5.23199 15.705V1.34595H5.25299V1.33704H16.353V1.34595H16.711V15.704L5.23199 15.705Z" fill="#999999"/>
<path d="M13.104 19.616H1.33701V5.88489C1.33701 5.70759 1.26657 5.5376 1.1412 5.41223C1.01584 5.28686 0.845785 5.21643 0.668488 5.21643C0.49119 5.21643 0.321169 5.28686 0.195801 5.41223C0.0704327 5.5376 0 5.70759 0 5.88489V19.3019C0.000529276 19.7399 0.174741 20.1598 0.484436 20.4695C0.794131 20.7792 1.21403 20.9533 1.65201 20.9539H13.105C13.2824 20.9539 13.4526 20.8834 13.5781 20.7579C13.7035 20.6325 13.774 20.4623 13.774 20.2849C13.774 20.1075 13.7035 19.9374 13.5781 19.8119C13.4526 19.6864 13.2824 19.616 13.105 19.616H13.104Z" fill="#999999"/>
</g>
<defs>
<clipPath id="clip0_2029_6183">
<rect width="18.012" height="20.954" fill="white"/>
</clipPath>
</defs>
</svg>
