<svg id="dots" xmlns="http://www.w3.org/2000/svg" width="4.004" height="17.643" viewBox="0 0 4.004 17.643">
  <g id="dots-2" data-name="dots" transform="translate(-101.256 27.643) rotate(-90)">
    <g id="Group_227" data-name="Group 227" transform="translate(10 101.256)">
      <g id="Group_226" data-name="Group 226" transform="translate(0 0)">
        <path id="Path_207" data-name="Path 207" d="M11.361,101.454a2.359,2.359,0,0,0-1.189,1,1.648,1.648,0,0,0-.172.9,1.712,1.712,0,0,0,.673,1.51,2,2,0,0,0,3.1-.688,2.35,2.35,0,0,0,0-1.63A2.046,2.046,0,0,0,11.361,101.454Z" transform="translate(-10 -101.361)"/>
        <path id="Path_208" data-name="Path 208" d="M102.729,101.5a2.005,2.005,0,0,0-1.361,2.46,1.985,1.985,0,0,0,2.841,1.2,1.894,1.894,0,0,0,1.047-1.749,1.936,1.936,0,0,0-1.779-1.974A2.759,2.759,0,0,0,102.729,101.5Z" transform="translate(-94.469 -101.426)"/>
        <path id="Path_209" data-name="Path 209" d="M194.918,101.3a2.126,2.126,0,0,0-1.368,1.136,2.059,2.059,0,0,0-.15.815,1.959,1.959,0,0,0,1.764,1.989,2.134,2.134,0,0,0,1.989-1.084,2.351,2.351,0,0,0,0-1.8A2.07,2.07,0,0,0,194.918,101.3Z" transform="translate(-179.689 -101.256)"/>
      </g>
    </g>
  </g>
</svg>
