<svg id="eye" xmlns="http://www.w3.org/2000/svg" width="24.589" height="15.35" viewBox="0 0 24.589 15.35">
  <g id="Group_463" data-name="Group 463" transform="translate(0 0)">
    <g id="Group_462" data-name="Group 462">
      <path id="Path_329" data-name="Path 329" d="M21.142,69.627c-4.18-.438-7.984-2.856-10.767-6.848-.5-.73-.5-.865,0-1.584a17.9,17.9,0,0,1,4.617-4.6,12.72,12.72,0,0,1,11.34-1.616,16.18,16.18,0,0,1,7.88,6.222c.511.74.511.865-.052,1.668a16.57,16.57,0,0,1-6.17,5.451,12.807,12.807,0,0,1-3.961,1.251A20.515,20.515,0,0,1,21.142,69.627Zm2.272-3.169a4.4,4.4,0,0,0,2.158-1.251,4.592,4.592,0,0,0,1.24-2.2,6.172,6.172,0,0,0,0-2.053,4.538,4.538,0,0,0-1.261-2.22,4.448,4.448,0,0,0-2.22-1.261,6.172,6.172,0,0,0-2.053,0,4.737,4.737,0,0,0-3.471,3.471,6.172,6.172,0,0,0,0,2.053,4.7,4.7,0,0,0,3.7,3.523A5.348,5.348,0,0,0,23.414,66.459Z" transform="translate(-10 -54.307)" fill="#999"/>
    </g>
  </g>
</svg>
