<svg id="eye_cross" xmlns="http://www.w3.org/2000/svg" width="23.589" height="14.768" viewBox="0 0 23.589 14.768">
  <g id="Group_465" data-name="Group 465" transform="translate(0)">
    <g id="Group_464" data-name="Group 464">
      <path id="Path_330" data-name="Path 330" d="M20.664,68.85a14.525,14.525,0,0,1-10.318-6.562c-.489-.709-.489-.829.05-1.6a17.047,17.047,0,0,1,3.2-3.446,2.6,2.6,0,0,0,.35-.32c0-.01-.519-.37-1.149-.779a14.218,14.218,0,0,1-1.219-.849c-.13-.19-.08-.4.18-.769s.439-.479.649-.38c.06.03,3.006,1.958,6.552,4.275s7.891,5.174,9.669,6.343,3.266,2.167,3.326,2.227c.17.19.13.4-.14.8-.24.36-.4.459-.6.4a13.7,13.7,0,0,1-1.249-.779l-1.149-.759-.6.37a12.739,12.739,0,0,1-4.844,1.768A17.534,17.534,0,0,1,20.664,68.85Zm2.187-3.036a5,5,0,0,0,1.658-.839c.33-.27.709-.659.659-.7S17.887,59.5,17.877,59.5a4.945,4.945,0,0,0-.41,1,5.482,5.482,0,0,0-.02,2.018,4.5,4.5,0,0,0,3.546,3.376A5.529,5.529,0,0,0,22.852,65.814Z" transform="translate(-9.985 -54.111)" fill="#999"/>
      <path id="Path_331" data-name="Path 331" d="M90.421,105.286c-1.348-.889-2.467-1.618-2.467-1.628s-.04-.2-.06-.42a4.489,4.489,0,0,0-3.3-3.766,5.447,5.447,0,0,0-2.128,0c-.21.06-.429.12-.489.15-.1.04-.28-.06-1.738-1.019-.9-.589-1.648-1.079-1.668-1.1a8.309,8.309,0,0,1,2.068-.749,12.276,12.276,0,0,1,9.878,1.838,17.474,17.474,0,0,1,4.425,4.4c.489.7.489.829-.02,1.558a16.3,16.3,0,0,1-1.978,2.337C92.9,106.9,91.77,106.175,90.421,105.286Z" transform="translate(-71.722 -96.35)" fill="#999"/>
    </g>
  </g>
</svg>
