<svg id="facebook_logo" data-name="facebook logo" xmlns="http://www.w3.org/2000/svg" width="61" height="61" viewBox="0 0 61 61">
  <g id="Ellipse_28" data-name="Ellipse 28" fill="none" stroke="#000" stroke-width="2">
    <circle cx="30.5" cy="30.5" r="30.5" stroke="none"/>
    <circle cx="30.5" cy="30.5" r="29.5" fill="none"/>
  </g>
  <path id="Path_328" data-name="Path 328" d="M110.767,75.808c-2.5.188-4.249,1.183-5,2.824-.511,1.1-.645,1.829-.645,4.169v2.1H102v4.841h3.12v14.039l3.066-.027,3.066-.027.027-6.992.027-6.966h2.044a8.323,8.323,0,0,0,2.044-.108c0-.054.108-1.049.242-2.205s.242-2.205.242-2.34c0-.188-.188-.215-2.286-.215h-2.286V83.176c0-1.533.027-1.748.242-2.044.35-.457.941-.592,2.77-.592H115.9V75.7l-2.313.027C112.3,75.754,111.036,75.781,110.767,75.808Z" transform="translate(-79.162 -60.853)"/>
</svg>
