<svg width="22" height="22" viewBox="0 0 22 22" fill="none" xmlns="http://www.w3.org/2000/svg">
<g clip-path="url(#clip0_2078_5618)">
<path d="M0.445007 21.902C0.327067 21.9017 0.214042 21.8548 0.130646 21.7714C0.0472493 21.688 0.000264145 21.5748 0 21.4569V2.521C0.00977195 1.85673 0.277597 1.22227 0.746796 0.751953C1.21599 0.281635 1.84977 0.012332 2.51401 0.000976562H19.386C20.0497 0.0117906 20.6831 0.280181 21.1524 0.749512C21.6217 1.21884 21.8902 1.85235 21.901 2.51599V15.1499C21.9016 15.4829 21.8364 15.8129 21.709 16.1206C21.5817 16.4283 21.3948 16.7078 21.159 16.943C20.9296 17.1839 20.654 17.3763 20.3488 17.5085C20.0435 17.6408 19.7147 17.7104 19.382 17.713H4.82401L0.76001 21.772C0.71862 21.8133 0.669498 21.846 0.615448 21.8683C0.561398 21.8906 0.503479 21.9021 0.445007 21.902ZM2.51901 0.890015C2.08878 0.898763 1.67869 1.07397 1.37506 1.37891C1.07143 1.68384 0.897893 2.09463 0.890991 2.5249V20.386L4.32501 16.9559C4.3664 16.9146 4.41552 16.8819 4.46957 16.8596C4.52362 16.8373 4.58154 16.8258 4.64001 16.8259H19.393C19.6043 16.826 19.8133 16.7821 20.0067 16.6969C20.2 16.6117 20.3735 16.487 20.516 16.3309C20.6722 16.1772 20.7965 15.9941 20.8814 15.7921C20.9664 15.5901 21.0105 15.3731 21.011 15.1539V2.52393C21.0031 2.09377 20.8285 1.68355 20.5241 1.37952C20.2197 1.07548 19.8092 0.901359 19.379 0.893921L2.51901 0.890015Z" fill="#999999"/>
<path d="M10.9442 10.6829C11.2027 10.7761 11.4857 10.7761 11.7442 10.6829C11.9393 10.5929 12.1003 10.4426 12.2032 10.254L12.2682 10.129L12.2792 4.90094L12.2012 4.72491C12.095 4.53897 11.9345 4.38996 11.7412 4.29791C11.5431 4.22343 11.3287 4.20341 11.1202 4.23993C10.9856 4.27143 10.8593 4.33132 10.7496 4.41547C10.64 4.49961 10.5495 4.60612 10.4842 4.72797L10.4192 4.85394L10.4072 10.081L10.4842 10.2549C10.5884 10.4427 10.7494 10.5926 10.9442 10.6829Z" fill="#999999"/>
<path d="M12.02 12.2677C11.8921 12.1473 11.7347 12.0629 11.5637 12.0227C11.3927 11.9825 11.2142 11.9879 11.046 12.0387C10.8907 12.0926 10.7516 12.1851 10.6419 12.3076C10.5323 12.43 10.4555 12.5785 10.419 12.7387C10.3839 12.8945 10.389 13.0566 10.4338 13.2098C10.4786 13.363 10.5616 13.5024 10.675 13.6147C10.7596 13.7077 10.8643 13.7801 10.981 13.8267C11.0978 13.8733 11.2236 13.8928 11.349 13.8836C11.4735 13.8912 11.5982 13.8714 11.7141 13.8254C11.8301 13.7794 11.9345 13.7085 12.02 13.6176C12.113 13.5329 12.1856 13.4281 12.2322 13.3111C12.2788 13.1942 12.2982 13.0683 12.289 12.9427C12.2966 12.8173 12.2764 12.6918 12.2299 12.5752C12.1834 12.4585 12.1117 12.3535 12.02 12.2677Z" fill="#999999"/>
</g>
<defs>
<clipPath id="clip0_2078_5618">
<rect width="21.901" height="21.901" fill="white"/>
</clipPath>
</defs>
</svg>
