<svg id="feedback" xmlns="http://www.w3.org/2000/svg" width="21.901" height="21.901" viewBox="0 0 21.901 21.901">
  <g id="Group_644" data-name="Group 644">
    <g id="feedback-2" data-name="feedback">
      <g id="Group_45" data-name="Group 45">
        <path id="Path_478" data-name="Path 478" d="M380.539,1088.916a.446.446,0,0,1-.445-.445v-18.936a2.558,2.558,0,0,1,2.514-2.52H399.48a2.557,2.557,0,0,1,2.515,2.515v12.634a2.526,2.526,0,0,1-.742,1.793,2.481,2.481,0,0,1-1.777.77H384.918l-4.064,4.059A.445.445,0,0,1,380.539,1088.916Zm2.074-21.012a1.662,1.662,0,0,0-1.628,1.635V1087.4l3.434-3.43a.445.445,0,0,1,.315-.13h14.753a1.52,1.52,0,0,0,1.123-.495,1.657,1.657,0,0,0,.495-1.177v-12.63a1.661,1.661,0,0,0-1.632-1.63Z" transform="translate(-380.094 -1067.014)"/>
      </g>
    </g>
    <g id="Group_643" data-name="Group 643" transform="translate(10.396 4.221)">
      <path id="Path_479" data-name="Path 479" d="M393.483,1078.689a1.18,1.18,0,0,0,.8,0,1,1,0,0,0,.459-.429l.065-.125.011-5.228-.078-.176a1.049,1.049,0,0,0-.46-.427,1.184,1.184,0,0,0-.621-.058.973.973,0,0,0-.636.488l-.065.126-.012,5.227.077.174A1.014,1.014,0,0,0,393.483,1078.689Z" transform="translate(-392.935 -1072.227)"/>
      <path id="Path_480" data-name="Path 480" d="M394.556,1082.1a1,1,0,0,0-.974-.229.969.969,0,0,0-.627.7.942.942,0,0,0,.256.876.83.83,0,0,0,.674.269.85.85,0,0,0,.671-.266.831.831,0,0,0,.269-.675A.854.854,0,0,0,394.556,1082.1Z" transform="translate(-392.932 -1074.053)"/>
    </g>
  </g>
</svg>
