<svg xmlns="http://www.w3.org/2000/svg" width="62.861" height="43.869" viewBox="0 0 62.861 43.869">
  <g id="font" transform="translate(-10 -45.7)">
    <g id="Group_90" data-name="Group 90" transform="translate(10 45.7)">
      <g id="Group_89" data-name="Group 89">
        <path id="Path_121" data-name="Path 121" d="M27.287,56.115C17.911,80.433,16.579,83.709,15.54,84.935a7.757,7.757,0,0,1-4.661,2.371l-.879.16v2.078H26.3V87.465l-.693-.08c-3.463-.426-5.3-1.225-5.514-2.371-.186-.986.613-4.022,2.211-8.284l.772-2.131,7.644.027,7.618.053,1.838,4.981c1.012,2.743,1.891,5.274,1.918,5.62.08.586.053.693-.293.986-.639.479-1.891.8-4.448,1.145l-.719.08v2.078H54.588V87.492l-.559-.08a7.127,7.127,0,0,1-4.981-2.743c-.32-.506-3.01-7.218-7.884-19.79l-7.3-19.1-1.279-.053L31.335,45.7Zm6.659,7.431L37.169,71.8l-6.419.053c-3.543.027-6.446.027-6.473-.027-.08-.08,6.259-16.568,6.366-16.568C30.7,55.262,32.188,58.991,33.946,63.546Z" transform="translate(-10 -45.7)"/>
        <path id="Path_122" data-name="Path 122" d="M168.472,106.531c-.373.986-2.078,5.327-3.782,9.7s-3.09,8.071-3.09,8.23a5.221,5.221,0,0,0,.506,1.358l.453,1.039.639-1.731.639-1.731h9.829l1.172,3.2a23.644,23.644,0,0,1,1.172,3.7c0,.426-.08.533-.613.746a8.838,8.838,0,0,1-1.731.4l-1.119.16v1.332h11.533v-1.305l-.852-.186a3.875,3.875,0,0,1-2.877-1.971c-.16-.32-2.264-5.647-4.661-11.826-2.4-6.206-4.5-11.64-4.661-12.066l-.32-.772h-1.572Zm2.371,9.749c1.039,2.69,1.918,4.954,1.971,5.034.053.16-.8.186-4.049.186-2.264,0-4.129-.027-4.129-.08,0-.08,3.436-9,3.915-10.255.16-.346.16-.346.266-.08C168.872,111.3,169.777,113.616,170.843,116.28Z" transform="translate(-121.22 -89.058)"/>
      </g>
    </g>
  </g>
</svg>
