<svg xmlns="http://www.w3.org/2000/svg" width="18.78" height="18.785" viewBox="0 0 18.78 18.785">
  <g id="globe" transform="translate(0.227 0.236)">
    <g id="Group_511" data-name="Group 511">
      <g id="Group_510" data-name="Group 510">
        <path id="Path_385" data-name="Path 385" d="M17.468,10.108a9.324,9.324,0,0,0-7.413,7.468,12.017,12.017,0,0,0,0,3.167,9.279,9.279,0,0,0,7.483,7.468,11.279,11.279,0,0,0,3.152,0,9.26,9.26,0,0,0,7.475-7.475,11.639,11.639,0,0,0,.008-3.159A9.307,9.307,0,0,0,20.7,10.1,12.489,12.489,0,0,0,17.468,10.108Zm1.056,3.074V15.2h-.287a10.063,10.063,0,0,1-2.663-.574,6.244,6.244,0,0,1,.776-1.653,4.178,4.178,0,0,1,2.158-1.793C18.524,11.163,18.524,12.072,18.524,13.182Zm1.661-1.816a4.677,4.677,0,0,1,1.607,1.49,6.5,6.5,0,0,1,.862,1.778,10.063,10.063,0,0,1-2.663.574H19.7V13.182c0-1.11.023-2.018.047-2.018A4,4,0,0,1,20.185,11.365Zm-4.564.621c-.031.054-.155.241-.272.411s-.365.652-.559,1.048l-.342.73-.543-.342-.536-.349.419-.373A10.074,10.074,0,0,1,15.6,11.9C15.644,11.9,15.652,11.94,15.62,11.986Zm7.786.365a8.034,8.034,0,0,1,1.017.745l.435.38-.543.342-.536.342-.3-.644c-.171-.349-.419-.823-.559-1.04-.411-.644-.4-.613-.241-.559C22.754,11.955,23.08,12.149,23.406,12.351Zm-10.2,2.36a5.948,5.948,0,0,0,.714.411c.132.062.2.132.186.194a18.452,18.452,0,0,0-.365,2.011c-.023.217-.062.6-.078.823l-.047.427H11.072l.062-.5a8.621,8.621,0,0,1,.582-2.1,6.538,6.538,0,0,1,.939-1.584A2.86,2.86,0,0,1,13.206,14.711Zm12.754.21a8.014,8.014,0,0,1,1.126,3.152l.07.5H24.625l-.039-.427a17.024,17.024,0,0,0-.342-2.282c-.07-.334-.132-.621-.124-.629s.241-.132.5-.279a6.293,6.293,0,0,0,.66-.411.757.757,0,0,1,.264-.155A2.276,2.276,0,0,1,25.96,14.921Zm-9.889,1.048a15.244,15.244,0,0,0,2.111.365l.342.047v2.2H14.79v-.349a10.842,10.842,0,0,1,.272-1.941c.093-.466.14-.567.233-.528C15.357,15.774,15.714,15.875,16.071,15.968Zm7.1.311a11.554,11.554,0,0,1,.264,1.941v.349H19.7V16.38l.349-.039a16.85,16.85,0,0,0,2.344-.45c.31-.093.59-.171.605-.179A1.589,1.589,0,0,1,23.173,16.279ZM13.649,20.16c.023.233.062.605.078.831.047.419.3,1.84.365,2.011.023.062-.054.132-.186.194a5.948,5.948,0,0,0-.714.411,3.449,3.449,0,0,1-.551.326,6.538,6.538,0,0,1-.939-1.584,8.941,8.941,0,0,1-.582-2.1l-.062-.489h2.531Zm4.875.675v1.1l-.342.047a13.325,13.325,0,0,0-2.259.411c-.4.109-.737.2-.745.194a16.03,16.03,0,0,1-.365-2.174l-.047-.668h3.765l-.008,1.087Zm4.9-.427a18.957,18.957,0,0,1-.365,2.174c-.008.008-.342-.078-.745-.194a13.36,13.36,0,0,0-2.251-.411l-.349-.047v-2.2h3.749Zm3.672-.171a8.684,8.684,0,0,1-.543,2.026,7.4,7.4,0,0,1-.963,1.646c-.054.023-.194-.047-.334-.147a7.9,7.9,0,0,0-.683-.427c-.241-.132-.45-.241-.466-.248s.054-.295.124-.629a16.8,16.8,0,0,0,.334-2.29l.047-.419H27.14Zm-8.57,4.89v2.018l-.233-.078a4.359,4.359,0,0,1-1.933-1.716,7.773,7.773,0,0,1-.8-1.653,9.594,9.594,0,0,1,2.624-.574l.342-.008v2.011Zm2.391-1.9a8.846,8.846,0,0,1,1.754.466,2.745,2.745,0,0,1-.264.66,4.885,4.885,0,0,1-2.523,2.717l-.186.07V23.1h.287C20.138,23.118,20.557,23.172,20.914,23.226ZM15.4,25.974a1.161,1.161,0,0,1,.225.435A7.5,7.5,0,0,1,13.431,24.8a3.049,3.049,0,0,1,.536-.357l.481-.295.342.714C14.984,25.253,15.256,25.757,15.4,25.974Zm9.051-1.405c.21.14.365.287.342.326A10.239,10.239,0,0,1,22.6,26.409a3.387,3.387,0,0,1,.334-.6,11.291,11.291,0,0,0,.6-1.118C23.787,24.08,23.725,24.1,24.446,24.569Z" transform="translate(-9.95 -9.999)" stroke="#f3f3f3" stroke-width="0.4"/>
      </g>
    </g>
  </g>
</svg>
