<svg xmlns="http://www.w3.org/2000/svg" width="279" height="42" viewBox="0 0 279 42">
  <g id="Group_250" data-name="Group 250" transform="translate(-511 -1302)">
    <g id="Rectangle_34" data-name="Rectangle 34" transform="translate(511 1332)" fill="#9fc" stroke="#fff" stroke-width="2">
      <rect width="198" height="12" rx="6" stroke="none"/>
      <rect x="1" y="1" width="196" height="10" rx="5" fill="none"/>
    </g>
    <text id="_70_verification" data-name="70% verification" transform="translate(511 1302)" fill="#999" font-size="15" font-family="OpenSans-Regular, Open Sans"><tspan x="0" y="16">70% verification</tspan></text>
    <g id="Path_223" data-name="Path 223" transform="translate(511 1332)" fill="none">
      <path d="M6,0H273a6,6,0,0,1,0,12H6A6,6,0,0,1,6,0Z" stroke="none"/>
      <path d="M 6 1 C 3.243011474609375 1 1 3.243000030517578 1 6 C 1 8.756999969482422 3.243011474609375 11 6 11 L 273 11 C 275.7569885253906 11 278 8.756999969482422 278 6 C 278 3.243000030517578 275.7569885253906 1 273 1 L 6 1 M 6 0 L 273 0 C 276.313720703125 0 279 2.686285972595215 279 6 C 279 9.313714027404785 276.313720703125 12 273 12 L 6 12 C 2.686279296875 12 0 9.313714027404785 0 6 C 0 2.686285972595215 2.686279296875 0 6 0 Z" stroke="none" fill="#f3f3f3"/>
    </g>
  </g>
</svg>
