<svg xmlns="http://www.w3.org/2000/svg" width="61.882" height="44.249" viewBox="0 0 61.882 44.249">
  <g id="Group_533" data-name="Group 533" transform="translate(-195.642 -1172.965)">
    <g id="Group_532" data-name="Group 532" transform="translate(195.642 1172.965)">
      <path id="Path_565" data-name="Path 565" d="M237.516,1217.193H202.461a.918.918,0,0,1-.554-.187l-.642-.489a14.968,14.968,0,0,1-5.537-9.876,17.991,17.991,0,0,1,2-10.192,10.808,10.808,0,0,1,8.239-6.252l.194-.019a21.193,21.193,0,0,1,8.8-13.616,21.317,21.317,0,0,1,23.737.009,21.065,21.065,0,0,1,8.731,13.258l.076.385.165.015a9.25,9.25,0,0,1,5.859,3.04,17.176,17.176,0,0,1,3.971,7.417.914.914,0,0,1-1.773.442,15.386,15.386,0,0,0-3.553-6.636,7.427,7.427,0,0,0-4.694-2.446l-.825-.076a.916.916,0,0,1-.812-.735l-.206-1.052a19.237,19.237,0,0,0-7.965-12.1,19.5,19.5,0,0,0-21.687-.005,19.345,19.345,0,0,0-8.027,12.443l-.129.676a.915.915,0,0,1-.814.739l-.82.076a9,9,0,0,0-6.822,5.24,16.214,16.214,0,0,0-1.824,9.188,13.115,13.115,0,0,0,4.846,8.64l.38.291h34.746a.913.913,0,1,1,0,1.826Z" transform="translate(-195.642 -1172.965)"/>
    </g>
    <path id="Path_566" data-name="Path 566" d="M237.1,1196.406c-.5-.5-.669-.523-3.456-.523h-2.459v-2.469a22.571,22.571,0,0,0-.085-2.787,1.752,1.752,0,0,0-1.607-1.182,1.723,1.723,0,0,0-1.6,1.182,25.2,25.2,0,0,0-.087,2.773v2.483h-2.554c-2.872,0-2.959.012-3.456.584a1.637,1.637,0,0,0,.1,2.276c.5.5.669.523,3.456.523H227.8v2.471a22.438,22.438,0,0,0,.087,2.787,1.75,1.75,0,0,0,1.6,1.18,1.722,1.722,0,0,0,1.607-1.18,25.509,25.509,0,0,0,.085-2.775v-2.483h2.556c2.872,0,2.957-.012,3.456-.584A1.637,1.637,0,0,0,237.1,1196.406Z" transform="translate(17.972 11.509)"/>
  </g>
</svg>
