<svg xmlns="http://www.w3.org/2000/svg" width="51.532" height="53.647" viewBox="0 0 51.532 53.647">
  <g id="Group_753" data-name="Group 753" transform="translate(-284.633 -1169.868)">
    <path id="Path_560" data-name="Path 560" d="M297.621,1210.835a14.132,14.132,0,0,1-5.389-1.093c-4.549-1.866-7.387-6.287-7.594-11.825a17.874,17.874,0,0,1,.856-5.581c1.181-3.219,3.124-5.166,5.617-5.631l.005,0a5.251,5.251,0,0,1,2.043.026,6.969,6.969,0,0,1,3.2,1.249,5.44,5.44,0,0,0,2.5,1c.782.109,1.118.088,3.233-.448a5.508,5.508,0,0,1,2.444-.137,4.737,4.737,0,0,1,2.1.531c2.216,1.11,3.514,3.367,3.848,6.7a19.51,19.51,0,0,1-.532,5.22,14.366,14.366,0,0,1-5.1,7.682A12.2,12.2,0,0,1,297.621,1210.835Zm-6.188-22.4c-2.339.438-3.623,2.693-4.289,4.509a16.353,16.353,0,0,0-.75,4.911c.181,4.83,2.613,8.668,6.506,10.267a11.167,11.167,0,0,0,10.924-1.012,12.56,12.56,0,0,0,4.442-6.722,18.216,18.216,0,0,0,.48-4.588c-.269-2.688-1.244-4.473-2.9-5.3a3.107,3.107,0,0,0-1.483-.348,3.815,3.815,0,0,0-1.85.095c-2.124.538-2.745.648-3.9.481a7.168,7.168,0,0,1-3.157-1.24,5.35,5.35,0,0,0-2.571-1.016A3.422,3.422,0,0,0,291.433,1188.433Z" transform="translate(0 12.679)"/>
    <path id="Path_561" data-name="Path 561" d="M312.212,1210.991c-4.389,0-8.441-2.472-11.024-6.8a17.761,17.761,0,0,1-1.931-5.3c-.51-3.391.258-6.032,2.221-7.64l.007-.005a5.22,5.22,0,0,1,1.8-.956,6.99,6.99,0,0,1,3.412-.444,5.482,5.482,0,0,0,2.674-.32c.733-.274,1.017-.457,2.62-1.947a5.468,5.468,0,0,1,2.077-1.295,4.81,4.81,0,0,1,2.1-.547q3.748-.108,6.593,4.027a19.475,19.475,0,0,1,2.04,4.832,14.39,14.39,0,0,1-.782,9.191,12.917,12.917,0,0,1-10.493,7.132A11.5,11.5,0,0,1,312.212,1210.991Zm-9.623-18.382c-1.836,1.509-1.882,4.1-1.594,6.016a16.278,16.278,0,0,0,1.7,4.667c2.479,4.15,6.454,6.334,10.637,5.879a11.17,11.17,0,0,0,9.1-6.134,12.572,12.572,0,0,0,.666-8.03,18.2,18.2,0,0,0-1.782-4.254c-1.529-2.23-3.233-3.332-5.09-3.261a3.191,3.191,0,0,0-1.467.408,3.892,3.892,0,0,0-1.576.973c-1.609,1.5-2.1,1.889-3.193,2.3a7.236,7.236,0,0,1-3.365.429,5.214,5.214,0,0,0-2.741.343A3.553,3.553,0,0,0,302.588,1192.609Z" transform="translate(10.956 12.011)"/>
    <path id="Path_562" data-name="Path 562" d="M300.965,1181.733a7.264,7.264,0,0,1-2.342-.413,13.859,13.859,0,0,1-3.507-1.692,11.177,11.177,0,0,1-2.889-2.5c-.213-.267-1.262-1.6-1.184-2.205.076-.661.734-.673,1.5-.689,1.353-.02,1.725-.176,3.609-1.515,2.477-1.789,4.435-2.688,6.157-2.831a11.236,11.236,0,0,1,4.354.729,11.828,11.828,0,0,1,3.918,2.609l.388.427a.7.7,0,0,1-.1,1.04.752.752,0,0,1,.049.155.694.694,0,0,1-.246.687l-.5.4c-.209.2-.935.949-1.543,1.631-2.5,2.8-4.463,3.964-7,4.138Q301.279,1181.733,300.965,1181.733Zm-8.091-6.1c.137.2.292.417.446.61a9.89,9.89,0,0,0,2.555,2.205,12.7,12.7,0,0,0,3.173,1.536,5.807,5.807,0,0,0,2.476.323c2.156-.149,3.8-1.144,6.051-3.674.39-.436.826-.9,1.167-1.249-.944-.144-2.268-.248-2.7-.257a16.086,16.086,0,0,0-4.5,1.067c-2.116.761-2.186.755-2.37.731a.705.705,0,0,1-.615-.6c-.074-.529-.074-.529,1.757-1.372l.33-.151c3.27-1.453,5.138-1.871,7.721-1.638a12.045,12.045,0,0,0-2.253-1.253,9.9,9.9,0,0,0-3.677-.624h-.011c-1.435.119-3.221.961-5.457,2.574C295.093,1175.192,294.409,1175.566,292.874,1175.631Zm9.492-5.044h0Z" transform="translate(4.85 0)"/>
    <path id="Path_563" data-name="Path 563" d="M293.048,1201.091a.924.924,0,0,1-.1-.005.88.88,0,0,1-.777-.97c1.755-15.828,9.105-21.289,16.885-27.071l.9-.671a.878.878,0,1,1,1.051,1.407l-.9.673c-7.466,5.549-14.517,10.788-16.188,25.854A.879.879,0,0,1,293.048,1201.091Z" transform="translate(5.705 1.764)"/>
    <path id="Path_564" data-name="Path 564" d="M308.023,1201.269a.877.877,0,0,1-.773-.458c-6.956-12.755-6.1-21.092-4.748-27.9a.879.879,0,0,1,1.724.343c-1.291,6.51-2.108,14.48,4.567,26.721a.88.88,0,0,1-.351,1.193A.87.87,0,0,1,308.023,1201.269Z" transform="translate(12.828 1.764)"/>
  </g>
</svg>
