<svg xmlns="http://www.w3.org/2000/svg" width="216" height="88.887" viewBox="0 0 216 88.887">
  <g id="Group_621" data-name="Group 621" transform="translate(-40 -399.557)">
    <text id="autodetect" transform="translate(40 450.443)" font-size="15" font-family="OpenSans-Regular, Open Sans"><tspan x="70.097" y="16">autodetect</tspan></text>
    <g id="toggle" transform="translate(124.121 399.557)">
      <path id="Path_118" data-name="Path 118" d="M46.807,56.483a15.18,15.18,0,0,1,3.162,1.11,12.908,12.908,0,0,1,3.644,2.66,12.762,12.762,0,0,1,3.372,6.22,16.189,16.189,0,0,1,.188,5.215,13.174,13.174,0,0,1-5.78,9.09,12.483,12.483,0,0,1-3.246,1.529c-1.864.586-1.34.565-13.467.565-10.262,0-11.2,0-11.959-.168a13.05,13.05,0,0,1-6.744-3.623,12.728,12.728,0,0,1-3.644-6.87,14.872,14.872,0,0,1-.042-5.006A13.155,13.155,0,0,1,23.685,56.315c.335-.042,5.487-.084,11.435-.063C45.885,56.273,45.927,56.273,46.807,56.483Z" transform="translate(-10.011 -54.173)" fill="#9fc"/>
      <g id="on_off_switch_toggle_settings_preferences" transform="translate(-3.011 -54.173)">
        <g id="Group_86" data-name="Group 86" transform="translate(3.011 54.173)">
          <g id="Group_85" data-name="Group 85" transform="translate(0 0)">
            <path id="Path_116" data-name="Path 116" d="M23.329,54.242a15.78,15.78,0,0,0-8.8,4.545A15.124,15.124,0,0,0,11.58,76.254a15.775,15.775,0,0,0,12.5,8.754c1.382.147,20,.147,21.279,0A15.664,15.664,0,0,0,56.8,78.138a15.341,15.341,0,0,0,2.576-9.7,15.041,15.041,0,0,0-4.566-9.718,15.413,15.413,0,0,0-7.77-4.314c-.9-.209-1.005-.209-12-.23C28.879,54.158,23.664,54.2,23.329,54.242Zm23.478,2.241a15.18,15.18,0,0,1,3.162,1.11,12.908,12.908,0,0,1,3.644,2.66,12.762,12.762,0,0,1,3.372,6.22,16.189,16.189,0,0,1,.188,5.215,13.174,13.174,0,0,1-5.78,9.09,12.483,12.483,0,0,1-3.246,1.529c-1.864.586-1.34.565-13.467.565-10.262,0-11.2,0-11.959-.168a13.05,13.05,0,0,1-6.744-3.623,12.728,12.728,0,0,1-3.644-6.87,14.872,14.872,0,0,1-.042-5.006A13.155,13.155,0,0,1,23.685,56.315c.335-.042,5.487-.084,11.435-.063C45.885,56.273,45.927,56.273,46.807,56.483Z" transform="translate(-10.011 -54.173)"/>
            <path id="Path_117" data-name="Path 117" d="M47.011,83.856a9.723,9.723,0,0,0-7.2,6.744,10.475,10.475,0,0,0-.168,4.042A10.077,10.077,0,0,0,41.817,99a10.617,10.617,0,0,0,4.545,2.89,6.385,6.385,0,0,0,2.367.272,6.914,6.914,0,0,0,2.262-.209,9.8,9.8,0,0,0,6.765-6.807,10.38,10.38,0,0,0,0-4.4,9.642,9.642,0,0,0-7.393-6.911A10.576,10.576,0,0,0,47.011,83.856Zm3.854,2.22A7.607,7.607,0,0,1,53.42,87.4a7.173,7.173,0,0,1,1.92,2.57,7.469,7.469,0,0,1,.216,5.472,6.069,6.069,0,0,1-1.717,2.66,6.57,6.57,0,0,1-5.047,2.011,6.639,6.639,0,0,1-3.309-.733,6.537,6.537,0,0,1-3.162-3.2,7.913,7.913,0,0,1,.063-6.513,6.814,6.814,0,0,1,4.943-3.749A9.253,9.253,0,0,1,50.865,86.076Z" transform="translate(-33.338 -77.526)"/>
            <circle id="Ellipse_2" data-name="Ellipse 2" cx="7.5" cy="7.5" r="7.5" transform="translate(7.88 7.886)" fill="#fff"/>
          </g>
        </g>
      </g>
    </g>
  </g>
</svg>
