<svg id="hi" xmlns="http://www.w3.org/2000/svg" width="53.218" height="53.218" viewBox="0 0 53.218 53.218">
  <g id="feedback">
    <g id="Group_45" data-name="Group 45">
      <path id="Path_611" data-name="Path 611" d="M796.914,1300.756a1.083,1.083,0,0,1-1.082-1.082v-46.013a6.218,6.218,0,0,1,6.111-6.123h41a6.216,6.216,0,0,1,6.109,6.113v30.7a6.139,6.139,0,0,1-1.8,4.358,6.021,6.021,0,0,1-4.317,1.871H807.553l-9.873,9.863A1.087,1.087,0,0,1,796.914,1300.756Zm5.039-51.054a4.037,4.037,0,0,0-3.957,3.971v43.39l8.344-8.333a1.074,1.074,0,0,1,.765-.317h35.849a3.692,3.692,0,0,0,2.729-1.2,4.015,4.015,0,0,0,1.2-2.859v-30.69a4.036,4.036,0,0,0-3.965-3.959Z" transform="translate(-795.832 -1247.538)"/>
    </g>
  </g>
  <g id="Group_765" data-name="Group 765" transform="translate(14.519 8.472)">
    <path id="Path_612" data-name="Path 612" d="M818.391,1251.844a1.912,1.912,0,0,0-2,1.8v8.785h-9.245v-8.785a1.975,1.975,0,0,0-3.935,0v21.539a1.975,1.975,0,0,0,3.935,0v-8.754h9.245v8.754a1.932,1.932,0,0,0,2,1.8,1.912,1.912,0,0,0,2-1.8v-21.539A1.934,1.934,0,0,0,818.391,1251.844Z" transform="translate(-803.211 -1251.844)"/>
    <path id="Path_613" data-name="Path 613" d="M816.608,1255.877a1.93,1.93,0,0,0-2,1.8v13.574a1.93,1.93,0,0,0,2,1.8,1.91,1.91,0,0,0,2-1.8v-13.574A1.932,1.932,0,0,0,816.608,1255.877Z" transform="translate(-792.183 -1247.942)"/>
    <path id="Path_614" data-name="Path 614" d="M816.608,1255.844a2,2,0,1,0-2-2A2.009,2.009,0,0,0,816.608,1255.844Z" transform="translate(-792.183 -1251.844)"/>
  </g>
</svg>
