<svg width="29" height="16" viewBox="0 0 29 16" fill="none" xmlns="http://www.w3.org/2000/svg">
<g clip-path="url(#clip0_2029_6139)">
<path d="M26.609 0.0840064C25.743 -0.0289936 2.888 -0.0279887 1.715 0.0890113C1.32007 0.200864 0.961491 0.414597 0.675224 0.708762C0.388957 1.00293 0.185065 1.36721 0.0839993 1.76504C-0.0280007 2.41204 -0.0270007 13.132 0.0839993 13.83C0.19267 14.2299 0.40556 14.5936 0.700904 14.8842C0.996249 15.1748 1.36346 15.3818 1.765 15.484C2.665 15.606 25.7 15.606 26.631 15.479C27.0296 15.3717 27.3927 15.1609 27.6835 14.8679C27.9743 14.575 28.1825 14.2103 28.287 13.811C28.402 13.148 28.402 2.42302 28.287 1.74502C28.1794 1.3444 27.9673 0.979532 27.6725 0.687705C27.3777 0.395878 27.0107 0.18754 26.609 0.0840064ZM27.209 14.04C27.1058 14.1754 26.9851 14.2965 26.85 14.4L26.589 14.616H1.806L1.53101 14.388C1.40071 14.2879 1.28465 14.1705 1.186 14.039C0.971004 13.78 0.971 13.78 0.957 7.96303C0.957 3.40403 0.956999 2.15701 0.972999 2.03701C1.0217 1.83057 1.11412 1.637 1.24402 1.46932C1.37392 1.30164 1.53828 1.16377 1.72601 1.06502C1.97101 0.960024 2.026 0.935025 14.255 0.953025L26.565 0.966025L26.847 1.16604C26.9832 1.26896 27.1047 1.39007 27.208 1.52602C27.425 1.78602 27.425 1.786 27.425 7.782C27.425 13.754 27.425 13.754 27.208 14.039L27.209 14.04Z" fill="#999999"/>
<path d="M4.276 3.35997C4.14 3.49597 4.127 3.53401 4.127 4.12901C4.127 4.72401 4.127 4.774 4.276 4.898C4.425 5.022 4.45 5.04698 5.045 5.04698C5.64 5.04698 5.69 5.047 5.814 4.898C5.938 4.749 5.96301 4.72401 5.96301 4.12901C5.96301 3.53401 5.963 3.48297 5.814 3.35997C5.665 3.23697 5.641 3.21099 5.045 3.21099C4.449 3.21099 4.4 3.22197 4.276 3.35997Z" fill="#999999"/>
<path d="M7.936 3.35997C7.8 3.49597 7.787 3.53401 7.787 4.12901C7.787 4.72401 7.787 4.774 7.936 4.898C8.085 5.022 8.11 5.04698 8.705 5.04698C9.3 5.04698 9.351 5.047 9.474 4.898C9.597 4.749 9.623 4.72401 9.623 4.12901C9.623 3.53401 9.623 3.48297 9.474 3.35997C9.325 3.23697 9.3 3.21099 8.705 3.21099C8.11 3.21099 8.06 3.22197 7.936 3.35997Z" fill="#999999"/>
<path d="M11.584 3.35997C11.448 3.49597 11.435 3.53401 11.435 4.12901C11.435 4.72401 11.435 4.774 11.584 4.898C11.733 5.022 11.758 5.04698 12.353 5.04698C12.948 5.04698 12.998 5.047 13.122 4.898C13.246 4.749 13.271 4.72401 13.271 4.12901C13.271 3.53401 13.271 3.48297 13.122 3.35997C12.973 3.23697 12.948 3.21099 12.353 3.21099C11.758 3.21099 11.721 3.22197 11.584 3.35997Z" fill="#999999"/>
<path d="M15.246 3.35997C15.11 3.49597 15.097 3.53401 15.097 4.12901C15.097 4.72401 15.097 4.774 15.246 4.898C15.395 5.022 15.419 5.04698 16.015 5.04698C16.611 5.04698 16.66 5.047 16.784 4.898C16.908 4.749 16.933 4.72401 16.933 4.12901C16.933 3.53401 16.933 3.48297 16.784 3.35997C16.635 3.23697 16.61 3.21099 16.015 3.21099C15.42 3.21099 15.382 3.22197 15.246 3.35997Z" fill="#999999"/>
<path d="M18.904 3.35997C18.768 3.49597 18.755 3.53401 18.755 4.12901C18.755 4.72401 18.755 4.774 18.904 4.898C19.053 5.022 19.078 5.04698 19.673 5.04698C20.268 5.04698 20.318 5.047 20.442 4.898C20.566 4.749 20.591 4.72401 20.591 4.12901C20.591 3.53401 20.591 3.48297 20.442 3.35997C20.293 3.23697 20.268 3.21099 19.673 3.21099C19.078 3.21099 19.028 3.22197 18.904 3.35997Z" fill="#999999"/>
<path d="M22.565 3.35997C22.429 3.49597 22.416 3.53401 22.416 4.12901C22.416 4.72401 22.416 4.774 22.565 4.898C22.714 5.022 22.738 5.04698 23.334 5.04698C23.93 5.04698 23.979 5.047 24.103 4.898C24.227 4.749 24.252 4.72401 24.252 4.12901C24.252 3.53401 24.252 3.48297 24.103 3.35997C23.954 3.23697 23.929 3.21099 23.334 3.21099C22.739 3.21099 22.689 3.22197 22.565 3.35997Z" fill="#999999"/>
<path d="M4.276 7.019C4.14 7.155 4.127 7.19198 4.127 7.78798C4.127 8.38398 4.127 8.43302 4.276 8.55702C4.425 8.68102 4.45 8.70601 5.045 8.70601C5.64 8.70601 5.69 8.70602 5.814 8.55702C5.938 8.40802 5.96301 8.38298 5.96301 7.78798C5.96301 7.19298 5.963 7.143 5.814 7.019C5.665 6.895 5.641 6.87001 5.045 6.87001C4.449 6.87001 4.4 6.87 4.276 7.019Z" fill="#999999"/>
<path d="M7.936 7.019C7.8 7.155 7.787 7.19198 7.787 7.78798C7.787 8.38398 7.787 8.43302 7.936 8.55702C8.085 8.68102 8.11 8.70601 8.705 8.70601C9.3 8.70601 9.351 8.70602 9.474 8.55702C9.597 8.40802 9.623 8.38298 9.623 7.78798C9.623 7.19298 9.623 7.143 9.474 7.019C9.325 6.895 9.3 6.87001 8.705 6.87001C8.11 6.87001 8.06 6.87 7.936 7.019Z" fill="#999999"/>
<path d="M11.584 7.019C11.448 7.155 11.435 7.19198 11.435 7.78798C11.435 8.38398 11.435 8.43302 11.584 8.55702C11.733 8.68102 11.758 8.70601 12.353 8.70601C12.948 8.70601 12.998 8.70602 13.122 8.55702C13.246 8.40802 13.271 8.38298 13.271 7.78798C13.271 7.19298 13.271 7.143 13.122 7.019C12.973 6.895 12.948 6.87001 12.353 6.87001C11.758 6.87001 11.721 6.87 11.584 7.019Z" fill="#999999"/>
<path d="M15.246 7.019C15.11 7.155 15.097 7.19198 15.097 7.78798C15.097 8.38398 15.097 8.43302 15.246 8.55702C15.395 8.68102 15.419 8.70601 16.015 8.70601C16.611 8.70601 16.66 8.70602 16.784 8.55702C16.908 8.40802 16.933 8.38298 16.933 7.78798C16.933 7.19298 16.933 7.143 16.784 7.019C16.635 6.895 16.61 6.87001 16.015 6.87001C15.42 6.87001 15.382 6.87 15.246 7.019Z" fill="#999999"/>
<path d="M18.904 7.019C18.768 7.155 18.755 7.19198 18.755 7.78798C18.755 8.38398 18.755 8.43302 18.904 8.55702C19.053 8.68102 19.078 8.70601 19.673 8.70601C20.268 8.70601 20.318 8.70602 20.442 8.55702C20.566 8.40802 20.591 8.38298 20.591 7.78798C20.591 7.19298 20.591 7.143 20.442 7.019C20.293 6.895 20.268 6.87001 19.673 6.87001C19.078 6.87001 19.028 6.87 18.904 7.019Z" fill="#999999"/>
<path d="M22.565 7.019C22.429 7.155 22.416 7.19198 22.416 7.78798C22.416 8.38398 22.416 8.43302 22.565 8.55702C22.714 8.68102 22.738 8.70601 23.334 8.70601C23.93 8.70601 23.979 8.70602 24.103 8.55702C24.227 8.40802 24.252 8.38298 24.252 7.78798C24.252 7.19298 24.252 7.143 24.103 7.019C23.954 6.895 23.929 6.87001 23.334 6.87001C22.739 6.87001 22.689 6.87 22.565 7.019Z" fill="#999999"/>
<path d="M4.276 10.667C4.14 10.803 4.127 10.841 4.127 11.436C4.127 12.031 4.127 12.082 4.276 12.205C4.425 12.328 4.45 12.354 5.045 12.354C5.64 12.354 5.69 12.354 5.814 12.205C5.938 12.056 5.96301 12.031 5.96301 11.436C5.96301 10.841 5.963 10.791 5.814 10.667C5.665 10.543 5.641 10.518 5.045 10.518C4.449 10.518 4.4 10.527 4.276 10.667Z" fill="#999999"/>
<path d="M7.936 10.667C7.8 10.803 7.787 10.841 7.787 11.436C7.787 12.031 7.787 12.082 7.936 12.205L8.072 12.354H20.306L20.442 12.205C20.578 12.069 20.591 12.031 20.591 11.436C20.591 10.841 20.591 10.791 20.442 10.667L20.306 10.518H8.07301L7.936 10.667Z" fill="#999999"/>
<path d="M22.565 10.667C22.429 10.803 22.416 10.841 22.416 11.436C22.416 12.031 22.416 12.082 22.565 12.205C22.714 12.328 22.738 12.354 23.334 12.354C23.93 12.354 23.979 12.354 24.103 12.205C24.227 12.056 24.252 12.031 24.252 11.436C24.252 10.841 24.252 10.791 24.103 10.667C23.954 10.543 23.929 10.518 23.334 10.518C22.739 10.518 22.689 10.527 22.565 10.667Z" fill="#999999"/>
</g>
<defs>
<clipPath id="clip0_2029_6139">
<rect width="28.373" height="15.578" fill="white"/>
</clipPath>
</defs>
</svg>
