<svg id="keyboard" xmlns="http://www.w3.org/2000/svg" width="28.373" height="15.578" viewBox="0 0 28.373 15.578">
  <g id="keyboard-2" data-name="keyboard" transform="translate(-86.435 -969.215)">
    <g id="keyboard-2-2" data-name="keyboard-2" transform="translate(86.435 969.215)">
      <path id="Path_467" data-name="Path 467" d="M113.044,969.3c-.866-.113-23.721-.112-24.894.005a2.341,2.341,0,0,0-1.631,1.676c-.112.647-.111,11.367,0,12.065A2.34,2.34,0,0,0,88.2,984.7c.9.122,23.935.122,24.866-.005a2.341,2.341,0,0,0,1.656-1.668c.115-.663.115-11.388,0-12.066A2.343,2.343,0,0,0,113.044,969.3Zm.6,13.956a1.924,1.924,0,0,1-.359.36l-.261.216H88.241l-.275-.228a1.812,1.812,0,0,1-.345-.349c-.215-.259-.215-.259-.229-6.076,0-4.559,0-5.806.016-5.926a1.483,1.483,0,0,1,.753-.972c.245-.105.3-.13,12.529-.112l12.31.013.282.2a1.866,1.866,0,0,1,.361.36c.217.26.217.26.217,6.256C113.86,982.97,113.86,982.97,113.643,983.255Z" transform="translate(-86.435 -969.216)"/>
      <path id="Path_5" data-name="Path 5" d="M92.029,973.6c-.136.136-.149.174-.149.769s0,.645.149.769.174.149.769.149.645,0,.769-.149.149-.174.149-.769,0-.646-.149-.769-.173-.149-.769-.149S92.153,973.462,92.029,973.6Z" transform="translate(-87.753 -970.24)"/>
      <path id="Path_6" data-name="Path 6" d="M96.857,973.6c-.136.136-.149.174-.149.769s0,.645.149.769.174.149.769.149.646,0,.769-.149.149-.174.149-.769,0-.646-.149-.769-.174-.149-.769-.149S96.981,973.462,96.857,973.6Z" transform="translate(-88.921 -970.24)"/>
      <path id="Path_7" data-name="Path 7" d="M101.67,973.6c-.136.136-.149.174-.149.769s0,.645.149.769.174.149.769.149.645,0,.769-.149.149-.174.149-.769,0-.646-.149-.769-.174-.149-.769-.149S101.807,973.462,101.67,973.6Z" transform="translate(-90.086 -970.24)"/>
      <path id="Path_8" data-name="Path 8" d="M106.5,973.6c-.136.136-.149.174-.149.769s0,.645.149.769.173.149.769.149.645,0,.769-.149.149-.174.149-.769,0-.646-.149-.769-.174-.149-.769-.149S106.636,973.462,106.5,973.6Z" transform="translate(-91.254 -970.24)"/>
      <path id="Path_9" data-name="Path 9" d="M111.327,973.6c-.136.136-.149.174-.149.769s0,.645.149.769.174.149.769.149.645,0,.769-.149.149-.174.149-.769,0-.646-.149-.769-.174-.149-.769-.149S111.451,973.462,111.327,973.6Z" transform="translate(-92.423 -970.24)"/>
      <path id="Path_10" data-name="Path 10" d="M116.156,973.6c-.136.136-.149.174-.149.769s0,.645.149.769.173.149.769.149.645,0,.769-.149.149-.174.149-.769,0-.646-.149-.769-.174-.149-.769-.149S116.28,973.462,116.156,973.6Z" transform="translate(-93.591 -970.24)"/>
      <path id="Path_11" data-name="Path 11" d="M92.029,978.427c-.136.136-.149.173-.149.769s0,.645.149.769.174.149.769.149.645,0,.769-.149.149-.174.149-.769,0-.645-.149-.769-.173-.149-.769-.149S92.153,978.278,92.029,978.427Z" transform="translate(-87.753 -971.408)"/>
      <path id="Path_12" data-name="Path 12" d="M96.857,978.427c-.136.136-.149.173-.149.769s0,.645.149.769.174.149.769.149.646,0,.769-.149.149-.174.149-.769,0-.645-.149-.769-.174-.149-.769-.149S96.981,978.278,96.857,978.427Z" transform="translate(-88.921 -971.408)"/>
      <path id="Path_13" data-name="Path 13" d="M101.67,978.427c-.136.136-.149.173-.149.769s0,.645.149.769.174.149.769.149.645,0,.769-.149.149-.174.149-.769,0-.645-.149-.769-.174-.149-.769-.149S101.807,978.278,101.67,978.427Z" transform="translate(-90.086 -971.408)"/>
      <path id="Path_14" data-name="Path 14" d="M106.5,978.427c-.136.136-.149.173-.149.769s0,.645.149.769.173.149.769.149.645,0,.769-.149.149-.174.149-.769,0-.645-.149-.769-.174-.149-.769-.149S106.636,978.278,106.5,978.427Z" transform="translate(-91.254 -971.408)"/>
      <path id="Path_15" data-name="Path 15" d="M111.327,978.427c-.136.136-.149.173-.149.769s0,.645.149.769.174.149.769.149.645,0,.769-.149.149-.174.149-.769,0-.645-.149-.769-.174-.149-.769-.149S111.451,978.278,111.327,978.427Z" transform="translate(-92.423 -971.408)"/>
      <path id="Path_16" data-name="Path 16" d="M116.156,978.427c-.136.136-.149.173-.149.769s0,.645.149.769.173.149.769.149.645,0,.769-.149.149-.174.149-.769,0-.645-.149-.769-.174-.149-.769-.149S116.28,978.278,116.156,978.427Z" transform="translate(-93.591 -971.408)"/>
      <path id="Path_17" data-name="Path 17" d="M92.029,983.24c-.136.136-.149.174-.149.769s0,.646.149.769.174.149.769.149.645,0,.769-.149.149-.174.149-.769,0-.645-.149-.769-.173-.149-.769-.149S92.153,983.1,92.029,983.24Z" transform="translate(-87.753 -972.573)"/>
      <path id="Path_18" data-name="Path 18" d="M96.857,983.24c-.136.136-.149.174-.149.769s0,.646.149.769l.136.149h12.234l.136-.149c.136-.136.149-.174.149-.769s0-.645-.149-.769l-.136-.149H96.994Z" transform="translate(-88.921 -972.573)"/>
      <path id="Path_19" data-name="Path 19" d="M116.156,983.24c-.136.136-.149.174-.149.769s0,.646.149.769.173.149.769.149.645,0,.769-.149.149-.174.149-.769,0-.645-.149-.769-.174-.149-.769-.149S116.28,983.1,116.156,983.24Z" transform="translate(-93.591 -972.573)"/>
    </g>
  </g>
</svg>
