<svg id="logo" xmlns="http://www.w3.org/2000/svg" width="151.7" height="35" viewBox="0 0 151.7 35">
  <g id="menulance-logo" transform="translate(0 0)">
    <path id="Path_452" data-name="Path 452" d="M75.8,8.7,76,13c0,.4-.2.6-.4.6a.367.367,0,0,1-.3-.1l-3.6-2-4.1,2a.6.6,0,0,1-.4.1q-.45,0-.3-.6l1.3-4.3-2.8-3c-.3-.4-.2-.7.4-.8l4.4-.6L72.6.4a.51.51,0,0,1,.5-.4c.2,0,.3.1.4.4L75,4.3l4.2.6c.5.1.6.4.2.8Zm1.8-2.9-3-.4L74,5.3l-.2-.5L72.8,2l-1,8.3.5.3L74.9,12l-.1-3V8.4l.5-.4Z"/>
    <g id="Group_633" data-name="Group 633">
      <path id="Path_453" data-name="Path 453" d="M36.7,34.5,39,15.6h4.3l6.3,12.6,1.6-12.6h4.2L53.1,34.5H48.6L42.4,22.2,40.9,34.5Z"/>
      <path id="Path_454" data-name="Path 454" d="M56,15.6h4.4L59.1,25.9a8.89,8.89,0,0,0-.1,2.2A2.748,2.748,0,0,0,60,30a2.805,2.805,0,0,0,1.9.7,2.7,2.7,0,0,0,1.7-.7,3.11,3.11,0,0,0,1.2-1.6,12.4,12.4,0,0,0,.4-2.2l1.3-10.5h4.6l-1.2,10a29.49,29.49,0,0,1-.9,4.8,7.217,7.217,0,0,1-1.4,2.4,5.8,5.8,0,0,1-2.4,1.5,9.88,9.88,0,0,1-3.7.6,9.836,9.836,0,0,1-4-.6,4.728,4.728,0,0,1-2-1.6,4.564,4.564,0,0,1-.8-2.1,29.114,29.114,0,0,1,.2-4.8Z"/>
      <g id="Group_631" data-name="Group 631">
        <path id="Path_455" data-name="Path 455" d="M35.4,26.6H23.7c-.1,2.9,1.4,3.9,3.9,3.9a4.263,4.263,0,0,0,3.9-2.1H37c-1.7,4.1-4.7,6.2-9.9,6.2-6.1,0-8.9-3-8.1-9.6.7-6.5,4.2-9.5,10.4-9.6,6,0,8.8,2.8,8.2,8.9C37.4,25.9,36.8,26.6,35.4,26.6Zm-6.5-6.9c-2.2,0-3.9.7-4.5,3h8.4C32.8,20.4,31.2,19.7,28.9,19.7Z"/>
      </g>
      <path id="Path_456" data-name="Path 456" d="M95.6,34.5l2.3-18.9h4.3l6.3,12.6,1.6-12.6h4.2L112,34.5h-4.5l-6.2-12.4L99.8,34.5Z"/>
      <g id="Group_632" data-name="Group 632">
        <path id="Path_457" data-name="Path 457" d="M141.1,26.6H129.4c-.1,2.9,1.4,3.9,3.9,3.9a4.148,4.148,0,0,0,3.9-2.1h5.5c-1.7,4.1-4.7,6.2-9.9,6.2-6.1,0-8.9-3-8.1-9.6.7-6.5,4.2-9.5,10.4-9.6,6,0,8.8,2.8,8.2,8.9C143.2,25.9,142.6,26.6,141.1,26.6Zm-6.4-6.9c-2.2,0-3.9.7-4.5,3h8.4C138.5,20.4,136.9,19.7,134.7,19.7Z"/>
      </g>
      <path id="Path_458" data-name="Path 458" d="M122,15.6c-.2.1-.3.1-.4,0-.1,0-.3.1-.4.1l-.3.1h-.1l-.2.1-.7.2a10.83,10.83,0,0,0-6.6,7.9c-.5,3.1-.1,5.6,1.4,7.7a7.088,7.088,0,0,0,6.1,2.9h4.1l.5-4h-2.7c-2.5.3-4.2-.6-5.1-2.8a6.39,6.39,0,0,1,1.4-6.3,5.081,5.081,0,0,1,3.6-1.7h2.1c1.4,0,2-.7,2.2-2.1l.2-1.9H122Z"/>
      <path id="Path_459" data-name="Path 459" d="M92.1,17.6a4.359,4.359,0,0,0-1-1.5,2.456,2.456,0,0,0-1.5-.5,3.022,3.022,0,0,0-1.6.5,5.135,5.135,0,0,0-1.4,1.5L79.7,31.7l.2-1.3h-2a3.4,3.4,0,0,1-2.5-.7,2.894,2.894,0,0,1-.9-1.6,22.83,22.83,0,0,1,.2-3.2l1.1-9.3h-4l-1.1,9.2a25.066,25.066,0,0,0-.3,5,5.005,5.005,0,0,0,.9,2.5,4.679,4.679,0,0,0,2.2,1.6,9.733,9.733,0,0,0,3.8.6h5.3l2-4.1H91l1,4.1h4.2Zm-6,9.6,2.7-5.6,1.3,5.6Z"/>
      <path id="Path_460" data-name="Path 460" d="M16,15.7h0L9.6,28.6,6.5,15.7H2.3L0,34.5H4.2l.9-7.4,1.3,5.5a4.359,4.359,0,0,0,1,1.5,2.456,2.456,0,0,0,1.5.5,3.022,3.022,0,0,0,1.6-.5,5.135,5.135,0,0,0,1.4-1.5L14.6,27l-.9,7.5h4.2l2.3-18.9H16Z"/>
    </g>
    <g id="Group_634" data-name="Group 634">
      <path id="Path_461" data-name="Path 461" d="M144.9,19.7l.4-3.1h-.8l.1-.9h2.6l-.1.9h-.8l-.4,3.1Z"/>
      <path id="Path_462" data-name="Path 462" d="M146.9,19.7l.5-4h1.5l.4,2.4.9-2.4h1.5l-.5,4h-.9l.4-3.1-1.2,3.1h-.8l-.4-3.1-.4,3.1Z"/>
    </g>
  </g>
</svg>
