<svg id="magnifying_glass" xmlns="http://www.w3.org/2000/svg" width="19.76" height="19.757" viewBox="0 0 19.76 19.757">
  <path id="Path_472" data-name="Path 472" d="M101.074,1301.6a3.693,3.693,0,0,1,.446-.271l.128-.031c.132,0,.132,0,2.253,2.1l.114.115c2.019,2.018,2.052,2.051,2.445,2.051h.019a.957.957,0,0,0,1-.906v-.1c0-.406,0-.406-2.074-2.477l-.111-.111c-2.221-2.221-2.221-2.221-2.006-2.482a7.181,7.181,0,0,0,.751-1.257,8.6,8.6,0,0,0-.489-8.505,8.73,8.73,0,0,0-2.547-2.536,8.587,8.587,0,0,0-3.4-1.295,14.258,14.258,0,0,0-1.935-.084,8.761,8.761,0,0,0-4.537,1.726,11.021,11.021,0,0,0-1.68,1.681,8.812,8.812,0,0,0-1.66,3.965,11.243,11.243,0,0,0,0,2.474,8.983,8.983,0,0,0,1.784,4.128,11.6,11.6,0,0,0,1.389,1.386,8.64,8.64,0,0,0,9.17.961A8.978,8.978,0,0,0,101.074,1301.6Zm-4.764.247a7.433,7.433,0,1,1,7.433-7.433A7.432,7.432,0,0,1,96.311,1301.843Z" transform="translate(-87.719 -1285.806)"/>
</svg>
