<svg xmlns="http://www.w3.org/2000/svg" xmlns:xlink="http://www.w3.org/1999/xlink" width="669" height="75" viewBox="0 0 669 75">
  <defs>
    <filter id="Rectangle_4" x="0" y="0" width="669" height="75" filterUnits="userSpaceOnUse">
      <feOffset dx="2" dy="2" input="SourceAlpha"/>
      <feGaussianBlur stdDeviation="2" result="blur"/>
      <feFlood flood-opacity="0.161"/>
      <feComposite operator="in" in2="blur"/>
      <feComposite in="SourceGraphic"/>
    </filter>
  </defs>
  <g id="menu:_history" data-name="menu: history" transform="translate(4 4)">
    <rect id="Rectangle_47" data-name="Rectangle 47" width="520" height="63" transform="translate(136)" fill="none"/>
    <g id="search_memories" data-name="search memories">
      <g transform="matrix(1, 0, 0, 1, -4, -4)" filter="url(#Rectangle_4)">
        <rect id="Rectangle_4-2" data-name="Rectangle 4" width="657" height="63" rx="22" transform="translate(4 4)" fill="#fff"/>
      </g>
      <text id="history" transform="translate(103 21)" fill="#999" font-size="15" font-family="OpenSans-Regular, Open Sans"><tspan x="0" y="16">history</tspan></text>
      <g id="magnifying_glass" transform="translate(185.357 22.359)">
        <path id="Path_472" data-name="Path 472" d="M101.074,1301.6a3.693,3.693,0,0,1,.446-.271l.128-.031c.132,0,.132,0,2.253,2.1l.114.115c2.019,2.018,2.052,2.051,2.445,2.051h.019a.957.957,0,0,0,1-.906v-.1c0-.406,0-.406-2.074-2.477l-.111-.111c-2.221-2.221-2.221-2.221-2.006-2.482a7.181,7.181,0,0,0,.751-1.257,8.6,8.6,0,0,0-.489-8.505,8.73,8.73,0,0,0-2.547-2.536,8.587,8.587,0,0,0-3.4-1.295,14.258,14.258,0,0,0-1.935-.084,8.761,8.761,0,0,0-4.537,1.726,11.021,11.021,0,0,0-1.68,1.681,8.812,8.812,0,0,0-1.66,3.965,11.243,11.243,0,0,0,0,2.474,8.983,8.983,0,0,0,1.784,4.128,11.6,11.6,0,0,0,1.389,1.386,8.64,8.64,0,0,0,9.17.961A8.978,8.978,0,0,0,101.074,1301.6Zm-4.764.247a7.433,7.433,0,1,1,7.433-7.433A7.432,7.432,0,0,1,96.311,1301.843Z" transform="translate(-87.719 -1285.806)"/>
      </g>
    </g>
    <g id="sorting" transform="translate(604.999 21)">
      <g id="sorting-2" data-name="sorting">
        <path id="Path_78" data-name="Path 78" d="M411.419,1301.721l-.478-.529a.639.639,0,0,0-.932-.032l-.031.032-2.343,2.573v-17.292a.717.717,0,0,0-.682-.747h-.681a.718.718,0,0,0-.682.747v17.292l-2.342-2.573a.64.64,0,0,0-.932-.032l-.031.032-.477.529a.8.8,0,0,0,0,1.058l4.327,4.753a.637.637,0,0,0,.931.034l.032-.034,4.326-4.753A.8.8,0,0,0,411.419,1301.721Z" transform="translate(-389.098 -1285.726)"/>
        <rect id="Rectangle_135" data-name="Rectangle 135" width="8.296" height="2.044" rx="1.022" transform="translate(0 10.038)"/>
        <rect id="Rectangle_136" data-name="Rectangle 136" width="7.017" height="2.044" rx="1.022" transform="translate(0 15.004)"/>
        <rect id="Rectangle_137" data-name="Rectangle 137" width="5.739" height="2.044" rx="1.022" transform="translate(0 19.97)"/>
        <rect id="Rectangle_138" data-name="Rectangle 138" width="9.575" height="2.044" rx="1.022" transform="translate(0 5.073)"/>
        <rect id="Rectangle_139" data-name="Rectangle 139" width="10.854" height="2.044" rx="1.022" transform="translate(0 0.102)"/>
      </g>
    </g>
    <g id="views_list" data-name="views list" transform="translate(491.993 21)">
      <g id="views_list-2" data-name="views list" transform="translate(-284.291 -1285.807)">
        <g id="Group_300" data-name="Group 300" transform="translate(284.291 1285.807)">
          <g id="Group_299" data-name="Group 299">
            <path id="Rectangle_126" data-name="Rectangle 126" d="M1.11,0h.766A1.111,1.111,0,0,1,2.986,1.111v.967a1.11,1.11,0,0,1-1.11,1.11H1.11A1.11,1.11,0,0,1,0,2.078V1.11A1.11,1.11,0,0,1,1.11,0Z"/>
            <path id="Rectangle_127" data-name="Rectangle 127" d="M1.11,0H16.028a1.11,1.11,0,0,1,1.11,1.11v.967a1.111,1.111,0,0,1-1.111,1.111H1.11A1.11,1.11,0,0,1,0,2.078V1.11A1.11,1.11,0,0,1,1.11,0Z" transform="translate(5.043)"/>
            <path id="Rectangle_128" data-name="Rectangle 128" d="M1.11,0h.767a1.11,1.11,0,0,1,1.11,1.11v.968a1.11,1.11,0,0,1-1.11,1.11H1.111A1.111,1.111,0,0,1,0,2.077V1.11A1.11,1.11,0,0,1,1.11,0Z" transform="translate(0 9.393)"/>
            <path id="Rectangle_129" data-name="Rectangle 129" d="M1.111,0H16.028a1.11,1.11,0,0,1,1.11,1.11v.968a1.11,1.11,0,0,1-1.11,1.11H1.11A1.11,1.11,0,0,1,0,2.078V1.111A1.111,1.111,0,0,1,1.111,0Z" transform="translate(5.043 9.393)"/>
            <path id="Rectangle_130" data-name="Rectangle 130" d="M1.11,0h.766A1.111,1.111,0,0,1,2.986,1.111v.949a1.11,1.11,0,0,1-1.11,1.11H1.11A1.11,1.11,0,0,1,0,2.06V1.11A1.11,1.11,0,0,1,1.11,0Z" transform="translate(0 18.794)"/>
            <path id="Rectangle_131" data-name="Rectangle 131" d="M1.11,0H16.028a1.11,1.11,0,0,1,1.11,1.11v.949a1.111,1.111,0,0,1-1.111,1.111H1.11A1.11,1.11,0,0,1,0,2.059V1.11A1.11,1.11,0,0,1,1.11,0Z" transform="translate(5.043 18.794)"/>
          </g>
        </g>
      </g>
    </g>
    <g id="views_squares_4" data-name="views squares 4" transform="translate(379 21)">
      <g id="views_squares_4-2" data-name="views squares 4" transform="translate(-136.895 -1285.807)">
        <g id="Group_303" data-name="Group 303" transform="translate(136.895 1285.807)">
          <g id="Group_302" data-name="Group 302">
            <g id="Group_301" data-name="Group 301">
              <path id="Path_286" data-name="Path 286" d="M139.068,1294.849h4.686a2.173,2.173,0,0,0,2.173-2.173v-4.7a2.173,2.173,0,0,0-2.173-2.173h-4.686a2.173,2.173,0,0,0-2.173,2.173v4.7A2.173,2.173,0,0,0,139.068,1294.849Z" transform="translate(-136.895 -1285.807)"/>
              <path id="Path_287" data-name="Path 287" d="M153.952,1287.331v5.985a1.523,1.523,0,0,0,1.523,1.523h5.986a1.523,1.523,0,0,0,1.523-1.523v-5.985a1.524,1.524,0,0,0-1.523-1.524h-5.986A1.524,1.524,0,0,0,153.952,1287.331Z" transform="translate(-139.865 -1285.807)"/>
              <path id="Path_288" data-name="Path 288" d="M139.068,1310.5h4.686a2.174,2.174,0,0,0,2.173-2.174v-4.686a2.173,2.173,0,0,0-2.173-2.173h-4.686a2.173,2.173,0,0,0-2.173,2.173v4.686A2.174,2.174,0,0,0,139.068,1310.5Z" transform="translate(-136.895 -1288.533)"/>
              <path id="Path_289" data-name="Path 289" d="M156.125,1310.5h4.686a2.174,2.174,0,0,0,2.173-2.174v-4.686a2.173,2.173,0,0,0-2.173-2.173h-4.686a2.173,2.173,0,0,0-2.173,2.173v4.686A2.174,2.174,0,0,0,156.125,1310.5Z" transform="translate(-139.865 -1288.533)"/>
            </g>
          </g>
        </g>
      </g>
    </g>
    <g id="view_squares_9" data-name="view squares 9" transform="translate(436 21.002)">
      <g id="view_squares_9-2" data-name="view squares 9" transform="translate(-192.395 -1285.957)">
        <rect id="Rectangle_117" data-name="Rectangle 117" width="6.352" height="6.351" rx="0.883" transform="translate(192.395 1285.957)"/>
        <rect id="Rectangle_118" data-name="Rectangle 118" width="6.362" height="6.351" rx="0.883" transform="translate(200.172 1285.957)"/>
        <rect id="Rectangle_119" data-name="Rectangle 119" width="6.352" height="6.351" rx="0.883" transform="translate(207.988 1285.957)"/>
        <rect id="Rectangle_120" data-name="Rectangle 120" width="6.352" height="6.351" rx="0.883" transform="translate(192.395 1293.764)"/>
        <rect id="Rectangle_121" data-name="Rectangle 121" width="6.362" height="6.351" rx="0.883" transform="translate(200.172 1293.764)"/>
        <rect id="Rectangle_122" data-name="Rectangle 122" width="6.352" height="6.351" rx="0.883" transform="translate(207.988 1293.764)"/>
        <rect id="Rectangle_123" data-name="Rectangle 123" width="6.352" height="6.36" rx="0.883" transform="translate(192.395 1301.561)"/>
        <rect id="Rectangle_124" data-name="Rectangle 124" width="6.362" height="6.36" rx="0.883" transform="translate(200.172 1301.561)"/>
        <rect id="Rectangle_125" data-name="Rectangle 125" width="6.352" height="6.36" rx="0.883" transform="translate(207.988 1301.561)"/>
      </g>
    </g>
    <g id="filters" transform="translate(548 21)">
      <g id="Group_640" data-name="Group 640">
        <g id="Group_640-2" data-name="Group 640">
          <rect id="Rectangle_132" data-name="Rectangle 132" width="23.318" height="2.594" rx="1.151" transform="translate(0 1.699)"/>
          <circle id="Ellipse_30" data-name="Ellipse 30" cx="2.996" cy="2.996" r="2.996" transform="translate(3.394)"/>
        </g>
        <g id="Group_641" data-name="Group 641" transform="translate(0 8.664)">
          <rect id="Rectangle_133" data-name="Rectangle 133" width="23.318" height="2.594" rx="1.151" transform="translate(23.318 4.293) rotate(180)"/>
          <circle id="Ellipse_31" data-name="Ellipse 31" cx="2.996" cy="2.996" r="2.996" transform="translate(13.932 0)"/>
        </g>
        <g id="Group_642" data-name="Group 642" transform="translate(0 17.328)">
          <rect id="Rectangle_134" data-name="Rectangle 134" width="23.318" height="2.594" rx="1.151" transform="translate(23.318 4.293) rotate(-180)"/>
          <circle id="Ellipse_32" data-name="Ellipse 32" cx="2.996" cy="2.996" r="2.996" transform="translate(7.389)"/>
        </g>
      </g>
    </g>
  </g>
</svg>
