<svg width="13" height="18" viewBox="0 0 13 18" fill="none" xmlns="http://www.w3.org/2000/svg">
<g clip-path="url(#clip0_2029_6187)">
<path d="M2.818 8.95502C2.818 9.83315 3.16684 10.6753 3.78777 11.2962C4.40871 11.9171 5.25087 12.266 6.12901 12.266C7.00714 12.266 7.84929 11.9171 8.47022 11.2962C9.09116 10.6753 9.43999 9.83315 9.43999 8.95502V3.14099C9.39088 2.2939 9.02065 1.49742 8.40472 0.913818C7.78878 0.330214 6.97349 0.00341303 6.12499 0H6.05799C5.63463 3.75748e-05 5.21564 0.085527 4.8261 0.251343C4.43656 0.417159 4.08449 0.659916 3.79099 0.965027C3.4779 1.26838 3.2301 1.63248 3.06278 2.03503C2.89547 2.43759 2.81217 2.87012 2.818 3.30603V8.95502Z" fill="#999999"/>
<path d="M12.261 7.53902C12.2624 7.47557 12.251 7.41247 12.2274 7.35353C12.2039 7.2946 12.1687 7.24103 12.124 7.196C12.079 7.14961 12.0253 7.11264 11.9659 7.08723C11.9065 7.06183 11.8426 7.04847 11.778 7.04799C11.6497 7.04905 11.5271 7.10088 11.4369 7.19215C11.3468 7.28343 11.2965 7.4067 11.297 7.53499V8.95003C11.2954 10.3179 10.7514 11.6293 9.78427 12.5966C8.81714 13.5639 7.50586 14.1081 6.138 14.11C5.46044 14.1099 4.78954 13.9762 4.16365 13.7167C3.53776 13.4572 2.96916 13.0768 2.49033 12.5974C2.01149 12.118 1.63182 11.549 1.37302 10.9228C1.11421 10.2966 0.981338 9.62558 0.981995 8.94801V7.53603C0.981995 7.4066 0.930583 7.28245 0.839066 7.19093C0.747548 7.09942 0.623429 7.04799 0.494003 7.04799C0.364578 7.04799 0.240459 7.09942 0.148941 7.19093C0.0574234 7.28245 0.00599684 7.4066 0.00599684 7.53603V8.951C0.00567648 10.4591 0.561633 11.9142 1.56741 13.0379C2.57319 14.1616 3.95812 14.8748 5.457 15.041L5.657 15.062V16.934H2.61301C2.48358 16.934 2.35945 16.9854 2.26793 17.0769C2.17641 17.1684 2.125 17.2926 2.125 17.422C2.125 17.5514 2.17641 17.6755 2.26793 17.767C2.35945 17.8586 2.48358 17.91 2.61301 17.91H9.67101C9.80043 17.91 9.92455 17.8586 10.0161 17.767C10.1076 17.6755 10.159 17.5514 10.159 17.422C10.159 17.2926 10.1076 17.1684 10.0161 17.0769C9.92455 16.9854 9.80043 16.934 9.67101 16.934H6.627V15.062L6.827 15.041C8.32553 14.8744 9.71007 14.1612 10.7157 13.0379C11.7214 11.9145 12.2776 10.4597 12.278 8.95198L12.261 7.53902Z" fill="#999999"/>
</g>
<defs>
<clipPath id="clip0_2029_6187">
<rect width="12.264" height="17.915" fill="white"/>
</clipPath>
</defs>
</svg>
