<svg xmlns="http://www.w3.org/2000/svg" id="microphone" width="12.264" height="17.915" viewBox="0 0 12.264 17.915">
  <g id="microphone-2" data-name="microphone" transform="translate(-151.476 -966.25)">
    <g id="mic" transform="translate(151.476 966.25)">
      <g id="Group_639" data-name="Group 639">
        <path id="Path_468" data-name="Path 468" d="M155.315,975.205a3.311,3.311,0,1,0,6.622,0v-5.814a3.334,3.334,0,0,0-3.315-3.141h-.067a3.146,3.146,0,0,0-2.267.965,3.2,3.2,0,0,0-.973,2.341Z" transform="translate(-152.497 -966.25)" fill="#f44336"/>
        <path id="Path_469" data-name="Path 469" d="M163.737,976.343A.472.472,0,0,0,163.6,976a.487.487,0,0,0-.346-.148h0a.485.485,0,0,0-.481.487v1.415a5.166,5.166,0,0,1-5.159,5.16,5.157,5.157,0,0,1-5.156-5.162v-1.412a.488.488,0,1,0-.976,0v1.415a6.126,6.126,0,0,0,5.451,6.09l.2.021v1.872h-3.044a.488.488,0,0,0,0,.976h7.058a.488.488,0,0,0,0-.976h-3.044v-1.872l.2-.021a6.128,6.128,0,0,0,5.451-6.089Z" transform="translate(-151.476 -968.804)" fill="#f44336"/>
      </g>
    </g>
  </g>
</svg>