<svg id="mixing_bowl" data-name="mixing bowl" xmlns="http://www.w3.org/2000/svg" width="50.506" height="43.944" viewBox="0 0 50.506 43.944">
  <g id="Group_762" data-name="Group 762" transform="translate(-591.065 -1221.934)">
    <path id="Path_602" data-name="Path 602" d="M600.848,1230.476a4.555,4.555,0,1,0,4.554-4.554A4.56,4.56,0,0,0,600.848,1230.476Zm4.554-2.655a2.656,2.656,0,1,1-2.655,2.655A2.66,2.66,0,0,1,605.4,1227.821Z" transform="translate(4.497 1.833)"/>
    <path id="Path_603" data-name="Path 603" d="M600.789,1229.354a3.71,3.71,0,1,0-3.711-3.71A3.715,3.715,0,0,0,600.789,1229.354Zm0-5.522a1.811,1.811,0,1,1-1.813,1.811A1.812,1.812,0,0,1,600.789,1223.832Z" transform="translate(2.765 0)"/>
    <path id="Path_604" data-name="Path 604" d="M595.056,1231.089a2.79,2.79,0,1,0-2.789-2.79A2.792,2.792,0,0,0,595.056,1231.089Zm0-3.68a.89.89,0,1,1-.89.89A.88.88,0,0,1,595.056,1227.409Z" transform="translate(0.553 1.644)"/>
    <path id="Path_605" data-name="Path 605" d="M641.229,1229.3a9.584,9.584,0,0,0-2.331-3.484c-2.737-2.709-5.805-3.44-7.475-1.773a3.446,3.446,0,0,0-.718,3.281c-1.458,1.264-5.115,4.433-14.245,12.381H591.27l-.111.822c-.021.143-1.8,14.309,11.054,19.221a3.66,3.66,0,0,1,.209.521,3.033,3.033,0,0,0-2.258,2.616c.075,2.238,3.656,2.387,4.872,2.436h18.275c1.174-.048,4.743-.2,4.82-2.433a3.029,3.029,0,0,0-2.241-2.614,3.886,3.886,0,0,1,.209-.525c12.867-4.912,11.089-19.077,11.069-19.22l-.111-.822h-4.6c2.727-3.13,4.178-4.8,4.935-5.681a3.365,3.365,0,0,0,3.3-.739C641.135,1232.837,642.076,1231.558,641.229,1229.3Zm-5.868,12.3c.171,2.94-.057,12.8-10.253,16.486l-.32.115-.175.293c-.308.521-.974,1.833-.5,2.782a1.475,1.475,0,0,0,1.209.8,1.878,1.878,0,0,1,.924.679c0,.006-.423.553-2.978.658h-18.2c-2.46-.1-2.972-.6-3.014-.6h0a1.582,1.582,0,0,1,.918-.743,1.484,1.484,0,0,0,1.225-.809c.474-.956-.2-2.266-.514-2.784l-.174-.289-.314-.114c-10.178-3.683-10.406-13.544-10.235-16.486h42.4Zm3.986-9.662c-.524.53-1.436.292-1.931.1l-.629-.238-.433.513c-.647.763-2.3,2.671-6.412,7.386H619.348c8.008-6.969,11.289-9.812,12.635-10.978l.918-.8-.22-.613a1.9,1.9,0,0,1,.1-1.946c.727-.726,2.716-.257,4.783,1.788a7.837,7.837,0,0,1,1.881,2.776l.007.022C639.781,1230.837,639.746,1231.542,639.347,1231.939Z" transform="translate(0 0.56)"/>
  </g>
</svg>
