<svg id="notification" xmlns="http://www.w3.org/2000/svg" width="16.774" height="18.086" viewBox="0 0 16.774 18.086">
  <path id="Subtraction_1" data-name="Subtraction 1" d="M203.363,1085.711a2.536,2.536,0,0,1-2.483-2.073l-.025-.141h-4.68a1.188,1.188,0,0,1-1.179-1.185V1082a2.161,2.161,0,0,1,.464-1.411,2.23,2.23,0,0,1,1.287-.789c.208-.086.693-.332.693-.745v-5.343a4.793,4.793,0,0,1,4.018-4.673l.1-.017.031-.1a1.827,1.827,0,0,1,.446-.747,1.782,1.782,0,0,1,1.283-.543h.119a1.788,1.788,0,0,1,1.272.54,1.937,1.937,0,0,1,.447.748l.032.1.1.018a4.791,4.791,0,0,1,4.019,4.676v5.36a.85.85,0,0,0,.728.806,2.21,2.21,0,0,1,1.726,2.123v.313a1.182,1.182,0,0,1-1.173,1.184h-4.7l-.025.14a2.545,2.545,0,0,1-2.031,2.035A2.518,2.518,0,0,1,203.363,1085.711Zm-1.515-2.206.091.232a1.519,1.519,0,0,0,2.835,0l.089-.232h-3.014Zm.179-13.515c-.028,0-.071,0-.123.008a3.76,3.76,0,0,0-3.464,3.708v5.341a1.83,1.83,0,0,1-1.3,1.715,2.178,2.178,0,0,0-.788.365,1.079,1.079,0,0,0-.354.881v.483h14.752l.014-.48a1.123,1.123,0,0,0-.4-.887,2.158,2.158,0,0,0-.739-.362,1.787,1.787,0,0,1-1.31-1.712V1073.7a3.758,3.758,0,0,0-3.467-3.705s-.085-.008-.126-.008h-.493l.011-.515a.836.836,0,0,0-.241-.6.927.927,0,0,0-.609-.242h-.012a.914.914,0,0,0-.619.243.817.817,0,0,0-.242.6l.01.514Z" transform="translate(-194.994 -1067.625)"/>
</svg>
