<svg xmlns="http://www.w3.org/2000/svg" xmlns:xlink="http://www.w3.org/1999/xlink" width="460" height="603" viewBox="0 0 460 603">
  <defs>
    <filter id="Rectangle_81" x="0" y="0" width="460" height="603" filterUnits="userSpaceOnUse">
      <feOffset dx="2" dy="2" input="SourceAlpha"/>
      <feGaussianBlur stdDeviation="2" result="blur"/>
      <feFlood flood-opacity="0.161"/>
      <feComposite operator="in" in2="blur"/>
      <feComposite in="SourceGraphic"/>
    </filter>
  </defs>
  <g id="overlay:_collections" data-name="overlay: collections" transform="translate(4 4)">
    <g transform="matrix(1, 0, 0, 1, -4, -4)" filter="url(#Rectangle_81)">
      <rect id="Rectangle_81-2" data-name="Rectangle 81" width="448" height="591" rx="22" transform="translate(4 4)" fill="#fff"/>
    </g>
    <path id="Path_374" data-name="Path 374" d="M10.169,10.052A.3.3,0,0,0,10,10.39a14.269,14.269,0,0,0,1.566,1.627l1.557,1.557L11.57,15.131C9.883,16.821,9.968,16.724,10,16.9a.356.356,0,0,0,.223.223c.169.03.075.117,1.765-1.569l1.557-1.557L15.1,15.55c1.687,1.687,1.59,1.6,1.762,1.569a.356.356,0,0,0,.223-.223c.03-.169.117-.075-1.569-1.765l-1.56-1.554,1.557-1.557c1.687-1.687,1.6-1.59,1.569-1.762a.356.356,0,0,0-.223-.223c-.169-.03-.075-.117-1.765,1.569l-1.554,1.557-1.548-1.548c-.868-.868-1.572-1.557-1.6-1.566A.308.308,0,0,0,10.169,10.052Z" transform="translate(409.5 7.417)"/>
    <text id="collections" transform="translate(94 93)" font-size="15" font-family="OpenSans-Regular, Open Sans"><tspan x="89.553" y="16">collections</tspan></text>
    <g id="Rectangle_68" data-name="Rectangle 68" transform="translate(41 216)" fill="#fff" stroke="#999" stroke-width="1">
      <rect width="363" height="63" rx="22" stroke="none"/>
      <rect x="0.5" y="0.5" width="362" height="62" rx="21.5" fill="none"/>
    </g>
    <g id="Rectangle_86" data-name="Rectangle 86" transform="translate(41 138)" fill="#fff" stroke="#999" stroke-width="1">
      <rect width="363" height="63" rx="22" stroke="none"/>
      <rect x="0.5" y="0.5" width="362" height="62" rx="21.5" fill="none"/>
    </g>
    <g id="Rectangle_69" data-name="Rectangle 69" transform="translate(41 299)" fill="#fff" stroke="#999" stroke-width="1">
      <rect width="363" height="63" rx="22" stroke="none"/>
      <rect x="0.5" y="0.5" width="362" height="62" rx="21.5" fill="none"/>
    </g>
    <g id="Rectangle_70" data-name="Rectangle 70" transform="translate(41 382)" fill="#fff" stroke="#999" stroke-width="1">
      <rect width="363" height="63" rx="22" stroke="none"/>
      <rect x="0.5" y="0.5" width="362" height="62" rx="21.5" fill="none"/>
    </g>
    <g id="Rectangle_85" data-name="Rectangle 85" transform="translate(41 464)" fill="#fff" stroke="#999" stroke-width="1">
      <rect width="363" height="63" rx="22" stroke="none"/>
      <rect x="0.5" y="0.5" width="362" height="62" rx="21.5" fill="none"/>
    </g>
    <g id="Radio_copy" data-name="Radio copy" transform="translate(66 241.166)">
      <g id="Group_351" data-name="Group 351" transform="translate(0 0)">
        <path id="Path_316" data-name="Path 316" d="M16.334,10a6.334,6.334,0,1,0,6.334,6.334A6.332,6.332,0,0,0,16.334,10Zm0,12.035a5.7,5.7,0,1,1,5.7-5.7A5.7,5.7,0,0,1,16.334,22.035Zm-3.484-5.7h0a3.484,3.484,0,0,0,6.967,0h0a3.484,3.484,0,0,0-6.967,0Z" transform="translate(-10 -10)"/>
      </g>
    </g>
    <text id="title" transform="translate(94 236)" font-size="15" font-family="OpenSans-Regular, Open Sans"><tspan x="0" y="16">title</tspan></text>
    <text id="enter_collection_name" data-name="enter collection name" transform="translate(66 158)" fill="#999" font-size="15" font-family="OpenSans-Regular, Open Sans"><tspan x="0" y="16">enter collection name</tspan></text>
    <text id="dish" transform="translate(94 319)" font-size="15" font-family="OpenSans-Regular, Open Sans"><tspan x="0" y="16">dish</tspan></text>
    <text id="breakfast" transform="translate(94 402)" font-size="15" font-family="OpenSans-Regular, Open Sans"><tspan x="0" y="16">breakfast</tspan></text>
    <text id="meat" transform="translate(94 484)" font-size="15" font-family="OpenSans-Regular, Open Sans"><tspan x="0" y="16">meat</tspan></text>
    <g id="radio" transform="translate(66.204 324)">
      <g id="Group_352" data-name="Group 352" transform="translate(0 0)">
        <path id="Path_317" data-name="Path 317" d="M16.334,10.87a5.411,5.411,0,0,1,2.126.429,5.516,5.516,0,0,1,1.739,1.17,5.471,5.471,0,0,1,1.17,5.99A5.516,5.516,0,0,1,20.2,20.2a5.471,5.471,0,0,1-5.99,1.17,5.516,5.516,0,0,1-1.739-1.17,5.471,5.471,0,0,1-1.17-5.99,5.516,5.516,0,0,1,1.17-1.739,5.462,5.462,0,0,1,3.865-1.6m0-.87a6.334,6.334,0,1,0,6.334,6.334A6.332,6.332,0,0,0,16.334,10Z" transform="translate(-10 -10)"/>
      </g>
    </g>
    <g id="radio-2" data-name="radio" transform="translate(66.204 407)">
      <g id="Group_352-2" data-name="Group 352" transform="translate(0 0)">
        <path id="Path_317-2" data-name="Path 317" d="M16.334,10.87a5.411,5.411,0,0,1,2.126.429,5.516,5.516,0,0,1,1.739,1.17,5.471,5.471,0,0,1,1.17,5.99A5.516,5.516,0,0,1,20.2,20.2a5.471,5.471,0,0,1-5.99,1.17,5.516,5.516,0,0,1-1.739-1.17,5.471,5.471,0,0,1-1.17-5.99,5.516,5.516,0,0,1,1.17-1.739,5.462,5.462,0,0,1,3.865-1.6m0-.87a6.334,6.334,0,1,0,6.334,6.334A6.332,6.332,0,0,0,16.334,10Z" transform="translate(-10 -10)"/>
      </g>
    </g>
    <g id="radio-3" data-name="radio" transform="translate(66.204 489)">
      <g id="Group_352-3" data-name="Group 352" transform="translate(0 0)">
        <path id="Path_317-3" data-name="Path 317" d="M16.334,10.87a5.411,5.411,0,0,1,2.126.429,5.516,5.516,0,0,1,1.739,1.17,5.471,5.471,0,0,1,1.17,5.99A5.516,5.516,0,0,1,20.2,20.2a5.471,5.471,0,0,1-5.99,1.17,5.516,5.516,0,0,1-1.739-1.17,5.471,5.471,0,0,1-1.17-5.99,5.516,5.516,0,0,1,1.17-1.739,5.462,5.462,0,0,1,3.865-1.6m0-.87a6.334,6.334,0,1,0,6.334,6.334A6.332,6.332,0,0,0,16.334,10Z" transform="translate(-10 -10)"/>
      </g>
    </g>
    <g id="Rectangle_82" data-name="Rectangle 82" transform="translate(66 241)" fill="#fff" stroke="#000" stroke-width="1">
      <rect width="13" height="13" stroke="none"/>
      <rect x="0.5" y="0.5" width="12" height="12" fill="none"/>
    </g>
    <g id="Rectangle_83" data-name="Rectangle 83" transform="translate(66 324)" fill="#fff" stroke="#000" stroke-width="1">
      <rect width="13" height="13" stroke="none"/>
      <rect x="0.5" y="0.5" width="12" height="12" fill="none"/>
    </g>
    <g id="Rectangle_84" data-name="Rectangle 84" transform="translate(66 407)" fill="#fff" stroke="#000" stroke-width="1">
      <rect width="13" height="13" stroke="none"/>
      <rect x="0.5" y="0.5" width="12" height="12" fill="none"/>
    </g>
    <g id="Rectangle_85-2" data-name="Rectangle 85" transform="translate(66 489)" fill="#fff" stroke="#000" stroke-width="1">
      <rect width="13" height="13" stroke="none"/>
      <rect x="0.5" y="0.5" width="12" height="12" fill="none"/>
    </g>
    <g id="check" transform="translate(56.913 209.742)">
      <g id="Group_358" data-name="Group 358" transform="translate(10 30)">
        <g id="Group_357" data-name="Group 357" transform="translate(0 0)">
          <path id="Path_319" data-name="Path 319" d="M18.583,33.541l-3.535,3.541-1.207-1.207-1.2-1.2-1.32,1.32L10,37.313l2.49,2.49c1.552,1.551,2.5,2.477,2.515,2.459s.044-.025.075-.019.982-.907,4.873-4.792l4.817-4.811-1.32-1.32L22.124,30Z" transform="translate(-10 -30)"/>
        </g>
      </g>
    </g>
    <g id="check-2" data-name="check" transform="translate(56.913 292.742)">
      <g id="Group_358-2" data-name="Group 358" transform="translate(10 30)">
        <g id="Group_357-2" data-name="Group 357" transform="translate(0 0)">
          <path id="Path_319-2" data-name="Path 319" d="M18.583,33.541l-3.535,3.541-1.207-1.207-1.2-1.2-1.32,1.32L10,37.313l2.49,2.49c1.552,1.551,2.5,2.477,2.515,2.459s.044-.025.075-.019.982-.907,4.873-4.792l4.817-4.811-1.32-1.32L22.124,30Z" transform="translate(-10 -30)"/>
        </g>
      </g>
    </g>
    <g id="check-3" data-name="check" transform="translate(56.913 375.742)">
      <g id="Group_358-3" data-name="Group 358" transform="translate(10 30)">
        <g id="Group_357-3" data-name="Group 357" transform="translate(0 0)">
          <path id="Path_319-3" data-name="Path 319" d="M18.583,33.541l-3.535,3.541-1.207-1.207-1.2-1.2-1.32,1.32L10,37.313l2.49,2.49c1.552,1.551,2.5,2.477,2.515,2.459s.044-.025.075-.019.982-.907,4.873-4.792l4.817-4.811-1.32-1.32L22.124,30Z" transform="translate(-10 -30)"/>
        </g>
      </g>
    </g>
    <g id="magnifying_glass" transform="translate(364.042 162.848)">
      <path id="Path_472" data-name="Path 472" d="M101.074,1301.6a3.693,3.693,0,0,1,.446-.271l.128-.031c.132,0,.132,0,2.253,2.1l.114.115c2.019,2.018,2.052,2.051,2.445,2.051h.019a.957.957,0,0,0,1-.906v-.1c0-.406,0-.406-2.074-2.477l-.111-.111c-2.221-2.221-2.221-2.221-2.006-2.482a7.181,7.181,0,0,0,.751-1.257,8.6,8.6,0,0,0-.489-8.505,8.73,8.73,0,0,0-2.547-2.536,8.587,8.587,0,0,0-3.4-1.295,14.258,14.258,0,0,0-1.935-.084,8.761,8.761,0,0,0-4.537,1.726,11.021,11.021,0,0,0-1.68,1.681,8.812,8.812,0,0,0-1.66,3.965,11.243,11.243,0,0,0,0,2.474,8.983,8.983,0,0,0,1.784,4.128,11.6,11.6,0,0,0,1.389,1.386,8.64,8.64,0,0,0,9.17.961A8.978,8.978,0,0,0,101.074,1301.6Zm-4.764.247a7.433,7.433,0,1,1,7.433-7.433A7.432,7.432,0,0,1,96.311,1301.843Z" transform="translate(-87.719 -1285.806)"/>
    </g>
    <g id="trash_copy_2" data-name="trash copy 2" transform="translate(373.219 238.264)">
      <path id="Path_473" data-name="Path 473" d="M143.667,1085.216h9.257a1.3,1.3,0,0,0,1.3-1.289v-11.459l.046-.016a1.29,1.29,0,0,0,.877-1.219v-.9a1.3,1.3,0,0,0-1.3-1.3h-3.31v-.52a1.3,1.3,0,0,0-1.3-1.293h-1.88a1.3,1.3,0,0,0-1.3,1.284v.527h-3.307a1.3,1.3,0,0,0-1.3,1.29v.9a1.288,1.288,0,0,0,.876,1.219l.046.016v11.46A1.3,1.3,0,0,0,143.667,1085.216Zm9.775-1.292a.521.521,0,0,1-.521.52h-9.253a.521.521,0,0,1-.519-.511v-11.4h1.946v9.577a.461.461,0,1,0,.922,0v-9.577h1.819v9.577a.461.461,0,1,0,.921,0v-9.577h1.819v9.577a.463.463,0,0,0,.461.461h0a.458.458,0,0,0,.456-.452v-9.587h1.944Zm-6.6-15.409a.521.521,0,0,1,.521-.521h1.864a.522.522,0,0,1,.519.512v.529h-2.9Zm-4.616,2.729v-.912a.521.521,0,0,1,.521-.52h11.1a.52.52,0,0,1,.519.512v.911a.521.521,0,0,1-.521.521H142.749A.521.521,0,0,1,142.229,1071.244Z" transform="translate(-141.441 -1067.222)"/>
    </g>
    <g id="trash_copy_2-2" data-name="trash copy 2" transform="translate(373.219 322.264)">
      <path id="Path_473-2" data-name="Path 473" d="M143.667,1085.216h9.257a1.3,1.3,0,0,0,1.3-1.289v-11.459l.046-.016a1.29,1.29,0,0,0,.877-1.219v-.9a1.3,1.3,0,0,0-1.3-1.3h-3.31v-.52a1.3,1.3,0,0,0-1.3-1.293h-1.88a1.3,1.3,0,0,0-1.3,1.284v.527h-3.307a1.3,1.3,0,0,0-1.3,1.29v.9a1.288,1.288,0,0,0,.876,1.219l.046.016v11.46A1.3,1.3,0,0,0,143.667,1085.216Zm9.775-1.292a.521.521,0,0,1-.521.52h-9.253a.521.521,0,0,1-.519-.511v-11.4h1.946v9.577a.461.461,0,1,0,.922,0v-9.577h1.819v9.577a.461.461,0,1,0,.921,0v-9.577h1.819v9.577a.463.463,0,0,0,.461.461h0a.458.458,0,0,0,.456-.452v-9.587h1.944Zm-6.6-15.409a.521.521,0,0,1,.521-.521h1.864a.522.522,0,0,1,.519.512v.529h-2.9Zm-4.616,2.729v-.912a.521.521,0,0,1,.521-.52h11.1a.52.52,0,0,1,.519.512v.911a.521.521,0,0,1-.521.521H142.749A.521.521,0,0,1,142.229,1071.244Z" transform="translate(-141.441 -1067.222)"/>
    </g>
    <g id="trash_copy_2-3" data-name="trash copy 2" transform="translate(373.219 404.264)">
      <path id="Path_473-3" data-name="Path 473" d="M143.667,1085.216h9.257a1.3,1.3,0,0,0,1.3-1.289v-11.459l.046-.016a1.29,1.29,0,0,0,.877-1.219v-.9a1.3,1.3,0,0,0-1.3-1.3h-3.31v-.52a1.3,1.3,0,0,0-1.3-1.293h-1.88a1.3,1.3,0,0,0-1.3,1.284v.527h-3.307a1.3,1.3,0,0,0-1.3,1.29v.9a1.288,1.288,0,0,0,.876,1.219l.046.016v11.46A1.3,1.3,0,0,0,143.667,1085.216Zm9.775-1.292a.521.521,0,0,1-.521.52h-9.253a.521.521,0,0,1-.519-.511v-11.4h1.946v9.577a.461.461,0,1,0,.922,0v-9.577h1.819v9.577a.461.461,0,1,0,.921,0v-9.577h1.819v9.577a.463.463,0,0,0,.461.461h0a.458.458,0,0,0,.456-.452v-9.587h1.944Zm-6.6-15.409a.521.521,0,0,1,.521-.521h1.864a.522.522,0,0,1,.519.512v.529h-2.9Zm-4.616,2.729v-.912a.521.521,0,0,1,.521-.52h11.1a.52.52,0,0,1,.519.512v.911a.521.521,0,0,1-.521.521H142.749A.521.521,0,0,1,142.229,1071.244Z" transform="translate(-141.441 -1067.222)"/>
    </g>
    <g id="trash_copy_2-4" data-name="trash copy 2" transform="translate(373.219 484.264)">
      <path id="Path_473-4" data-name="Path 473" d="M143.667,1085.216h9.257a1.3,1.3,0,0,0,1.3-1.289v-11.459l.046-.016a1.29,1.29,0,0,0,.877-1.219v-.9a1.3,1.3,0,0,0-1.3-1.3h-3.31v-.52a1.3,1.3,0,0,0-1.3-1.293h-1.88a1.3,1.3,0,0,0-1.3,1.284v.527h-3.307a1.3,1.3,0,0,0-1.3,1.29v.9a1.288,1.288,0,0,0,.876,1.219l.046.016v11.46A1.3,1.3,0,0,0,143.667,1085.216Zm9.775-1.292a.521.521,0,0,1-.521.52h-9.253a.521.521,0,0,1-.519-.511v-11.4h1.946v9.577a.461.461,0,1,0,.922,0v-9.577h1.819v9.577a.461.461,0,1,0,.921,0v-9.577h1.819v9.577a.463.463,0,0,0,.461.461h0a.458.458,0,0,0,.456-.452v-9.587h1.944Zm-6.6-15.409a.521.521,0,0,1,.521-.521h1.864a.522.522,0,0,1,.519.512v.529h-2.9Zm-4.616,2.729v-.912a.521.521,0,0,1,.521-.52h11.1a.52.52,0,0,1,.519.512v.911a.521.521,0,0,1-.521.521H142.749A.521.521,0,0,1,142.229,1071.244Z" transform="translate(-141.441 -1067.222)"/>
    </g>
    <g id="pencil" transform="translate(339.677 237.957)">
      <path id="Path_527" data-name="Path 527" d="M700.887,1072.881a.682.682,0,0,1-.006-.088v-.048c0-.5,0-.5-1.818-2.324l-.2-.2c-2.008-2-2.008-2-2.511-2.023a1.435,1.435,0,0,0-.453.044l-.009,0a1.588,1.588,0,0,0-.32.148c-.082.061-3.306,3.258-6.827,6.786-6.507,6.515-6.729,6.751-6.769,6.9a18.126,18.126,0,0,0-.039,2.362l.009,2.213.124.177a.883.883,0,0,0,.289.229l.044.013a9.178,9.178,0,0,0,2.31.073c.293.028.589.042.883.042a9.191,9.191,0,0,0,1.455-.115l.04-.012c.1-.045.613-.526,6.9-6.817l1.6-1.6C700.93,1073.295,700.93,1073.295,700.887,1072.881Zm-6.051-2.556.538-.538c.367-.367.7-.659.712-.672a.429.429,0,0,1,.358,0c.243.177,3.358,3.284,3.5,3.489a.417.417,0,0,1,.016.362,7.457,7.457,0,0,1-.692.747l-.522.522Zm-11.541,11.55,9.663-9.672.814.814-9.663,9.672Zm12.12-7.211-9.67,9.673-1.013-1.012,4.827-4.828c2.354-2.356,4.38-4.374,4.847-4.835.11.1.3.287.51.5Zm1.446,1.453-4.8,4.821c-2.49,2.491-4.436,4.422-4.87,4.836-.107-.1-.293-.282-.416-.4l-.395-.4,9.67-9.673Zm-3.265-4.549.6-.6,3.913,3.913-.6.6Zm-7.185,14.678-2.095.009-1.5-1.5v-2.1Zm-3.372.009c-.126,0-.134-.01-.164-.044s-.051-.057-.054-.171l.122.118Z" transform="translate(-681.928 -1068.192)"/>
    </g>
    <g id="pencil-2" data-name="pencil" transform="translate(339.677 321.957)">
      <path id="Path_527-2" data-name="Path 527" d="M700.887,1072.881a.682.682,0,0,1-.006-.088v-.048c0-.5,0-.5-1.818-2.324l-.2-.2c-2.008-2-2.008-2-2.511-2.023a1.435,1.435,0,0,0-.453.044l-.009,0a1.588,1.588,0,0,0-.32.148c-.082.061-3.306,3.258-6.827,6.786-6.507,6.515-6.729,6.751-6.769,6.9a18.126,18.126,0,0,0-.039,2.362l.009,2.213.124.177a.883.883,0,0,0,.289.229l.044.013a9.178,9.178,0,0,0,2.31.073c.293.028.589.042.883.042a9.191,9.191,0,0,0,1.455-.115l.04-.012c.1-.045.613-.526,6.9-6.817l1.6-1.6C700.93,1073.295,700.93,1073.295,700.887,1072.881Zm-6.051-2.556.538-.538c.367-.367.7-.659.712-.672a.429.429,0,0,1,.358,0c.243.177,3.358,3.284,3.5,3.489a.417.417,0,0,1,.016.362,7.457,7.457,0,0,1-.692.747l-.522.522Zm-11.541,11.55,9.663-9.672.814.814-9.663,9.672Zm12.12-7.211-9.67,9.673-1.013-1.012,4.827-4.828c2.354-2.356,4.38-4.374,4.847-4.835.11.1.3.287.51.5Zm1.446,1.453-4.8,4.821c-2.49,2.491-4.436,4.422-4.87,4.836-.107-.1-.293-.282-.416-.4l-.395-.4,9.67-9.673Zm-3.265-4.549.6-.6,3.913,3.913-.6.6Zm-7.185,14.678-2.095.009-1.5-1.5v-2.1Zm-3.372.009c-.126,0-.134-.01-.164-.044s-.051-.057-.054-.171l.122.118Z" transform="translate(-681.928 -1068.192)"/>
    </g>
    <g id="pencil-3" data-name="pencil" transform="translate(339.677 403.957)">
      <path id="Path_527-3" data-name="Path 527" d="M700.887,1072.881a.682.682,0,0,1-.006-.088v-.048c0-.5,0-.5-1.818-2.324l-.2-.2c-2.008-2-2.008-2-2.511-2.023a1.435,1.435,0,0,0-.453.044l-.009,0a1.588,1.588,0,0,0-.32.148c-.082.061-3.306,3.258-6.827,6.786-6.507,6.515-6.729,6.751-6.769,6.9a18.126,18.126,0,0,0-.039,2.362l.009,2.213.124.177a.883.883,0,0,0,.289.229l.044.013a9.178,9.178,0,0,0,2.31.073c.293.028.589.042.883.042a9.191,9.191,0,0,0,1.455-.115l.04-.012c.1-.045.613-.526,6.9-6.817l1.6-1.6C700.93,1073.295,700.93,1073.295,700.887,1072.881Zm-6.051-2.556.538-.538c.367-.367.7-.659.712-.672a.429.429,0,0,1,.358,0c.243.177,3.358,3.284,3.5,3.489a.417.417,0,0,1,.016.362,7.457,7.457,0,0,1-.692.747l-.522.522Zm-11.541,11.55,9.663-9.672.814.814-9.663,9.672Zm12.12-7.211-9.67,9.673-1.013-1.012,4.827-4.828c2.354-2.356,4.38-4.374,4.847-4.835.11.1.3.287.51.5Zm1.446,1.453-4.8,4.821c-2.49,2.491-4.436,4.422-4.87,4.836-.107-.1-.293-.282-.416-.4l-.395-.4,9.67-9.673Zm-3.265-4.549.6-.6,3.913,3.913-.6.6Zm-7.185,14.678-2.095.009-1.5-1.5v-2.1Zm-3.372.009c-.126,0-.134-.01-.164-.044s-.051-.057-.054-.171l.122.118Z" transform="translate(-681.928 -1068.192)"/>
    </g>
    <g id="pencil-4" data-name="pencil" transform="translate(339.677 483.957)">
      <path id="Path_527-4" data-name="Path 527" d="M700.887,1072.881a.682.682,0,0,1-.006-.088v-.048c0-.5,0-.5-1.818-2.324l-.2-.2c-2.008-2-2.008-2-2.511-2.023a1.435,1.435,0,0,0-.453.044l-.009,0a1.588,1.588,0,0,0-.32.148c-.082.061-3.306,3.258-6.827,6.786-6.507,6.515-6.729,6.751-6.769,6.9a18.126,18.126,0,0,0-.039,2.362l.009,2.213.124.177a.883.883,0,0,0,.289.229l.044.013a9.178,9.178,0,0,0,2.31.073c.293.028.589.042.883.042a9.191,9.191,0,0,0,1.455-.115l.04-.012c.1-.045.613-.526,6.9-6.817l1.6-1.6C700.93,1073.295,700.93,1073.295,700.887,1072.881Zm-6.051-2.556.538-.538c.367-.367.7-.659.712-.672a.429.429,0,0,1,.358,0c.243.177,3.358,3.284,3.5,3.489a.417.417,0,0,1,.016.362,7.457,7.457,0,0,1-.692.747l-.522.522Zm-11.541,11.55,9.663-9.672.814.814-9.663,9.672Zm12.12-7.211-9.67,9.673-1.013-1.012,4.827-4.828c2.354-2.356,4.38-4.374,4.847-4.835.11.1.3.287.51.5Zm1.446,1.453-4.8,4.821c-2.49,2.491-4.436,4.422-4.87,4.836-.107-.1-.293-.282-.416-.4l-.395-.4,9.67-9.673Zm-3.265-4.549.6-.6,3.913,3.913-.6.6Zm-7.185,14.678-2.095.009-1.5-1.5v-2.1Zm-3.372.009c-.126,0-.134-.01-.164-.044s-.051-.057-.054-.171l.122.118Z" transform="translate(-681.928 -1068.192)"/>
    </g>
    <g id="cloud_add" transform="translate(190.512 27)">
      <g id="Group_533" data-name="Group 533">
        <g id="Group_532" data-name="Group 532">
          <path id="Path_571" data-name="Path 571" d="M126.262,1434.9H91.713a.9.9,0,0,1-.546-.184l-.631-.482a14.737,14.737,0,0,1-5.458-9.727,17.727,17.727,0,0,1,1.968-10.039,10.654,10.654,0,0,1,8.121-6.158l.189-.017a20.871,20.871,0,0,1,8.67-13.411,21.016,21.016,0,0,1,23.393.007,20.755,20.755,0,0,1,8.607,13.06l.074.379.164.014a9.126,9.126,0,0,1,5.775,3,16.942,16.942,0,0,1,3.913,7.3.9.9,0,0,1-1.747.435,15.156,15.156,0,0,0-3.5-6.536,7.329,7.329,0,0,0-4.626-2.409l-.813-.075a.9.9,0,0,1-.8-.724l-.2-1.034a18.956,18.956,0,0,0-7.85-11.922,19.227,19.227,0,0,0-21.375-.005,19.06,19.06,0,0,0-7.911,12.255l-.127.666a.9.9,0,0,1-.8.728l-.81.075a8.872,8.872,0,0,0-6.724,5.161,15.96,15.96,0,0,0-1.8,9.05,12.927,12.927,0,0,0,4.777,8.511l.373.284h34.245a.9.9,0,1,1,0,1.8Z" transform="translate(-84.992 -1391.335)"/>
        </g>
        <path id="Path_572" data-name="Path 572" d="M126.221,1414.672c-.492-.492-.659-.517-3.406-.517h-2.422v-2.432a22.628,22.628,0,0,0-.084-2.746,1.728,1.728,0,0,0-1.583-1.162,1.7,1.7,0,0,0-1.583,1.162,25.081,25.081,0,0,0-.084,2.734v2.444H114.54c-2.83,0-2.914.014-3.406.575a1.611,1.611,0,0,0,.1,2.242c.492.492.659.517,3.406.517h2.424v2.432a22.244,22.244,0,0,0,.084,2.746,1.724,1.724,0,0,0,1.583,1.162,1.7,1.7,0,0,0,1.583-1.162,25.584,25.584,0,0,0,.084-2.734v-2.444h2.519c2.83,0,2.914-.014,3.406-.575A1.612,1.612,0,0,0,126.221,1414.672Z" transform="translate(-67.652 -1380.247)"/>
      </g>
    </g>
  </g>
</svg>
