<svg xmlns="http://www.w3.org/2000/svg" xmlns:xlink="http://www.w3.org/1999/xlink" width="460" height="342" viewBox="0 0 460 342">
  <defs>
    <filter id="Rectangle_106" x="0" y="0" width="460" height="342" filterUnits="userSpaceOnUse">
      <feOffset dx="2" dy="2" input="SourceAlpha"/>
      <feGaussianBlur stdDeviation="2" result="blur"/>
      <feFlood flood-opacity="0.161"/>
      <feComposite operator="in" in2="blur"/>
      <feComposite in="SourceGraphic"/>
    </filter>
    <filter id="Rectangle_4" x="163" y="172" width="128" height="75" filterUnits="userSpaceOnUse">
      <feOffset dx="2" dy="2" input="SourceAlpha"/>
      <feGaussianBlur stdDeviation="2" result="blur-2"/>
      <feFlood flood-opacity="0.161"/>
      <feComposite operator="in" in2="blur-2"/>
      <feComposite in="SourceGraphic"/>
    </filter>
  </defs>
  <g id="overlay:_warnings" data-name="overlay: warnings" transform="translate(4 4)">
    <g transform="matrix(1, 0, 0, 1, -4, -4)" filter="url(#Rectangle_106)">
      <rect id="Rectangle_106-2" data-name="Rectangle 106" width="448" height="330" rx="22" transform="translate(4 4)" fill="#fff"/>
    </g>
    <text id="Ooh_Unverified_words_may_cause_a_poor_translation." data-name="Ooh! Unverified words may cause a poor translation." transform="translate(113 93)" font-size="15" font-family="OpenSans-Regular, Open Sans"><tspan x="15.109" y="16">Ooh! Unverified words may </tspan><tspan x="23.876" y="36">cause a poor translation.</tspan></text>
    <path id="Path_395" data-name="Path 395" d="M10.169,10.052A.3.3,0,0,0,10,10.39a14.269,14.269,0,0,0,1.566,1.627l1.557,1.557L11.57,15.131C9.883,16.821,9.968,16.724,10,16.9a.356.356,0,0,0,.223.223c.169.03.075.117,1.765-1.569l1.557-1.557L15.1,15.55c1.687,1.687,1.59,1.6,1.762,1.569a.356.356,0,0,0,.223-.223c.03-.169.117-.075-1.569-1.765l-1.56-1.554,1.557-1.557c1.687-1.687,1.6-1.59,1.569-1.762a.356.356,0,0,0-.223-.223c-.169-.03-.075-.117-1.765,1.569l-1.554,1.557-1.548-1.548c-.868-.868-1.572-1.557-1.6-1.566A.308.308,0,0,0,10.169,10.052Z" transform="translate(409.5 7.418)"/>
    <g id="Group_531" data-name="Group 531" transform="translate(97 166)">
      <text id="don_t_show_this_again" data-name="don’t show this again" transform="translate(33 115)" fill="#999" font-size="15" font-family="OpenSans-Regular, Open Sans"><tspan x="35.373" y="16">don’t show this again</tspan></text>
      <g id="checkbox" transform="translate(38 109.898)">
        <g id="Group_142" data-name="Group 142" transform="translate(10 10)">
          <g id="Group_141" data-name="Group 141" transform="translate(0 0)">
            <path id="Path_148" data-name="Path 148" d="M10.271,10.068a.408.408,0,0,0-.2.2L10,10.406V24.115l.068.135a.408.408,0,0,0,.2.2l.135.068H24.115l.135-.068a.408.408,0,0,0,.2-.2l.068-.135V10.406l-.068-.135a.408.408,0,0,0-.2-.2L24.115,10H10.406Zm11.31,3.753a11.884,11.884,0,0,1,1.1,1.157c0,.08-6.738,6.824-6.824,6.824s-4.006-3.926-4.006-4.006a12.17,12.17,0,0,1,1.083-1.138,7.217,7.217,0,0,1,1.157-1.083c.055,0,.258.185.911.837l.843.843L18.1,14.984c1.464-1.458,2.283-2.258,2.32-2.258A11.779,11.779,0,0,1,21.58,13.821Z" transform="translate(-10 -10)"/>
          </g>
        </g>
      </g>
    </g>
    <g id="button:_translate" data-name="button: translate" transform="translate(163 172)">
      <g transform="matrix(1, 0, 0, 1, -167, -176)" filter="url(#Rectangle_4)">
        <rect id="Rectangle_4-2" data-name="Rectangle 4" width="116" height="63" rx="22" transform="translate(167 176)" fill="#fff"/>
      </g>
      <g id="Group_131" data-name="Group 131" transform="translate(28.465 9.581)">
        <path id="Path_141" data-name="Path 141" d="M67.441,57.46a5.253,5.253,0,0,1,1.627,3.909,4.8,4.8,0,0,1-1.627,3.81L50.772,81.755a5.8,5.8,0,0,1-3.854,1.484,5.291,5.291,0,0,1-3.854-9.1l7.208-6.9H15.456a4.977,4.977,0,0,1-3.9-1.831A6.188,6.188,0,0,1,10,61.369a6.653,6.653,0,0,1,1.577-4.255,4.81,4.81,0,0,1,3.9-1.954h34.84L43.113,48.6a5.2,5.2,0,0,1-1.627-3.785A5.524,5.524,0,0,1,46.967,39.4a5.373,5.373,0,0,1,3.854,1.608L67.441,57.46Z" transform="translate(-10 -39.4)"/>
      </g>
    </g>
    <path id="Path_567" data-name="Path 567" d="M-195.1,1648.869l-.022-7.718-.337-.7a4.06,4.06,0,0,0-2.277-2.146,4.068,4.068,0,0,0-3.131.092,4.143,4.143,0,0,0-1.046.68l-.01-1.91-.358-.707a4.018,4.018,0,0,0-3.6-2.37,3.218,3.218,0,0,0-1.885.4,3.891,3.891,0,0,0-2.048,2.193,3.467,3.467,0,0,0-.237,1.205q-.409-1.144-.966-2.7a29.32,29.32,0,0,0,1.887-5.114l.17-.578c1.024-3.522,1.188-4.139,1.187-4.771a3.346,3.346,0,0,0-.264-1.522,4.117,4.117,0,0,0-1.9-1.885,3.9,3.9,0,0,0-2.5-.188l-.07.021a3.743,3.743,0,0,0-2.531,2.871,8.241,8.241,0,0,0-.51-1.239,4.825,4.825,0,0,0-1.788-1.524l-.186-.073a5.115,5.115,0,0,0-2.575-.044l-.058.015a4.039,4.039,0,0,0-2.87,3.885c0,.837,0,.837,3.28,10.129.288.808.342.951.725,2.044a45.4,45.4,0,0,0-2.119,6.5c-.459,1.605-.809,2.81-1.063,3.685-.541-.731-1.241-1.692-2.046-2.819-.778-1.095-3.333-4.687-3.531-4.88a3.978,3.978,0,0,0-2.972-1.366l-.176,0a3.886,3.886,0,0,0-3.492,2.163,3.873,3.873,0,0,0-.334,2.941c.236.763,11.052,20.484,11.8,21.521a15.365,15.365,0,0,0,7.752,5.738,12.838,12.838,0,0,0,4.226.727c.185,0,.368-.005.551-.014a13.1,13.1,0,0,0,4.938-.775,15.616,15.616,0,0,0,10.049-11.406C-195.091,1657.578-195.054,1656.415-195.1,1648.869Zm-17.863-24.386c.325-.749.519-1.109,1.1-1.315a1.765,1.765,0,0,1,1.037.066,1.921,1.921,0,0,1,.848.825,1.282,1.282,0,0,1,.081.585,25.133,25.133,0,0,1-1.1,4.243l-.168.577a14.929,14.929,0,0,1-.858,2.431,6.343,6.343,0,0,1-.339-.965l-1.5-4.289S-213.285,1625.232-212.959,1624.483Zm15.453,34.306a13.466,13.466,0,0,1-8.679,9.837,11.245,11.245,0,0,1-4.234.654,10.95,10.95,0,0,1-4.087-.6,13.222,13.222,0,0,1-6.7-4.955c-.681-.968-11.022-19.791-11.5-20.894a1.773,1.773,0,0,1,.185-1.358,1.8,1.8,0,0,1,1.651-1.015h.024a1.891,1.891,0,0,1,1.478.641c.163.2,1.534,2.087,3.4,4.713,3.6,5.029,3.6,5.043,4.356,4.921l.471-.069.261-.393c.124-.187.149-.226,1.8-5.97.27-.937.512-1.768.72-2.482,1.014,2.88,1.175,3.329,1.793,3.6a1.506,1.506,0,0,0,.675.158,1.446,1.446,0,0,0,1.422-1.461h-.008c-.046-.446-.492-1.931-3.255-9.672-2.792-7.916-3.151-8.933-3.151-9.417a1.91,1.91,0,0,1,1.324-1.831,3.073,3.073,0,0,1,1.383.008,2.68,2.68,0,0,1,.851.727c.247.61,1.519,4.1,3.343,9.24,2.826,7.954,3.275,9.181,3.487,9.511l0,0a1.315,1.315,0,0,0,.973.553,1.408,1.408,0,0,0,1.127-.451c.454-.456.454-.905.454-3.068a7.434,7.434,0,0,1,.125-2.281,1.893,1.893,0,0,1,1.043-1.066,1.336,1.336,0,0,1,.824-.156,1.846,1.846,0,0,1,1.754,1.154l.156.31.022,3.38c.042,4.151.042,4.151.727,4.521a1.32,1.32,0,0,0,1.683-.219c.485-.488.493-1.082.514-2.514.019-1.348.019-1.348.181-1.644a1.964,1.964,0,0,1,.926-.865,1.931,1.931,0,0,1,1.5-.044,1.958,1.958,0,0,1,1.1,1.052l.142.3.019,7.24C-197.18,1656.5-197.232,1657.43-197.507,1658.788Z" transform="translate(433.889 -1597.666)"/>
  </g>
</svg>
