<svg xmlns="http://www.w3.org/2000/svg" xmlns:xlink="http://www.w3.org/1999/xlink" width="460" height="355" viewBox="0 0 460 355">
  <defs>
    <filter id="Rectangle_81" x="0" y="0" width="460" height="355" filterUnits="userSpaceOnUse">
      <feOffset dx="2" dy="2" input="SourceAlpha"/>
      <feGaussianBlur stdDeviation="2" result="blur"/>
      <feFlood flood-opacity="0.161"/>
      <feComposite operator="in" in2="blur"/>
      <feComposite in="SourceGraphic"/>
    </filter>
  </defs>
  <g id="overlay:_collections" data-name="overlay: collections" transform="translate(4 4)">
    <g transform="matrix(1, 0, 0, 1, -4, -4)" filter="url(#Rectangle_81)">
      <rect id="Rectangle_81-2" data-name="Rectangle 81" width="448" height="343" rx="22" transform="translate(4 4)" fill="#fff"/>
    </g>
    <path id="Path_374" data-name="Path 374" d="M10.169,10.052A.3.3,0,0,0,10,10.39a14.269,14.269,0,0,0,1.566,1.627l1.557,1.557L11.57,15.131C9.883,16.821,9.968,16.724,10,16.9a.356.356,0,0,0,.223.223c.169.03.075.117,1.765-1.569l1.557-1.557L15.1,15.55c1.687,1.687,1.59,1.6,1.762,1.569a.356.356,0,0,0,.223-.223c.03-.169.117-.075-1.569-1.765l-1.56-1.554,1.557-1.557c1.687-1.687,1.6-1.59,1.569-1.762a.356.356,0,0,0-.223-.223c-.169-.03-.075-.117-1.765,1.569l-1.554,1.557-1.548-1.548c-.868-.868-1.572-1.557-1.6-1.566A.308.308,0,0,0,10.169,10.052Z" transform="translate(409.5 7.417)"/>
    <text id="collections" transform="translate(94 93)" font-size="15" font-family="OpenSans-Regular, Open Sans"><tspan x="89.553" y="16">collections</tspan></text>
    <g id="Rectangle_86" data-name="Rectangle 86" transform="translate(41 138)" fill="#fff" stroke="#999" stroke-width="1">
      <rect width="363" height="63" rx="22" stroke="none"/>
      <rect x="0.5" y="0.5" width="362" height="62" rx="21.5" fill="none"/>
    </g>
    <g id="Rectangle_69" data-name="Rectangle 69" transform="translate(41 224)" fill="#fff" stroke="#999" stroke-width="1">
      <rect width="363" height="63" rx="22" stroke="none"/>
      <rect x="0.5" y="0.5" width="362" height="62" rx="21.5" fill="none"/>
    </g>
    <text id="lunch" transform="translate(66 158)" font-size="15" font-family="OpenSans-Regular, Open Sans"><tspan x="0" y="16">lunch</tspan></text>
    <g id="magnifying_glass" transform="translate(364.042 162.848)">
      <path id="Path_472" data-name="Path 472" d="M101.074,1301.6a3.693,3.693,0,0,1,.446-.271l.128-.031c.132,0,.132,0,2.253,2.1l.114.115c2.019,2.018,2.052,2.051,2.445,2.051h.019a.957.957,0,0,0,1-.906v-.1c0-.406,0-.406-2.074-2.477l-.111-.111c-2.221-2.221-2.221-2.221-2.006-2.482a7.181,7.181,0,0,0,.751-1.257,8.6,8.6,0,0,0-.489-8.505,8.73,8.73,0,0,0-2.547-2.536,8.587,8.587,0,0,0-3.4-1.295,14.258,14.258,0,0,0-1.935-.084,8.761,8.761,0,0,0-4.537,1.726,11.021,11.021,0,0,0-1.68,1.681,8.812,8.812,0,0,0-1.66,3.965,11.243,11.243,0,0,0,0,2.474,8.983,8.983,0,0,0,1.784,4.128,11.6,11.6,0,0,0,1.389,1.386,8.64,8.64,0,0,0,9.17.961A8.978,8.978,0,0,0,101.074,1301.6Zm-4.764.247a7.433,7.433,0,1,1,7.433-7.433A7.432,7.432,0,0,1,96.311,1301.843Z" transform="translate(-87.719 -1285.806)"/>
    </g>
    <text id="create_lunch_" data-name="create ‘lunch’" transform="translate(88 245)" font-size="15" font-family="OpenSans-Regular, Open Sans"><tspan x="0" y="16">create ‘lunch’</tspan></text>
    <path id="Path_375" data-name="Path 375" d="M83.717,78.052c-.026.013-.052,1.222-.052,2.665V83.33H78.4v2.34h5.278l.013,2.652.013,2.652,1.157.013L86.018,91V85.67h5.33V83.33h-5.33V78H84.887A7.312,7.312,0,0,0,83.717,78.052Z" transform="translate(-12.183 172)"/>
    <g id="cloud_add" transform="translate(190.512 27)">
      <g id="Group_533" data-name="Group 533">
        <g id="Group_532" data-name="Group 532">
          <path id="Path_571" data-name="Path 571" d="M126.262,1434.9H91.713a.9.9,0,0,1-.546-.184l-.631-.482a14.737,14.737,0,0,1-5.458-9.727,17.727,17.727,0,0,1,1.968-10.039,10.654,10.654,0,0,1,8.121-6.158l.189-.017a20.871,20.871,0,0,1,8.67-13.411,21.016,21.016,0,0,1,23.393.007,20.755,20.755,0,0,1,8.607,13.06l.074.379.164.014a9.126,9.126,0,0,1,5.775,3,16.942,16.942,0,0,1,3.913,7.3.9.9,0,0,1-1.747.435,15.156,15.156,0,0,0-3.5-6.536,7.329,7.329,0,0,0-4.626-2.409l-.813-.075a.9.9,0,0,1-.8-.724l-.2-1.034a18.956,18.956,0,0,0-7.85-11.922,19.227,19.227,0,0,0-21.375-.005,19.06,19.06,0,0,0-7.911,12.255l-.127.666a.9.9,0,0,1-.8.728l-.81.075a8.872,8.872,0,0,0-6.724,5.161,15.96,15.96,0,0,0-1.8,9.05,12.927,12.927,0,0,0,4.777,8.511l.373.284h34.245a.9.9,0,1,1,0,1.8Z" transform="translate(-84.992 -1391.335)"/>
        </g>
        <path id="Path_572" data-name="Path 572" d="M126.221,1414.672c-.492-.492-.659-.517-3.406-.517h-2.422v-2.432a22.628,22.628,0,0,0-.084-2.746,1.728,1.728,0,0,0-1.583-1.162,1.7,1.7,0,0,0-1.583,1.162,25.081,25.081,0,0,0-.084,2.734v2.444H114.54c-2.83,0-2.914.014-3.406.575a1.611,1.611,0,0,0,.1,2.242c.492.492.659.517,3.406.517h2.424v2.432a22.244,22.244,0,0,0,.084,2.746,1.724,1.724,0,0,0,1.583,1.162,1.7,1.7,0,0,0,1.583-1.162,25.584,25.584,0,0,0,.084-2.734v-2.444h2.519c2.83,0,2.914-.014,3.406-.575A1.612,1.612,0,0,0,126.221,1414.672Z" transform="translate(-67.652 -1380.247)"/>
      </g>
    </g>
  </g>
</svg>
