<svg xmlns="http://www.w3.org/2000/svg" width="15.517" height="14.558" viewBox="0 0 15.517 14.558">
  <path id="Path_524" data-name="Path 524" d="M190.589,1515.231h-15.5v-.507a1.131,1.131,0,0,1,.372-.926,2.289,2.289,0,0,1,.828-.384,1.924,1.924,0,0,0,1.37-1.8V1506a3.952,3.952,0,0,1,3.639-3.9c.05,0,.1-.008.129-.008h.518l-.011-.54a.861.861,0,0,1,.255-.628.955.955,0,0,1,.664-.256.982.982,0,0,1,.64.255.879.879,0,0,1,.254.629l-.012.541h.518c.044,0,.133.008.133.008a3.95,3.95,0,0,1,3.642,3.893v5.618a1.877,1.877,0,0,0,1.377,1.8,2.249,2.249,0,0,1,.777.381,1.18,1.18,0,0,1,.421.931Z" transform="translate(-175.088 -1500.674)" fill="#999"/>
</svg>
