<svg id="pencil" xmlns="http://www.w3.org/2000/svg" width="20.966" height="20.996" viewBox="0 0 20.966 20.996">
  <path id="Path_527" data-name="Path 527" d="M702.886,1073.374a.76.76,0,0,1-.007-.1v-.053c0-.549,0-.549-2.009-2.569l-.225-.225c-2.219-2.21-2.219-2.21-2.776-2.236a1.585,1.585,0,0,0-.5.049l-.01,0a1.759,1.759,0,0,0-.354.164c-.09.067-3.655,3.6-7.547,7.5-7.194,7.2-7.439,7.462-7.483,7.63a20.036,20.036,0,0,0-.043,2.611l.009,2.446.137.2a.975.975,0,0,0,.319.253l.049.015a10.151,10.151,0,0,0,2.553.081c.324.031.651.047.976.047a10.168,10.168,0,0,0,1.608-.127l.044-.013c.109-.05.677-.582,7.631-7.535l1.768-1.77C702.934,1073.832,702.934,1073.832,702.886,1073.374Zm-6.689-2.825.595-.595c.406-.406.775-.728.787-.743a.474.474,0,0,1,.4,0c.268.2,3.712,3.63,3.87,3.856a.461.461,0,0,1,.018.4,8.229,8.229,0,0,1-.765.825l-.577.577Zm-12.758,12.766,10.682-10.69.9.9-10.682,10.69Zm13.4-7.971-10.69,10.691-1.12-1.119,5.336-5.336c2.6-2.6,4.842-4.835,5.358-5.344.121.115.33.318.564.556Zm1.6,1.606-5.311,5.329c-2.752,2.753-4.9,4.887-5.384,5.345-.119-.109-.324-.312-.46-.446l-.436-.437,10.69-10.691Zm-3.609-5.028.665-.665,4.325,4.325-.659.664Zm-7.943,16.223-2.316.009-1.656-1.657v-2.321Zm-3.728.009c-.139,0-.148-.011-.182-.048s-.057-.063-.059-.188l.135.131Z" transform="translate(-681.928 -1068.192)"/>
</svg>
