<svg width="15" height="22" viewBox="0 0 15 22" fill="none" xmlns="http://www.w3.org/2000/svg">
<g clip-path="url(#clip0_2029_6174)">
<path d="M14.09 13.8401C13.8767 12.3316 13.0969 10.961 11.909 10.0071L11.449 9.66306V6.301C11.4986 4.91774 11.4344 3.53275 11.257 2.16001C11.2531 2.12788 11.2453 2.09633 11.234 2.06601C10.9463 1.29611 10.3774 0.663902 9.64199 0.29697C9.61709 0.28432 9.59097 0.27436 9.56401 0.267063C8.67851 0.0257797 7.75645 -0.0521399 6.84301 0.0370826C4.58401 0.0900826 4.06101 0.209033 3.15801 1.46103C2.73401 2.01903 2.729 2.39807 2.678 6.02207L2.62899 9.65708L2.14901 10.016C0.974766 10.9965 0.208202 12.3796 -0.000988007 13.895V14.295C-0.000988007 14.3504 0.009909 14.4053 0.0311165 14.4565C0.052324 14.5077 0.0834219 14.5543 0.122608 14.5935C0.161795 14.6327 0.208311 14.6637 0.25951 14.6849C0.310709 14.7061 0.365591 14.717 0.421009 14.717H6.381V20.885C6.381 21.061 6.45091 21.2298 6.57534 21.3542C6.69977 21.4787 6.86854 21.5486 7.04451 21.5486C7.22048 21.5486 7.38923 21.4787 7.51366 21.3542C7.63809 21.2298 7.708 21.061 7.708 20.885V14.7201H13.672C13.7837 14.7201 13.8909 14.6757 13.9701 14.5968C14.0492 14.5179 14.0937 14.4108 14.094 14.299L14.09 13.8401ZM7.708 13.873H0.853016C1.05831 12.6264 1.70364 11.4946 2.67199 10.6831L3.30199 10.2141C3.35406 10.1754 3.39649 10.1252 3.42598 10.0675C3.45547 10.0097 3.47123 9.94593 3.472 9.88108L3.523 6.03904C3.572 2.59304 3.595 2.28897 3.838 1.96897C4.508 1.04197 4.65502 0.937006 6.89602 0.884006C7.70337 0.80338 8.51863 0.868429 9.303 1.07602C9.81568 1.34346 10.215 1.78649 10.428 2.32407C10.5949 3.63972 10.6544 4.96666 10.606 6.29197V9.87998C10.6058 9.9457 10.6212 10.0106 10.6507 10.0693C10.6802 10.128 10.7231 10.1789 10.776 10.218L11.393 10.6791C12.3871 11.4784 13.048 12.6191 13.247 13.879L7.708 13.873Z" fill="#999999"/>
</g>
<defs>
<clipPath id="clip0_2029_6174">
<rect width="14.095" height="21.544" fill="white"/>
</clipPath>
</defs>
</svg>
