<svg id="pin" xmlns="http://www.w3.org/2000/svg" width="14.095" height="21.544" viewBox="0 0 14.095 21.544">
  <path id="Path_557" data-name="Path 557" d="M349.89,1080.613a5.992,5.992,0,0,0-2.181-3.833l-.46-.344v-3.362a25.256,25.256,0,0,0-.192-4.141.412.412,0,0,0-.023-.094,3.247,3.247,0,0,0-1.592-1.769.407.407,0,0,0-.078-.03,7.556,7.556,0,0,0-2.721-.23c-2.259.053-2.782.172-3.685,1.424-.424.558-.429.937-.48,4.561l-.049,3.635-.48.359a6.149,6.149,0,0,0-2.15,3.879v.4a.422.422,0,0,0,.422.422h5.96v6.168a.663.663,0,1,0,1.327,0v-6.165h5.964a.422.422,0,0,0,.422-.421Zm-6.382.033v0h-6.855a5.282,5.282,0,0,1,1.819-3.19l.63-.469a.421.421,0,0,0,.17-.333l.051-3.842c.049-3.446.072-3.75.315-4.07.67-.927.817-1.032,3.058-1.085a6.776,6.776,0,0,1,2.407.192,2.408,2.408,0,0,1,1.125,1.248,24.444,24.444,0,0,1,.178,3.968v3.588a.419.419,0,0,0,.17.338l.617.461a5.134,5.134,0,0,1,1.854,3.2Z" transform="translate(-335.8 -1066.773)"/>
</svg>
