<svg width="55" height="56" viewBox="0 0 55 56" fill="none" xmlns="http://www.w3.org/2000/svg">
<path d="M47.3028 30.6703L47.2808 22.9523L46.9438 22.2523C46.7251 21.7618 46.4112 21.3194 46.0203 20.951C45.6295 20.5827 45.1694 20.2956 44.6668 20.1063C44.1647 19.914 43.6295 19.8231 43.0921 19.8389C42.5547 19.8547 42.0257 19.9768 41.5358 20.1982C41.1548 20.3708 40.8021 20.6001 40.4898 20.8783L40.4798 18.9683L40.1218 18.2612C39.8088 17.565 39.304 16.9725 38.6665 16.5527C38.0289 16.133 37.285 15.9035 36.5218 15.8912C35.8673 15.8289 35.2095 15.9685 34.6368 16.2913C34.1673 16.503 33.7444 16.8059 33.3929 17.1824C33.0413 17.5588 32.768 18.0014 32.5888 18.4843C32.4387 18.8686 32.3585 19.2766 32.3518 19.6892C32.0791 18.9265 31.7571 18.0266 31.3858 16.9893C32.1722 15.3469 32.804 13.6348 33.2728 11.8752L33.4428 11.2972C34.4668 7.77524 34.6308 7.15824 34.6298 6.52624C34.6617 6.00526 34.5713 5.48407 34.3658 5.00427C33.9601 4.18187 33.2914 3.51845 32.4658 3.11926C31.6759 2.78315 30.7971 2.71708 29.9658 2.93127L29.8958 2.95227C29.2546 3.15879 28.681 3.53449 28.2356 4.03979C27.7901 4.54509 27.4893 5.16123 27.3648 5.82324C27.2287 5.39708 27.0581 4.9827 26.8548 4.58423C26.3935 3.93667 25.7792 3.41323 25.0668 3.0603L24.8808 2.9873C24.0403 2.75326 23.1538 2.73804 22.3058 2.94324L22.2478 2.95825C21.4147 3.21015 20.6852 3.72438 20.1681 4.42444C19.6509 5.12449 19.3737 5.97291 19.3778 6.84326C19.3778 7.68026 19.3778 7.68029 22.6578 16.9723C22.9458 17.7803 22.9998 17.9232 23.3828 19.0162C22.5141 21.1266 21.8057 23.2994 21.2638 25.5162C20.8048 27.1212 20.4548 28.3263 20.2008 29.2013C19.6598 28.4703 18.9598 27.5093 18.1548 26.3823C17.3768 25.2873 14.8218 21.6953 14.6238 21.5023C14.2535 21.077 13.7971 20.7351 13.2847 20.4996C12.7723 20.2641 12.2157 20.1403 11.6518 20.1362H11.4758C10.7498 20.1346 10.0378 20.3363 9.42064 20.7186C8.80344 21.1009 8.30568 21.6486 7.98378 22.2993C7.48746 23.1968 7.36734 24.2543 7.64978 25.2402C7.88578 26.0032 18.7018 45.7242 19.4498 46.7612C21.351 49.4563 24.0689 51.4682 27.2018 52.4993C28.5597 52.9768 29.9883 53.2226 31.4278 53.2263C31.6128 53.2263 31.7958 53.2213 31.9788 53.2123C33.6593 53.2733 35.3358 53.0101 36.9168 52.4373C39.4247 51.5495 41.6642 50.0357 43.4228 48.0396C45.1815 46.0434 46.4011 43.631 46.9658 41.0312C47.3118 39.3793 47.3488 38.2163 47.3028 30.6703ZM29.4398 6.2843C29.7648 5.5353 29.9588 5.17524 30.5398 4.96924C30.8842 4.88668 31.2456 4.90972 31.5768 5.03528C31.9392 5.21422 32.236 5.50286 32.4248 5.86023C32.4969 6.04627 32.5247 6.24666 32.5058 6.44531C32.2634 7.88898 31.8953 9.30863 31.4058 10.6882L31.2378 11.2653C31.0224 12.0988 30.7354 12.9122 30.3798 13.6963C30.241 13.3843 30.1276 13.0616 30.0408 12.7313L28.5408 8.44226C28.5408 8.44226 29.1178 7.0333 29.4438 6.2843H29.4398ZM44.8928 40.5902C44.4048 42.8338 43.3512 44.9154 41.8322 46.6371C40.3131 48.3588 38.3791 49.6635 36.2138 50.4272C34.8574 50.9146 33.42 51.1366 31.9798 51.0813C30.5917 51.1424 29.2047 50.9388 27.8928 50.4813C25.1838 49.595 22.8336 47.8569 21.1928 45.5262C20.5118 44.5582 10.1708 25.7353 9.69278 24.6323C9.63196 24.405 9.617 24.1678 9.64876 23.9347C9.68052 23.7015 9.75838 23.477 9.87779 23.2743C10.0275 22.9652 10.2625 22.7055 10.555 22.5256C10.8476 22.3458 11.1854 22.2533 11.5288 22.2593H11.5528C11.8311 22.2507 12.108 22.3037 12.3635 22.4145C12.619 22.5254 12.8468 22.6912 13.0308 22.9003C13.1938 23.1003 14.5648 24.9873 16.4308 27.6133C20.0308 32.6423 20.0308 32.6563 20.7868 32.5343L21.2578 32.4652L21.5188 32.0723C21.6428 31.8853 21.6678 31.8463 23.3188 26.1023C23.5888 25.1653 23.8308 24.3342 24.0388 23.6202C25.0528 26.5002 25.2138 26.9492 25.8318 27.2202C26.0414 27.3247 26.2726 27.3788 26.5068 27.3783C26.8887 27.372 27.2526 27.2148 27.5191 26.941C27.7855 26.6673 27.9328 26.2992 27.9288 25.9172H27.9208C27.8748 25.4712 27.4288 23.9862 24.6658 16.2452C21.8738 8.32924 21.5148 7.31225 21.5148 6.82825C21.512 6.4219 21.6389 6.02533 21.877 5.69604C22.1151 5.36676 22.452 5.12198 22.8388 4.99731C23.2944 4.89486 23.7674 4.89753 24.2218 5.00525C24.5535 5.18499 24.8434 5.43277 25.0728 5.7323C25.3198 6.3423 26.5918 9.83229 28.4158 14.9723C31.2418 22.9263 31.6908 24.1533 31.9028 24.4833C32.0143 24.6413 32.1593 24.7728 32.3275 24.8684C32.4957 24.964 32.6829 25.0213 32.8758 25.0363C33.0854 25.0499 33.2954 25.0165 33.4904 24.9385C33.6854 24.8604 33.8605 24.7398 34.0028 24.5853C34.4568 24.1293 34.4568 23.6802 34.4568 21.5172C34.3807 20.755 34.4228 19.9857 34.5818 19.2363C34.6744 18.9973 34.8146 18.7794 34.9939 18.5962C35.1732 18.4129 35.3878 18.2681 35.6248 18.1703C35.8756 18.0312 36.1645 17.9765 36.4488 18.0143C36.8238 18.0057 37.1925 18.1115 37.5058 18.3176C37.8192 18.5238 38.0623 18.8204 38.2028 19.1682L38.3588 19.4783L38.3808 22.8583C38.4228 27.0093 38.4228 27.0093 39.1078 27.3793C39.3693 27.5465 39.6814 27.6161 39.9892 27.576C40.2969 27.536 40.5808 27.3888 40.7908 27.1603C41.2758 26.6723 41.2838 26.0782 41.3048 24.6462C41.3238 23.2982 41.3238 23.2983 41.4858 23.0023C41.6904 22.6196 42.016 22.3154 42.4118 22.1373C42.6462 22.0303 42.8997 21.9712 43.1573 21.9636C43.4149 21.9561 43.6715 22.0001 43.9118 22.0933C44.1561 22.1863 44.3793 22.3274 44.5682 22.5081C44.7571 22.6887 44.9079 22.9054 45.0118 23.1453L45.1538 23.4453L45.1728 30.6853C45.2228 38.3013 45.1708 39.2312 44.8958 40.5892L44.8928 40.5902Z" fill="black"/>
</svg>
