<svg xmlns="http://www.w3.org/2000/svg" xmlns:xlink="http://www.w3.org/1999/xlink" width="263" height="75" viewBox="0 0 263 75">
  <defs>
    <filter id="Rectangle_4" x="0" y="0" width="263" height="75" filterUnits="userSpaceOnUse">
      <feOffset dx="2" dy="2" input="SourceAlpha"/>
      <feGaussianBlur stdDeviation="2" result="blur"/>
      <feFlood flood-opacity="0.161"/>
      <feComposite operator="in" in2="blur"/>
      <feComposite in="SourceGraphic"/>
    </filter>
  </defs>
  <g id="search_memories" data-name="search memories" transform="translate(4 4)">
    <g transform="matrix(1, 0, 0, 1, -4, -4)" filter="url(#Rectangle_4)">
      <rect id="Rectangle_4-2" data-name="Rectangle 4" width="251" height="63" rx="22" transform="translate(4 4)" fill="#fff"/>
    </g>
    <text id="unlock_history" data-name="unlock history" transform="translate(58 21)" font-size="15" font-family="OpenSans-Regular, Open Sans"><tspan x="0" y="16">unlock history</tspan></text>
    <g id="lock-keyline" transform="translate(133.1 8.602)">
      <path id="Path_405" data-name="Path 405" d="M46.536,121.277c-1.518,0-2.979-.009-4.045-.019h-.066c-3.753-.047-3.753-.047-4.045-.273l-.019-.019a1.681,1.681,0,0,1-.33-.4c-.132-.236-.132-.311-.132-6.072v-.622c0-2.621,0-3.941.028-4.62.019-.575.047-1.075.575-1.311h.009a1.656,1.656,0,0,1,.622-.151V107.7H53.994v.094a1.244,1.244,0,0,1,1.018.358l.33.339v12.021l-.349.349a1.168,1.168,0,0,1-.82.339C53.6,121.239,49.912,121.277,46.536,121.277Zm-7.3-1.4c.405.019,1.386.038,3.206.057h.075c3.526.047,10.6.009,11.493-.047V109.114c-.057,0-.123-.009-.189-.009h-.019l-1.141-.085H40.446l-1.037.066a.733.733,0,0,0-.151.019c-.038.547-.038,1.98-.038,4.771v.622C39.22,117.081,39.22,119.156,39.239,119.872Z" transform="translate(0 -89.687)"/>
      <path id="Path_406" data-name="Path 406" d="M60.81,16.373l.009-2.291.132-.377a4.492,4.492,0,0,1,2.791-2.574,4.013,4.013,0,0,1,1.659-.179,3.4,3.4,0,0,1,1.263.132,4.47,4.47,0,0,1,2.942,2.687c.1.283.1.311.113,2.593l.009,2.31h2.31V16.4c0-2.517-.019-2.8-.245-3.441a6.994,6.994,0,0,0-5.063-4.167A11.585,11.585,0,0,0,64.3,8.707c-2.847.358-5.45,2.7-5.751,5.167-.028.236-.047,1.263-.047,2.621v2.178h2.3Z" transform="translate(-18.658)"/>
    </g>
  </g>
</svg>
