<svg xmlns="http://www.w3.org/2000/svg" width="48.894" height="48.886" viewBox="0 0 48.894 48.886">
  <path id="Path_619" data-name="Path 619" d="M120.765,1324.878a9.122,9.122,0,0,1,1.1-.671l.316-.077c.327,0,.327,0,5.574,5.2l.281.283c5,4.992,5.077,5.075,6.05,5.075h.048a2.368,2.368,0,0,0,2.476-2.242l0-.248c0-1,0-1-5.132-6.129l-.276-.274c-5.5-5.5-5.5-5.5-4.963-6.142a17.767,17.767,0,0,0,1.858-3.109,21.267,21.267,0,0,0-1.21-21.045,21.6,21.6,0,0,0-6.3-6.274,21.246,21.246,0,0,0-8.423-3.2,35.221,35.221,0,0,0-4.787-.208,21.68,21.68,0,0,0-11.226,4.27,27.278,27.278,0,0,0-4.156,4.16,21.8,21.8,0,0,0-4.107,9.811,27.819,27.819,0,0,0,0,6.121,22.23,22.23,0,0,0,4.414,10.214,28.724,28.724,0,0,0,3.436,3.431,21.378,21.378,0,0,0,22.689,2.379A22.191,22.191,0,0,0,120.765,1324.878Zm-11.787.61A18.391,18.391,0,1,1,127.37,1307.1,18.391,18.391,0,0,1,108.979,1325.488Z" transform="translate(-87.719 -1285.806)"/>
</svg>
