<svg id="share_link" data-name="share link" xmlns="http://www.w3.org/2000/svg" width="44.367" height="44.42" viewBox="0 0 44.367 44.42">
  <g id="Group_257" data-name="Group 257">
    <g id="Group_256" data-name="Group 256" transform="translate(0)">
      <path id="Path_224" data-name="Path 224" d="M104.742,10.074a12.432,12.432,0,0,0-5.608,2.315c-.358.263-2.258,2.089-4.235,4.046L91.3,20.011h1.468a13.854,13.854,0,0,1,3.971.471l.96.245L99.7,18.75c1.11-1.092,2.221-2.145,2.465-2.353a6.843,6.843,0,0,1,2.315-1.148,8.685,8.685,0,0,1,3.482-.038,7.012,7.012,0,0,1,4.931,4.931,8.46,8.46,0,0,1,0,3.369,7.216,7.216,0,0,1-1,2.145c-.358.527-8.6,8.789-9.109,9.128a9.277,9.277,0,0,1-1.995.941,10.752,10.752,0,0,1-3.557.038,6.905,6.905,0,0,1-3.03-1.731,7.238,7.238,0,0,1-1.449-1.957c-.094-.226-.113-.226-.489-.188C91.455,32,91,32.3,89.7,33.561c-.659.659-1.2,1.223-1.2,1.242a7.99,7.99,0,0,0,.508.828,11.924,11.924,0,0,0,15.244,4.1c1.581-.79,2.07-1.223,6.643-5.8,4.31-4.31,4.893-4.95,5.665-6.286a11.83,11.83,0,0,0-7.886-17.409A15.977,15.977,0,0,0,104.742,10.074Z" transform="translate(-73.718 -10.021)"/>
      <path id="Path_225" data-name="Path 225" d="M28.125,81.221A11.736,11.736,0,0,0,22.5,83.216c-.96.64-1.995,1.619-5.966,5.608-3.708,3.726-4.31,4.423-5.063,5.721a11.942,11.942,0,0,0,.753,12.816,16.825,16.825,0,0,0,2.447,2.465,11.851,11.851,0,0,0,10.05,2.014,11.6,11.6,0,0,0,4.235-2.033c.358-.263,2.258-2.089,4.235-4.046l3.595-3.576H35.315a14.147,14.147,0,0,1-4.084-.527,8.006,8.006,0,0,0-.828-.207c-.056,0-1.035.941-2.183,2.089s-2.315,2.24-2.6,2.447a7.216,7.216,0,0,1-2.145,1,8.46,8.46,0,0,1-3.369,0,6.665,6.665,0,0,1-3.181-1.9,6.467,6.467,0,0,1-1.731-3.03,8.46,8.46,0,0,1,0-3.369,7.553,7.553,0,0,1,1.355-2.616c.282-.339,2.258-2.371,4.4-4.5,3.162-3.143,4.009-3.933,4.573-4.291a6.819,6.819,0,0,1,9.485,2.353l.433.753.376-.056c.79-.094,1.261-.414,2.541-1.675.659-.659,1.2-1.223,1.2-1.242a16.3,16.3,0,0,0-1.487-2.145A11.936,11.936,0,0,0,28.125,81.221Z" transform="translate(-9.956 -67.787)"/>
    </g>
  </g>
</svg>
