<svg xmlns="http://www.w3.org/2000/svg" width="22.524" height="22.025" viewBox="0 0 22.524 22.025">
  <g id="sorting" transform="translate(0 0)">
    <g id="sorting-2" data-name="sorting">
      <path id="Path_78" data-name="Path 78" d="M411.419,1301.721l-.478-.529a.639.639,0,0,0-.932-.032l-.031.032-2.343,2.573v-17.292a.717.717,0,0,0-.682-.747h-.681a.718.718,0,0,0-.682.747v17.292l-2.342-2.573a.64.64,0,0,0-.932-.032l-.031.032-.477.529a.8.8,0,0,0,0,1.058l4.327,4.753a.637.637,0,0,0,.931.034l.032-.034,4.326-4.753A.8.8,0,0,0,411.419,1301.721Z" transform="translate(-389.098 -1285.726)"/>
      <rect id="Rectangle_135" data-name="Rectangle 135" width="8.296" height="2.044" rx="1.022" transform="translate(0 10.038)"/>
      <rect id="Rectangle_136" data-name="Rectangle 136" width="7.017" height="2.044" rx="1.022" transform="translate(0 15.004)"/>
      <rect id="Rectangle_137" data-name="Rectangle 137" width="5.739" height="2.044" rx="1.022" transform="translate(0 19.97)"/>
      <rect id="Rectangle_138" data-name="Rectangle 138" width="9.575" height="2.044" rx="1.022" transform="translate(0 5.073)"/>
      <rect id="Rectangle_139" data-name="Rectangle 139" width="10.854" height="2.044" rx="1.022" transform="translate(0 0.102)"/>
    </g>
  </g>
</svg>
