<svg id="sorting" xmlns="http://www.w3.org/2000/svg" width="41.555" height="40.634" viewBox="0 0 41.555 40.634">
  <path id="Path_78" data-name="Path 78" d="M419.706,1315.235l-.881-.976a1.179,1.179,0,0,0-1.719-.06c-.02.02-.039.04-.057.06l-4.323,4.748v-31.9a1.323,1.323,0,0,0-1.258-1.379h-1.256a1.324,1.324,0,0,0-1.258,1.379v31.9l-4.32-4.748a1.18,1.18,0,0,0-1.72-.06l-.057.06-.88.976a1.479,1.479,0,0,0,0,1.951l7.983,8.768a1.176,1.176,0,0,0,1.717.062c.02-.02.039-.041.06-.062l7.982-8.768A1.477,1.477,0,0,0,419.706,1315.235Z" transform="translate(-378.526 -1285.726)"/>
  <rect id="Rectangle_135" data-name="Rectangle 135" width="15.306" height="3.771" rx="1.151" transform="translate(0 18.519)"/>
  <rect id="Rectangle_136" data-name="Rectangle 136" width="12.946" height="3.771" rx="1.151" transform="translate(0 27.68)"/>
  <rect id="Rectangle_137" data-name="Rectangle 137" width="10.589" height="3.771" rx="1.151" transform="translate(0 36.842)"/>
  <rect id="Rectangle_138" data-name="Rectangle 138" width="17.665" height="3.771" rx="1.151" transform="translate(0 9.359)"/>
  <rect id="Rectangle_139" data-name="Rectangle 139" width="20.024" height="3.771" rx="1.151" transform="translate(0 0.188)"/>
</svg>
