<svg width="22" height="20" viewBox="0 0 22 20" fill="none" xmlns="http://www.w3.org/2000/svg">
<g clip-path="url(#clip0_2029_6176)">
<path d="M13.493 -1.22886e-05C13.3305 -0.0015099 13.1696 0.0315161 13.0208 0.0968505C12.872 0.162185 12.7388 0.258368 12.63 0.379016L6.24301 4.69896H1.222C0.889108 4.70968 0.57394 4.85152 0.345075 5.09349C0.116211 5.33547 -0.00782248 5.65804 -2.39245e-06 5.99102V13.759C-0.00728308 14.0916 0.117019 14.4135 0.345853 14.6549C0.574688 14.8963 0.889551 15.0376 1.222 15.048H6.244L12.633 19.356C12.7436 19.4747 12.8776 19.5692 13.0264 19.6337C13.1753 19.6982 13.3359 19.7312 13.4981 19.7308C13.6603 19.7303 13.8207 19.6963 13.9692 19.631C14.1177 19.5656 14.2511 19.4703 14.361 19.351C14.5888 19.1066 14.716 18.7851 14.717 18.451V1.30101C14.7231 0.967333 14.5984 0.644485 14.3697 0.401416C14.1411 0.158346 13.8264 0.0142843 13.493 -1.22886e-05Z" fill="#999999"/>
<path d="M18.315 14.569C18.3985 14.5759 18.4823 14.5607 18.558 14.525C19.4784 14.1663 20.2592 13.5213 20.785 12.685C21.3399 11.8534 21.637 10.8765 21.6391 9.8768C21.6413 8.87708 21.3483 7.89894 20.797 7.06498C20.2858 6.23565 19.5169 5.59675 18.608 5.24601L18.558 5.22501C18.49 5.19956 18.4185 5.18471 18.346 5.181C18.1671 5.182 17.9947 5.24809 17.861 5.36698C17.7984 5.42445 17.7488 5.49457 17.7153 5.57267C17.6819 5.65076 17.6654 5.73504 17.667 5.81998C17.6545 5.93583 17.6875 6.05205 17.759 6.14402C17.8896 6.3022 18.0458 6.43736 18.221 6.54398C18.506 6.72198 18.778 6.90199 19.061 7.10599C19.4539 7.40136 19.7695 7.78732 19.981 8.23099C20.2318 8.75249 20.3539 9.32656 20.337 9.905C20.3529 10.4725 20.2285 11.0351 19.975 11.543C19.7645 11.9703 19.4599 12.3444 19.084 12.637C18.807 12.8457 18.5189 13.0393 18.221 13.217C18.0454 13.3259 17.8873 13.4608 17.752 13.617C17.6936 13.6969 17.6637 13.7941 17.667 13.893C17.6605 13.981 17.6732 14.0694 17.7041 14.1521C17.735 14.2348 17.7834 14.3098 17.846 14.372C17.9074 14.4341 17.9804 14.4834 18.0609 14.5172C18.1413 14.5511 18.2277 14.5687 18.315 14.569Z" fill="#999999"/>
</g>
<defs>
<clipPath id="clip0_2029_6176">
<rect width="21.64" height="19.73" fill="white"/>
</clipPath>
</defs>
</svg>
