<svg id="Speaker-solid2" xmlns="http://www.w3.org/2000/svg" width="21.64" height="19.73" viewBox="0 0 21.64 19.73">
  <g id="Speaker-solid2-2" data-name="Speaker-solid2" transform="translate(-196.831 -968.633)">
    <g id="Group_28" data-name="Group 28" transform="translate(196.831 968.633)">
      <g id="Group_27" data-name="Group 27">
        <g id="Group_26" data-name="Group 26">
          <path id="Path_45" data-name="Path 45" d="M210.324,968.633a1.148,1.148,0,0,0-.863.379l-6.387,4.32h-5.021a1.263,1.263,0,0,0-1.222,1.292v7.768a1.262,1.262,0,0,0,1.222,1.289h5.022l6.389,4.308a1.178,1.178,0,0,0,1.728-.005,1.326,1.326,0,0,0,.356-.9V969.934A1.279,1.279,0,0,0,210.324,968.633Z" transform="translate(-196.831 -968.633)"/>
          <path id="Path_470" data-name="Path 470" d="M217.987,984.5a.477.477,0,0,0,.243-.044,4.606,4.606,0,0,0,2.227-1.84,5.079,5.079,0,0,0,.012-5.62,4.456,4.456,0,0,0-2.189-1.819l-.05-.021a.708.708,0,0,0-.212-.044.736.736,0,0,0-.485.186.6.6,0,0,0-.194.453.449.449,0,0,0,.092.324,1.838,1.838,0,0,0,.462.4c.285.178.557.358.84.562a3.049,3.049,0,0,1,.92,1.125,3.618,3.618,0,0,1,.356,1.674,3.452,3.452,0,0,1-.362,1.638,3.15,3.15,0,0,1-.891,1.094,9.646,9.646,0,0,1-.863.58,2.05,2.05,0,0,0-.469.4.443.443,0,0,0-.085.276.612.612,0,0,0,.179.479A.663.663,0,0,0,217.987,984.5Z" transform="translate(-199.672 -969.931)"/>
        </g>
      </g>
    </g>
  </g>
</svg>
