<svg id="speech_bubble_copy" data-name="speech_bubble copy" xmlns="http://www.w3.org/2000/svg" width="22.176" height="22.168" viewBox="0 0 22.176 22.168">
  <g id="Group_152" data-name="Group 152" transform="translate(0 0)">
    <g id="Group_151" data-name="Group 151">
      <path id="Path_157" data-name="Path 157" d="M29.181,10.075a5.067,5.067,0,0,1,.912.338,3.107,3.107,0,0,1,.977.7,3.005,3.005,0,0,1,.7.977c.451.912.432.7.413,6.681l-.019,5.262-.15.442a3.9,3.9,0,0,1-2.02,2.3c-.752.357-.7.348-4.586.376l-3.533.019-3.223,2.49-3.223,2.5-.019-2.49-.009-2.49-1.1-.038a4.122,4.122,0,0,1-2.227-.442,2.8,2.8,0,0,1-.94-.7,3.458,3.458,0,0,1-1.006-1.71c-.1-.423-.113-.592-.113-5.751,0-5.883-.019-5.582.357-6.371a3.826,3.826,0,0,1,2.274-2.011l.442-.15L20.94,10C27.621,10,28.852,10.009,29.181,10.075Zm-15.919.865a2.972,2.972,0,0,0-2.274,2.133c-.066.226-.075,1.334-.075,5.526A47.1,47.1,0,0,0,11,24.143a3,3,0,0,0,2.02,2.02,7.191,7.191,0,0,0,1.785.132l1.485.019V30.4l2.641-2.049,2.65-2.058,3.665-.019c3.6-.019,3.665-.019,4.022-.141a3.034,3.034,0,0,0,1.964-2.124c.122-.526.122-10.328,0-10.854a3.005,3.005,0,0,0-2.161-2.19c-.273-.066-1.56-.075-7.9-.085C15.987,10.874,13.488,10.893,13.262,10.94Z" transform="translate(-10.02 -10)"/>
      <path id="Path_158" data-name="Path 158" d="M72.495,70.141a.45.45,0,0,1,.141.3.4.4,0,0,1-.141.3l-.132.141H66.377c-5.967,0-5.986,0-6.136-.113a.336.336,0,0,1-.141-.329.365.365,0,0,1,.141-.329C60.391,70,60.4,70,66.377,70h5.986Z" transform="translate(-55.166 -64.362)"/>
      <path id="Path_159" data-name="Path 159" d="M72.495,117.341a.45.45,0,0,1,.141.3.4.4,0,0,1-.141.3l-.132.141H66.377c-5.967,0-5.986,0-6.136-.113a.336.336,0,0,1-.141-.329.365.365,0,0,1,.141-.329c.15-.113.16-.113,6.136-.113h5.986Z" transform="translate(-55.166 -107.126)"/>
    </g>
  </g>
</svg>
