<svg width="25" height="24" viewBox="0 0 25 24" fill="none" xmlns="http://www.w3.org/2000/svg">
<path d="M14.924 0.140978C14.708 0.274978 14.698 0.284978 14.698 0.788978C14.698 1.06698 14.667 1.61198 14.626 2.00298C14.41 4.17498 13.895 5.36898 12.845 6.12998C12.3471 6.47706 11.9178 6.91343 11.579 7.41698C11.445 7.62298 11.013 8.57998 10.612 9.53698C10.3182 10.2649 9.98437 10.976 9.612 11.667C9.29204 12.1605 8.84829 12.5615 8.325 12.83C8.01228 12.9839 7.66297 13.0479 7.31599 13.015C7.04834 13.0219 6.78061 13.0049 6.516 12.964L6.341 12.913L6.372 17.713C6.393 20.348 6.42299 22.519 6.45399 22.54C6.50499 22.602 9.212 23.04 10.581 23.209C12.6285 23.511 14.6979 23.6385 16.767 23.59C19.813 23.59 20.184 23.549 20.956 23.168C21.3307 23.0027 21.6517 22.7358 21.8827 22.3975C22.1137 22.0593 22.2454 21.6632 22.263 21.254C22.2576 20.9619 22.3231 20.6728 22.4539 20.4116C22.5847 20.1503 22.7769 19.9247 23.014 19.754C23.559 19.239 23.806 18.797 23.734 18.488C23.6677 18.2942 23.5885 18.1051 23.497 17.922C23.2839 17.5832 23.1731 17.1902 23.178 16.79C23.2857 16.5784 23.4246 16.3843 23.59 16.214C24.053 15.73 24.115 15.607 24.115 15.174C24.1089 14.7769 23.9503 14.3973 23.672 14.114C23.291 13.641 23.272 13.548 23.456 13.424C23.7896 13.1129 24.0466 12.7289 24.207 12.302C24.2637 12.1742 24.2939 12.0363 24.2956 11.8965C24.2973 11.7567 24.2706 11.6181 24.217 11.489C24.1401 11.0923 23.9704 10.7195 23.7216 10.401C23.4729 10.0826 23.1523 9.82762 22.786 9.65698L22.436 9.48198H19.411C18.3571 9.55162 17.299 9.52048 16.251 9.38898C16.151 9.30698 16.138 9.22398 16.158 8.82298C16.189 8.37998 16.251 8.21598 16.889 6.93998C17.4196 5.97193 17.8178 4.93702 18.073 3.86298C18.1334 3.51445 18.1228 3.15733 18.042 2.81298C18.0254 2.27442 17.8722 1.74891 17.5969 1.28574C17.3216 0.82257 16.9331 0.436925 16.468 0.164978C15.976 -0.0434379 15.4222 -0.0520465 14.924 0.140978Z" fill="black"/>
<path d="M0.175 12.738L0 12.913V17.884C0 22.268 0.00999992 22.865 0.113 23.009C0.216 23.153 0.226 23.163 2.264 23.163C4.158 23.163 4.322 23.153 4.425 23.039C4.528 22.925 4.538 22.473 4.538 17.903C4.538 13.683 4.528 12.87 4.445 12.747C4.362 12.624 4.229 12.613 2.345 12.593L0.345 12.572L0.175 12.738ZM2.542 13.538C2.71106 13.5897 2.86434 13.6832 2.98766 13.8099C3.11098 13.9366 3.20035 14.0923 3.24751 14.2627C3.29467 14.4331 3.29808 14.6126 3.25744 14.7846C3.2168 14.9567 3.13341 15.1157 3.015 15.247C2.90731 15.3583 2.77563 15.4436 2.63 15.4963C2.48437 15.5491 2.32863 15.5679 2.17463 15.5513C2.02063 15.5348 1.87243 15.4833 1.74133 15.4009C1.61022 15.3184 1.49966 15.2071 1.41807 15.0755C1.33647 14.9438 1.28599 14.7953 1.27047 14.6412C1.25495 14.487 1.2748 14.3314 1.32851 14.1862C1.38222 14.0409 1.46837 13.9098 1.5804 13.8028C1.69243 13.6959 1.82739 13.6159 1.975 13.569C2.3 13.458 2.254 13.458 2.542 13.54V13.538Z" fill="black"/>
</svg>
