<svg width="25" height="24" viewBox="0 0 25 24" fill="none" xmlns="http://www.w3.org/2000/svg">
<path d="M5.04999 0.0709787C4.59853 0.0651031 4.15071 0.152383 3.7345 0.327367C3.31829 0.502351 2.94263 0.76128 2.63099 1.08798C2.33819 1.45532 2.16881 1.90572 2.14699 2.37498C2.15119 2.66188 2.08601 2.94555 1.95699 3.20184C1.82797 3.45813 1.63895 3.67946 1.40599 3.84698C0.905993 4.29998 0.592993 4.80398 0.664993 5.07198C0.695993 5.16498 0.829993 5.50398 0.964993 5.83398C1.32499 6.68798 1.30499 6.88398 0.820993 7.39798C0.64619 7.58214 0.484463 7.77828 0.336993 7.98498C0.25912 8.27972 0.261941 8.58999 0.345157 8.88327C0.428374 9.17655 0.588925 9.44206 0.809993 9.65198C0.916636 9.75972 1.00361 9.88527 1.06699 10.023C0.992966 10.1652 0.895616 10.294 0.778993 10.404C0.587882 10.6211 0.422145 10.8593 0.284993 11.114C0.133371 11.356 0.078394 11.6463 0.130993 11.927C0.179096 12.3715 0.340665 12.7962 0.60019 13.1602C0.859714 13.5243 1.20848 13.8155 1.61299 14.006L2.01299 14.206H5.05899C7.69399 14.206 8.12599 14.216 8.19799 14.319C8.27497 14.4938 8.29287 14.689 8.24899 14.875C8.1267 15.5081 7.8858 16.1124 7.53899 16.656C7.18568 17.3558 6.86957 18.0738 6.59199 18.807C6.39017 19.2704 6.29844 19.7742 6.32399 20.279C6.32953 21.0092 6.49473 21.7294 6.80799 22.389C7.06358 22.8711 7.45791 23.2654 7.93999 23.521C8.40451 23.7298 8.93156 23.752 9.41199 23.583L9.64899 23.47L9.69999 22.605C9.72454 21.6884 9.84962 20.7773 10.073 19.888C10.2657 18.8788 10.8503 17.987 11.699 17.408C12.677 16.677 12.769 16.533 13.86 13.96C14.776 11.778 15.116 11.305 16.052 10.841C16.5883 10.6142 17.1794 10.5499 17.752 10.656L18.061 10.728V1.09998L17.68 1.02798C15.2008 0.575883 12.6997 0.253113 10.187 0.0609785C8.47561 -0.0235353 6.76103 -0.0201973 5.04999 0.0709787Z" fill="black"/>
<path d="M20.025 0.594979C19.901 0.718979 19.901 10.815 20.025 10.949C21.4597 11.0725 22.9023 11.0725 24.337 10.949C24.461 10.825 24.461 0.728979 24.337 0.594979C22.9028 0.461209 21.4592 0.461209 20.025 0.594979ZM22.845 8.31398C22.9891 8.43567 23.0966 8.59499 23.1556 8.77417C23.2145 8.95336 23.2225 9.14538 23.1788 9.32887C23.135 9.51236 23.0412 9.6801 22.9078 9.81342C22.7743 9.94674 22.6065 10.0404 22.423 10.084C22.3186 10.1212 22.2073 10.135 22.0971 10.1243C21.9868 10.1135 21.8802 10.0786 21.785 10.022C21.666 9.98434 21.557 9.92039 21.4661 9.83487C21.3753 9.74935 21.3048 9.64446 21.26 9.52798C21.1444 9.3404 21.1025 9.11662 21.1424 8.89994C21.1823 8.68326 21.3012 8.48908 21.476 8.35498C21.5532 8.24848 21.659 8.1659 21.781 8.11673C21.903 8.06756 22.0365 8.05378 22.166 8.07698C22.2897 8.06266 22.4151 8.07655 22.5327 8.1176C22.6503 8.15864 22.757 8.22578 22.845 8.31398Z" fill="black"/>
</svg>
