<svg xmlns="http://www.w3.org/2000/svg" id="trash_copy_2" data-name="trash copy 2" width="13.709" height="17.994" viewBox="0 0 13.709 17.994">
  <path id="Path_473" data-name="Path 473" d="M143.667,1085.216h9.257a1.3,1.3,0,0,0,1.3-1.289v-11.459l.046-.016a1.29,1.29,0,0,0,.877-1.219v-.9a1.3,1.3,0,0,0-1.3-1.3h-3.31v-.52a1.3,1.3,0,0,0-1.3-1.293h-1.88a1.3,1.3,0,0,0-1.3,1.284v.527h-3.307a1.3,1.3,0,0,0-1.3,1.29v.9a1.288,1.288,0,0,0,.876,1.219l.046.016v11.46A1.3,1.3,0,0,0,143.667,1085.216Zm9.775-1.292a.521.521,0,0,1-.521.52h-9.253a.521.521,0,0,1-.519-.511v-11.4h1.946v9.577a.461.461,0,1,0,.922,0v-9.577h1.819v9.577a.461.461,0,1,0,.921,0v-9.577h1.819v9.577a.463.463,0,0,0,.461.461h0a.458.458,0,0,0,.456-.452v-9.587h1.944Zm-6.6-15.409a.521.521,0,0,1,.521-.521h1.864a.522.522,0,0,1,.519.512v.529h-2.9Zm-4.616,2.729v-.912a.521.521,0,0,1,.521-.52h11.1a.52.52,0,0,1,.519.512v.911a.521.521,0,0,1-.521.521H142.749A.521.521,0,0,1,142.229,1071.244Z" transform="translate(-141.441 -1067.222)" fill="#999999"/>
</svg>