<svg id="unknown" xmlns="http://www.w3.org/2000/svg" width="25" height="25" viewBox="0 0 25 25">
  <g id="Group_744" data-name="Group 744">
    <ellipse id="Ellipse_1" data-name="Ellipse 1" cx="12.5" cy="12.5" rx="12.5" ry="12.5" fill="#f66"/>
  </g>
  <g id="Group_745" data-name="Group 745" transform="translate(11.063 5.171)">
    <path id="Path_542" data-name="Path 542" d="M404.464,1407.646a1.794,1.794,0,0,0,1.217,0,1.529,1.529,0,0,0,.7-.653l.1-.19.018-7.946-.118-.267a1.6,1.6,0,0,0-.7-.65,1.809,1.809,0,0,0-.945-.088,1.477,1.477,0,0,0-.967.742l-.1.19-.018,7.946.116.264A1.543,1.543,0,0,0,404.464,1407.646Z" transform="translate(-403.631 -1397.823)" fill="#fff"/>
    <path id="Path_543" data-name="Path 543" d="M406.094,1413.057a1.511,1.511,0,0,0-1.48-.349,1.475,1.475,0,0,0-.953,1.063,1.433,1.433,0,0,0,.389,1.333,1.262,1.262,0,0,0,1.024.407,1.293,1.293,0,0,0,1.021-.4,1.265,1.265,0,0,0,.408-1.026A1.3,1.3,0,0,0,406.094,1413.057Z" transform="translate(-403.626 -1400.824)" fill="#fff"/>
  </g>
</svg>
