<svg id="unverified" xmlns="http://www.w3.org/2000/svg" width="25" height="25" viewBox="0 0 25 25">
  <g id="Group_452" data-name="Group 452">
    <g id="Group_451" data-name="Group 451">
      <path id="Path_321" data-name="Path 321" d="M348.21,1392.9a12.542,12.542,0,0,0-9.576,5.719,16.165,16.165,0,0,0-1.29,2.646,12.495,12.495,0,0,0,22.483,10.59,11.278,11.278,0,0,0,.974-1.959,12.75,12.75,0,0,0,.54-7.361,13.109,13.109,0,0,0-2.486-5.061,12.621,12.621,0,0,0-7.935-4.492A15.613,15.613,0,0,0,348.21,1392.9Z" transform="translate(-336.649 -1392.877)" fill="#fc9"/>
    </g>
  </g>
  <path id="Path_545" data-name="Path 545" d="M353.1,1398.41a5.742,5.742,0,0,1,1.666.826,4.419,4.419,0,0,1,1.354,4.247,4.533,4.533,0,0,1-2.042,2.456,4.837,4.837,0,0,0-1.539,1.493,2.219,2.219,0,0,0-.169.9,1.387,1.387,0,0,1-.466,1.2,1.331,1.331,0,0,1-1.016.371,1.383,1.383,0,0,1-1.206-.593c-.169-.257-.191-.3-.191-.8a4.2,4.2,0,0,1,.4-1.875,5.263,5.263,0,0,1,1.884-2.16,4.55,4.55,0,0,0,1.344-1.345,1.8,1.8,0,0,0-.032-1.365c-.276-.593-.814-.8-1.9-.762a2.364,2.364,0,0,0-2.1,1.069,1.944,1.944,0,0,1-.826.73,1.517,1.517,0,0,1-1.523-.233,1.332,1.332,0,0,1-.318-1.377,3.932,3.932,0,0,1,.941-1.4,5.859,5.859,0,0,1,2.72-1.4,5.323,5.323,0,0,1,1.6-.1,6.18,6.18,0,0,1,1.429.121Z" transform="translate(-338.504 -1393.905)" fill="#fff"/>
  <path id="Path_546" data-name="Path 546" d="M352.126,1414.45a1.549,1.549,0,0,1,.931.752,1.481,1.481,0,0,1,.149.815,1.387,1.387,0,0,1-.423,1.25,1.842,1.842,0,0,1-2.6-.107,1.819,1.819,0,0,1-.211-.278,2.428,2.428,0,0,1,0-1.674A1.867,1.867,0,0,1,352.126,1414.45Z" transform="translate(-339.168 -1396.973)" fill="#fff"/>
</svg>
