<svg id="verified" xmlns="http://www.w3.org/2000/svg" width="25" height="25" viewBox="0 0 25 25">
  <g id="Group_747" data-name="Group 747">
    <ellipse id="Ellipse_6" data-name="Ellipse 6" cx="12.5" cy="12.5" rx="12.5" ry="12.5" fill="#9fc"/>
  </g>
  <path id="Path_544" data-name="Path 544" d="M305.578,1401.673a1.54,1.54,0,0,0-.708-.691,1.577,1.577,0,0,0-1.037-.07l-.037.013c-.064.024-.16.063-.247.1a45.952,45.952,0,0,0-3.675,3.562l-2.943,2.924-1.332-1.319c-1.99-1.974-1.99-1.974-2.595-1.982a1.43,1.43,0,0,0-1.015.383,1.364,1.364,0,0,0-.474,1.079,1.428,1.428,0,0,0,.5,1.11l2.084,2.073c1.905,1.884,2,1.96,2.183,2.053a1.355,1.355,0,0,0,.65.132c.057,0,.109.007.159.007.443,0,.727-.282,3.537-3.068l.981-.973c3.864-3.829,3.864-3.829,3.974-4.067A1.519,1.519,0,0,0,305.578,1401.673Z" transform="translate(-286.119 -1393.267)" fill="#fff"/>
</svg>
