<svg id="views_squares_4" data-name="views squares 4" xmlns="http://www.w3.org/2000/svg" width="23.119" height="21.964" viewBox="0 0 23.119 21.964">
  <g id="views_squares_4-2" data-name="views squares 4" transform="translate(-136.895 -1285.807)">
    <g id="Group_303" data-name="Group 303" transform="translate(136.895 1285.807)">
      <g id="Group_302" data-name="Group 302">
        <g id="Group_301" data-name="Group 301">
          <path id="Path_286" data-name="Path 286" d="M139.068,1294.849h4.686a2.173,2.173,0,0,0,2.173-2.173v-4.7a2.173,2.173,0,0,0-2.173-2.173h-4.686a2.173,2.173,0,0,0-2.173,2.173v4.7A2.173,2.173,0,0,0,139.068,1294.849Z" transform="translate(-136.895 -1285.807)"/>
          <path id="Path_287" data-name="Path 287" d="M153.952,1287.331v5.985a1.523,1.523,0,0,0,1.523,1.523h5.986a1.523,1.523,0,0,0,1.523-1.523v-5.985a1.524,1.524,0,0,0-1.523-1.524h-5.986A1.524,1.524,0,0,0,153.952,1287.331Z" transform="translate(-139.865 -1285.807)"/>
          <path id="Path_288" data-name="Path 288" d="M139.068,1310.5h4.686a2.174,2.174,0,0,0,2.173-2.174v-4.686a2.173,2.173,0,0,0-2.173-2.173h-4.686a2.173,2.173,0,0,0-2.173,2.173v4.686A2.174,2.174,0,0,0,139.068,1310.5Z" transform="translate(-136.895 -1288.533)"/>
          <path id="Path_289" data-name="Path 289" d="M156.125,1310.5h4.686a2.174,2.174,0,0,0,2.173-2.174v-4.686a2.173,2.173,0,0,0-2.173-2.173h-4.686a2.173,2.173,0,0,0-2.173,2.173v4.686A2.174,2.174,0,0,0,156.125,1310.5Z" transform="translate(-139.865 -1288.533)"/>
        </g>
      </g>
    </g>
  </g>
</svg>
