<svg id="views_list" data-name="views list" xmlns="http://www.w3.org/2000/svg" width="22.182" height="21.964" viewBox="0 0 22.182 21.964">
  <g id="views_list-2" data-name="views list" transform="translate(-284.291 -1285.807)">
    <g id="Group_300" data-name="Group 300" transform="translate(284.291 1285.807)">
      <g id="Group_299" data-name="Group 299">
        <path id="Rectangle_126" data-name="Rectangle 126" d="M1.11,0h.766A1.111,1.111,0,0,1,2.986,1.111v.967a1.11,1.11,0,0,1-1.11,1.11H1.11A1.11,1.11,0,0,1,0,2.078V1.11A1.11,1.11,0,0,1,1.11,0Z"/>
        <path id="Rectangle_127" data-name="Rectangle 127" d="M1.11,0H16.028a1.11,1.11,0,0,1,1.11,1.11v.967a1.111,1.111,0,0,1-1.111,1.111H1.11A1.11,1.11,0,0,1,0,2.078V1.11A1.11,1.11,0,0,1,1.11,0Z" transform="translate(5.043)"/>
        <path id="Rectangle_128" data-name="Rectangle 128" d="M1.11,0h.767a1.11,1.11,0,0,1,1.11,1.11v.968a1.11,1.11,0,0,1-1.11,1.11H1.111A1.111,1.111,0,0,1,0,2.077V1.11A1.11,1.11,0,0,1,1.11,0Z" transform="translate(0 9.393)"/>
        <path id="Rectangle_129" data-name="Rectangle 129" d="M1.111,0H16.028a1.11,1.11,0,0,1,1.11,1.11v.968a1.11,1.11,0,0,1-1.11,1.11H1.11A1.11,1.11,0,0,1,0,2.078V1.111A1.111,1.111,0,0,1,1.111,0Z" transform="translate(5.043 9.393)"/>
        <path id="Rectangle_130" data-name="Rectangle 130" d="M1.11,0h.766A1.111,1.111,0,0,1,2.986,1.111v.949a1.11,1.11,0,0,1-1.11,1.11H1.11A1.11,1.11,0,0,1,0,2.06V1.11A1.11,1.11,0,0,1,1.11,0Z" transform="translate(0 18.794)"/>
        <path id="Rectangle_131" data-name="Rectangle 131" d="M1.11,0H16.028a1.11,1.11,0,0,1,1.11,1.11v.949a1.111,1.111,0,0,1-1.111,1.111H1.11A1.11,1.11,0,0,1,0,2.059V1.11A1.11,1.11,0,0,1,1.11,0Z" transform="translate(5.043 18.794)"/>
      </g>
    </g>
  </g>
</svg>
