<?xml version="1.0" encoding="utf-8"?>
<!-- Generator: Adobe Illustrator 24.2.3, SVG Export Plug-In . SVG Version: 6.00 Build 0)  -->
<svg version="1.1" id="Layer_1" xmlns="http://www.w3.org/2000/svg" xmlns:xlink="http://www.w3.org/1999/xlink" x="0px" y="0px"
	 viewBox="0 0 16 16" style="enable-background:new 0 0 16 16;" xml:space="preserve">
<style type="text/css">
	.st0{fill:#F3F3F3;}
</style>
<rect class="st0" width="16" height="16"/>
<path d="M15.3,5.9l-4.6-0.7L9.1,0.9C9,0.7,8.9,0.5,8.7,0.5c-0.2,0-0.4,0.1-0.5,0.4L5.6,5.2L0.8,5.9C0.2,6,0,6.4,0.4,6.8l3,3.3
	L2,14.8c-0.1,0.4,0,0.7,0.3,0.7c0.1,0,0.2,0,0.4-0.1l4.5-2.2l3.9,2.2c0.1,0.1,0.3,0.1,0.4,0.1c0.3,0,0.5-0.2,0.5-0.7l-0.2-4.7
	l3.8-3.3C16,6.4,15.9,6,15.3,5.9z M10.9,9.2l-0.5,0.4l0,0.6l0.2,3.3L7.8,12l-0.5-0.3l1.1-9l1.1,3l0.2,0.6l0.6,0.1l3.3,0.5L10.9,9.2z
	"/>
</svg>
