<?xml version="1.0" encoding="utf-8"?>
<!-- Generator: Adobe Illustrator 24.0.2, SVG Export Plug-In . SVG Version: 6.00 Build 0)  -->
<svg version="1.1" id="Layer_1" xmlns="http://www.w3.org/2000/svg" xmlns:xlink="http://www.w3.org/1999/xlink" x="0px" y="0px"
	 viewBox="0 0 171.5 34.9" style="enable-background:new 0 0 171.5 34.9;" xml:space="preserve">
<g>
	<path d="M77.3,8.7l0.2,4.3c0,0.4-0.2,0.6-0.4,0.6c-0.1,0-0.2,0-0.3-0.1l-3.6-2l-4.1,2c-0.1,0.1-0.3,0.1-0.4,0.1
		c-0.3,0-0.4-0.2-0.3-0.6l1.3-4.3l-2.8-3c-0.3-0.4-0.2-0.7,0.4-0.8l4.4-0.6l2.4-3.9C74.2,0.1,74.4,0,74.6,0c0.2,0,0.3,0.1,0.4,0.4
		l1.5,3.9l4.2,0.6c0.5,0.1,0.6,0.4,0.2,0.8L77.3,8.7z M79.1,5.8l-3-0.4l-0.6-0.1l-0.2-0.5l-1-2.8l-1,8.3l0.5,0.3l2.6,1.4l-0.1-3
		l0-0.6L76.6,8L79.1,5.8z"/>
	<g>
		<path d="M38.2,34.6l2.3-18.9h4.3l6.3,12.6l1.6-12.6H57l-2.3,18.9h-4.5l-6.2-12.3l-1.5,12.3H38.2z"/>
		<path d="M57.6,15.6h4.4l-1.3,10.3c-0.1,1-0.2,1.7-0.1,2.2c0.1,0.8,0.4,1.4,1,1.9c0.6,0.5,1.2,0.7,1.9,0.7c0.5,0,1.1-0.2,1.7-0.7
			c0.6-0.4,1-1,1.2-1.6c0.2-0.6,0.3-1.4,0.4-2.2L68,15.6h4.6l-1.2,10c-0.3,2.3-0.6,3.9-0.9,4.8c-0.3,0.9-0.8,1.7-1.4,2.4
			c-0.6,0.6-1.4,1.2-2.4,1.5c-1,0.4-2.2,0.6-3.7,0.6c-1.8,0-3.2-0.2-4-0.6c-0.9-0.4-1.6-1-2-1.6c-0.5-0.7-0.7-1.4-0.8-2.1
			c-0.1-1.1,0-2.7,0.2-4.8L57.6,15.6z"/>
		<g>
			<path d="M36.9,26.6H25.2c-0.1,2.9,1.4,3.9,3.9,3.9c2.1,0,3.2-1,3.9-2.1h5.5c-1.7,4.1-4.7,6.2-9.9,6.2c-6.1,0-8.9-3-8.1-9.6
				c0.7-6.5,4.2-9.5,10.4-9.6c6,0,8.8,2.8,8.2,8.9C38.9,25.9,38.3,26.6,36.9,26.6z M30.4,19.7c-2.2,0-3.9,0.7-4.5,3
				c5.6,0,8.4,0,8.4,0C34.3,20.4,32.7,19.7,30.4,19.7z"/>
		</g>
		<path d="M97.1,34.6l2.3-18.9h4.3l6.3,12.6l1.6-12.6h4.2l-2.3,18.9H109l-6.2-12.4l-1.5,12.4H97.1z"/>
		<g>
			<path d="M142.6,26.6H131c-0.1,2.9,1.4,3.9,3.9,3.9c2.1,0,3.3-1,3.9-2.1h5.5c-1.7,4.1-4.7,6.2-9.9,6.2c-6.1,0-8.9-3-8.1-9.6
				c0.7-6.5,4.2-9.5,10.4-9.6c6,0,8.8,2.8,8.2,8.9C144.7,25.9,144.1,26.6,142.6,26.6z M136.2,19.7c-2.2,0-3.9,0.7-4.5,3
				c5.6,0,8.4,0,8.4,0C140,20.4,138.4,19.7,136.2,19.7z"/>
		</g>
		<path d="M93.6,17.6c-0.3-0.7-0.6-1.1-1-1.5c-0.4-0.3-0.9-0.5-1.5-0.5c-0.6,0-1.1,0.2-1.6,0.5c-0.5,0.3-0.9,0.8-1.4,1.5l-6.9,14.1
			l0.2-1.3l-2,0c-1.2,0-2-0.2-2.5-0.7c-0.5-0.5-0.8-1-0.9-1.6c0-0.6,0-1.7,0.2-3.2l1.1-9.3h-4l-1.1,9.2c-0.3,2.3-0.4,4-0.3,5
			c0.1,1,0.4,1.8,0.9,2.5c0.5,0.7,1.2,1.2,2.2,1.6c0.9,0.4,2.2,0.6,3.8,0.6l1.1,0H84l2-4.1h6.5l1,4.1h4.2L93.6,17.6z M87.6,27.2
			l2.7-5.6l1.3,5.6H87.6z"/>
		<path d="M17.5,15.7L17.5,15.7l-6.4,12.9L8,15.7h0H3.8L1.5,34.5h4.2l0.9-7.4l1.3,5.5c0.3,0.7,0.6,1.1,1,1.5
			c0.4,0.3,0.9,0.5,1.5,0.5c0.6,0,1.1-0.2,1.6-0.5c0.5-0.3,0.9-0.8,1.4-1.5l2.7-5.6l-0.9,7.5h4.2l2.3-18.9H17.5z"/>
		<g>
			<path d="M122.5,15.8c0.3-0.1,0.8-0.2,1.1-0.2c0.3,0,3.8,0,5.2,0c-0.1,0.7-0.2,1.8-0.3,2.4c-0.2,1-0.7,1.7-2.2,1.6
				c-0.2,0-1.2,0-1.4,0c-3.7,0-5.9,3-6,6c-0.1,3.3,2.3,5,4.6,4.9c1-0.1,2.5,0,3.5,0c-0.2,1.5-0.3,2.7-0.5,4c-1.6,0-3.2,0-4.6,0
				c-3.4,0-5.9-2.3-6.9-5.3c-0.6-1.7-0.4-4.2-0.1-5.5C116.1,19.4,119.1,16.7,122.5,15.8z"/>
		</g>
	</g>
</g>
<g>
	<path d="M165.1,19.8c0-0.1-0.1-0.3-0.1-0.4c0-0.2,0-0.3-0.1-0.4c0,0.1-0.1,0.2-0.2,0.4c-0.1,0.2-0.1,0.3-0.2,0.5
		c-0.1,0.1-0.1,0.3-0.1,0.3l-0.6,1.4h1.6l-0.3-1.4C165.1,20.1,165.1,20,165.1,19.8z"/>
	<path d="M151.1,19.1h-0.7l-0.2,1.3h0.7c0.4,0,0.6-0.1,0.8-0.2c0.2-0.1,0.2-0.3,0.3-0.5c0-0.2,0-0.4-0.2-0.5
		C151.7,19.2,151.4,19.1,151.1,19.1z"/>
	<path d="M151.5,21.5c-0.1-0.1-0.4-0.1-0.6-0.1h-0.8l-0.2,1.6h0.8c0.4,0,0.7-0.1,0.8-0.2c0.2-0.1,0.3-0.3,0.3-0.6
		c0-0.1,0-0.3-0.1-0.4C151.8,21.7,151.7,21.6,151.5,21.5z"/>
	<path d="M168.5,15.7h-19.2c-1.5,0-2.8,1.2-3,2.7l-0.6,5.3c-0.2,1.5,0.9,2.7,2.4,2.7h19.2c1.5,0,2.8-1.2,3-2.7l0.6-5.3
		C171,16.9,170,15.7,168.5,15.7z M153.4,19.6c0,0.2-0.1,0.4-0.2,0.6s-0.2,0.3-0.4,0.4c-0.1,0.1-0.3,0.2-0.5,0.2l0,0
		c0.2,0,0.4,0.1,0.5,0.2c0.1,0.1,0.3,0.2,0.3,0.4s0.1,0.4,0.1,0.8c0,0.4-0.2,0.7-0.4,0.9c-0.2,0.3-0.5,0.5-0.8,0.6
		c-0.3,0.1-0.7,0.2-1.2,0.2h-2.2l0.7-5.9h1.9c0.8,0,1.4,0.1,1.8,0.3C153.3,18.7,153.4,19,153.4,19.6z M157.7,19.1h-2.2l-0.2,1.3h2
		l-0.1,1h-2l-0.2,1.5h2.2l-0.1,1h-3.4l0.7-5.9h3.4L157.7,19.1z M160.7,24h-1.3l0.6-4.9h-1.6l0.1-1.1h4.5l-0.1,1.1h-1.6L160.7,24z
		 M165.8,24l-0.3-1.4h-2.2l-0.6,1.4h-1.4l2.8-6h1.5l1.4,6H165.8z"/>
</g>
</svg>
